<svg xmlns="http://www.w3.org/2000/svg" width="246.585" height="332.506" viewBox="0 0 246.585 332.506"><defs><style>.a{fill:#fff;}.b{fill:#fcdc4a;}.c{fill:#211715;}</style></defs><path class="a" d="M179.946,272.151c3.148-2.872,4.317-5.814,8.33-7.246a46.7,46.7,0,0,1,8.879-2.236c10.954-1.584,20.4-6.6,28.551-14.093,13.215-15.818,17.159-37.447,18.135-60.061.952-22.05.409-44.625-7.932-65.059-2.643-6.475-7.617-13.008-13.761-16.35-5.951-3.236-13.095-2.937-19.823-3.726s-17.709-6.52-22.379-18.3l-.374,53.152c3-7.9,12.127-15.658,18.236-17.323a22.948,22.948,0,0,1,18.227,2.817,15.457,15.457,0,0,1,4.029,3.61c5.363,7.385,7.237,28.786,7.66,38.418.728,17.125-1.651,33.561-5.2,50.929-1.857,9.092-6.393,18.487-14.416,23.151-4.913,2.856-10.783,3.461-16.458,3.768a15.192,15.192,0,0,1-6.912-.738c-2.05-.892-4.5-2.917-5.167-5.05Z"></path><path class="a" d="M6.731,42.858c-2.444,6.031-4.576,12-4.316,19.115.15,4.125.4,8.319,1.822,12.194s4.186,7.45,8.05,8.9c6.108,2.3,12.71-1.126,18.548-4.045A137.827,137.827,0,0,1,62.068,67.883c10.255-2.319,20.112-.732,30.563-.481,44.016,1.06,82-10.915,82-19.65,0-16-11.774-45.28-82.073-45.28-23.27,0-52.38,1.347-71.408,16.8A34.007,34.007,0,0,0,10.223,34.03C9.139,37.074,7.9,39.973,6.731,42.858Z"></path><path class="a" d="M179.269,271.258V58.048c0-1.221-.046-5.778-5.083-6.37l-1.9.054C163.4,59.7,130.225,68.307,92.631,67.4c-10.451-.251-20.308-1.838-30.563.481A137.827,137.827,0,0,0,30.835,79.026C25,81.945,18.4,85.371,12.287,83.071a13.179,13.179,0,0,1-6.338-5.458V271.258c0,9.879-1.963,19.955,0,29.637,4.778,23.57,52.021,28.645,86.663,29.323,34.642-.679,81.523-6.79,86.657-29.323C181.464,291.263,179.269,281.137,179.269,271.258Zm-11.584,5.069c0,18.409-50.33,23.556-79.751,23.556-13.515,0-40.722-2.828-57.169-10.451-8.071-3.741-13.552-8.637-13.552-14.92V103.419c19.607,9.967,50.773,12.6,74.768,12.6,34.692,0,56.69-5.116,74.637-14.049l1.31-.859C167.861,156.218,167.685,245.663,167.685,276.327Z"></path><path class="b" d="M30.765,289.432c-8.071-3.741-13.552-8.637-13.552-14.92V103.419c19.607,9.967,50.773,12.6,74.768,12.6,34.692,0,56.69-5.116,74.637-14.049l1.31-.859c-.067,55.109-.243,144.554-.243,175.218,0,18.409-50.33,23.556-79.751,23.556C74.419,299.883,47.212,297.055,30.765,289.432Z"></path><path class="c" d="M173.551,53.99a4.835,4.835,0,0,1,2.236.774,2.3,2.3,0,0,1,.815,1.279c.084.284.149.57.21.86.1.465.01.052,0-.043.016.148.031.3.037.443.029.67.02,1.34.02,2.01V266.3c0,6.392.39,12.7.775,19.072.328,5.438.584,11.293-1.149,16.541a18.637,18.637,0,0,1-4.2,6.7,32.4,32.4,0,0,1-7.792,5.86c-6.949,3.931-14.748,6.254-22.49,8.034a201.77,201.77,0,0,1-27.462,4.147,226.013,226.013,0,0,1-27.135,1.025c-9.256-.3-18.512-.9-27.706-2.021a150.1,150.1,0,0,1-25.981-5.239c-6.669-2.055-13.709-4.917-18.87-9.455a20.4,20.4,0,0,1-5.336-6.812,10.359,10.359,0,0,1-.646-1.6,19.785,19.785,0,0,1-.618-2.3,44.936,44.936,0,0,1-.785-9.065c-.008-6.3.779-12.576.864-18.877.086-6.411.007-12.827.007-19.238V77.635c0-3.088-4.8-3.093-4.8,0V257.484c0,6.621.173,13.266-.2,19.878-.36,6.441-1.051,12.914-.42,19.362A26.834,26.834,0,0,0,6.2,308.106c3.562,6,9.653,10.1,15.857,12.988a103.064,103.064,0,0,0,24.688,7.4,241.531,241.531,0,0,0,28.531,3.4,238.81,238.81,0,0,0,27.609.363,269.147,269.147,0,0,0,28.98-2.92,129.187,129.187,0,0,0,26.059-6.56c6.77-2.6,13.708-6.07,18.55-11.629a23,23,0,0,0,4.757-8.313c1.742-5.655,1.554-11.9,1.194-17.734-.4-6.471-.759-12.868-.759-19.356V62.477c0-1.8.116-3.638-.039-5.432-.339-3.932-2.742-7.1-6.8-7.684a2.48,2.48,0,0,0-2.952,1.676,2.418,2.418,0,0,0,1.676,2.953Z"></path><path class="c" d="M165.564,66.863q0,19.065-.036,38.13-.036,26.718-.082,53.436-.045,28.132-.09,56.266-.036,23.259-.062,46.519c-.005,5.3.249,10.671-.045,15.961-.039.694.114-.315-.052.355-.073.3-.128.593-.213.886s-.189.577-.3.863c-.148.4.019-.053.047-.111-.1.2-.191.406-.3.605a13.884,13.884,0,0,1-.968,1.534c-.212.3.371-.441-.007.008-.117.139-.231.28-.351.416q-.368.422-.764.814a15.325,15.325,0,0,1-3.168,2.517,37.031,37.031,0,0,1-4.463,2.441,69.82,69.82,0,0,1-10.926,3.823c-4.514,1.226-9.1,2.161-13.716,2.931a244.656,244.656,0,0,1-28.461,2.887,195.489,195.489,0,0,1-47.223-3.122c-4.193-.823-8.36-1.8-12.457-3.017a72.375,72.375,0,0,1-10.629-3.961,42.272,42.272,0,0,1-4.525-2.5c-.67-.429-1.326-.882-1.961-1.362.378.286-.4-.323-.49-.4q-.463-.389-.905-.8a18.566,18.566,0,0,1-1.467-1.528q-.181-.213-.355-.431c.049.061.294.4.041.049-.211-.292-.417-.587-.608-.892s-.361-.6-.522-.917c-.077-.15-.443-1-.193-.369a11.258,11.258,0,0,1-.574-1.876c-.029-.139-.053-.28-.079-.42-.109-.583.04.551,0-.043-.022-.29-.043-.578-.05-.869-.045-1.885,0-3.777,0-5.662V92.27c0-3.088-4.8-3.093-4.8,0V272.516a19.832,19.832,0,0,0,.49,5.525,16.513,16.513,0,0,0,4.875,7.471c5.563,5.1,13.1,7.906,20.211,10.041A160.669,160.669,0,0,0,66.2,300.735a172.6,172.6,0,0,0,22.009,1.548c9.259-.007,18.526-.473,27.74-1.383a179.178,179.178,0,0,0,28.835-4.868c7.157-1.922,14.927-4.5,20.477-9.629a14.636,14.636,0,0,0,4.5-7.272c.57-2.5.327-5.206.328-7.758q.01-21,.048-41.989.039-27.727.087-55.454.047-28.01.089-56.018.033-21.887.052-43.773,0-3.638,0-7.276c0-3.089-4.8-3.094-4.8,0Z"></path><path class="c" d="M17.864,106.4c9.3,4.327,19.326,6.856,29.4,8.577a249.377,249.377,0,0,0,32.408,3.206c20.9.8,42.354.095,62.755-4.9a122.906,122.906,0,0,0,25.4-9.243,2.4,2.4,0,0,0-2.423-4.145c-14.969,7.429-31.643,11.135-48.349,12.668a285.5,285.5,0,0,1-33.052.957A256.32,256.32,0,0,1,52.586,111c-10.987-1.636-22.178-4.028-32.3-8.738a2.468,2.468,0,0,0-3.283.861,2.418,2.418,0,0,0,.861,3.283Z"></path><path class="c" d="M177.632,85.721a33.173,33.173,0,0,0,14.121,16.386,29.161,29.161,0,0,0,7.96,3.239c3.693.852,7.578.82,11.335,1.21a25.247,25.247,0,0,1,11.565,3.63,28.936,28.936,0,0,1,8.291,8.795,51.244,51.244,0,0,1,5.106,11.736,108.189,108.189,0,0,1,3.37,13.386,158.362,158.362,0,0,1,2.4,27.7,268.164,268.164,0,0,1-1.045,27.35c-1.492,15.963-5.234,32.346-14.927,45.45a34.586,34.586,0,0,1-9,7.945,49.669,49.669,0,0,1-10.641,5.409c-4.047,1.449-8.167,1.994-12.343,2.877-4.314.912-8.637,2.147-11.73,5.454-1.293,1.383-2.452,2.869-3.841,4.163-2.264,2.111,1.136,5.5,3.394,3.394,1.431-1.333,2.617-2.875,3.96-4.289a10.321,10.321,0,0,1,4.6-2.781c4.323-1.406,8.824-1.779,13.2-2.937a56.7,56.7,0,0,0,22.141-11.925,38.832,38.832,0,0,0,7.633-9.722,74.176,74.176,0,0,0,5.393-11.042,104.939,104.939,0,0,0,6.085-24.471,234.013,234.013,0,0,0,1.871-27.084,197.248,197.248,0,0,0-1.219-28.287,112.727,112.727,0,0,0-6.663-27.433c-3.079-7.823-8.415-15.611-16.227-19.32-4.111-1.951-8.583-2.574-13.075-2.961-2.2-.19-4.4-.353-6.6-.568-.076-.008-.775-.1-.205-.018-.144-.021-.288-.041-.431-.068-.261-.048-.521-.094-.779-.149-.633-.135-1.258-.3-1.876-.489A27.916,27.916,0,0,1,184.9,89.361a27.328,27.328,0,0,1-2.637-4.917,2.477,2.477,0,0,0-2.953-1.676,2.417,2.417,0,0,0-1.676,2.953Z"></path><path class="c" d="M181.886,138.872c2.082-5.33,6.614-9.971,11.33-13.081a18.251,18.251,0,0,1,7.243-3.013,20.478,20.478,0,0,1,9.337.678c3.045.927,6.372,2.639,8.314,5.25a16.636,16.636,0,0,1,2.308,4.749,80.216,80.216,0,0,1,3.394,15.424,164.892,164.892,0,0,1,1.164,35.406,224.982,224.982,0,0,1-3.083,23.068c-1.2,6.637-2.253,13.459-5.343,19.533-3.171,6.234-8.051,11.18-14.949,13a49.824,49.824,0,0,1-11.271,1.375,9.884,9.884,0,0,1-5.322-.944,6.725,6.725,0,0,1-3.122-3.141,2.463,2.463,0,0,0-2.953-1.677,2.423,2.423,0,0,0-1.676,2.953,12,12,0,0,0,7.869,7.092c3.662,1.064,7.926.483,11.654.048a33.919,33.919,0,0,0,11.42-3.081,25.678,25.678,0,0,0,7.907-6.319,41.768,41.768,0,0,0,8.618-18.325c1.8-8.359,3.224-16.832,4.239-25.323a172.116,172.116,0,0,0-.041-41.273,100.6,100.6,0,0,0-3.337-17.451,30.122,30.122,0,0,0-2.859-6.8,18.388,18.388,0,0,0-7.819-6.673c-6.433-3.11-14.282-3.616-20.83-.559a35.876,35.876,0,0,0-14.642,13.378,27.029,27.029,0,0,0-2.179,4.432,2.418,2.418,0,0,0,1.676,2.952,2.456,2.456,0,0,0,2.953-1.676Z"></path><path class="c" d="M4.416,42.22a58.4,58.4,0,0,0-3.947,12.9A48.284,48.284,0,0,0,.7,69.936,21.71,21.71,0,0,0,6.284,81.912a14.538,14.538,0,0,0,12.229,4.181c4.768-.579,9.094-2.777,13.338-4.9a133.845,133.845,0,0,1,13.383-5.818C54.381,72,63.964,69.131,73.78,69.042c5.013-.045,10.014.375,15.017.617,5.075.245,10.161.264,15.24.133a229.869,229.869,0,0,0,28.312-2.487,163.136,163.136,0,0,0,22.7-4.943,65.639,65.639,0,0,0,15.586-6.453c2.9-1.791,6.219-4.351,6.4-8.061a31.11,31.11,0,0,0-.851-7.873,38.629,38.629,0,0,0-9.025-17.381c-6.261-7.049-14.731-11.778-23.474-15.046C129.862,2.383,114.82.663,100.162.192,83.778-.334,66.912.054,50.836,3.512a82.245,82.245,0,0,0-22.916,8.3c-7.319,4.1-14.185,9.769-18.141,17.293A54.439,54.439,0,0,0,7.241,35.2c-.895,2.357-1.876,4.682-2.825,7.018a2.416,2.416,0,0,0,1.677,2.952A2.459,2.459,0,0,0,9.045,43.5c.919-2.262,1.867-4.513,2.739-6.794a43.732,43.732,0,0,1,2.524-5.88,34.071,34.071,0,0,1,7.761-9.2A59.543,59.543,0,0,1,41.78,10.948c14.8-4.972,30.628-5.9,46.123-6.055,15.273-.148,30.714.571,45.553,4.466,2.81.737,5.59,1.59,8.319,2.585a62.837,62.837,0,0,1,6.783,2.88,60.124,60.124,0,0,1,6.1,3.438q1.356.874,2.657,1.831c.189.139.377.281.565.422a1.535,1.535,0,0,1,.222.172c.405.325.81.649,1.208.984a43.314,43.314,0,0,1,4.1,3.929c.595.654,1.162,1.33,1.719,2.016.053.065.1.131.155.2.205.257-.267-.353-.07-.092.116.153.232.3.346.46q.387.519.754,1.053a36.181,36.181,0,0,1,2.446,4.1c.331.648.635,1.308.932,1.973.258.578-.094-.248.035.081.06.153.123.3.184.457.135.344.266.69.39,1.039a34.552,34.552,0,0,1,1.138,3.876q.218.945.383,1.9c.052.3.094.6.143.9.095.58-.037-.368,0-.046.015.156.038.312.056.468a31.948,31.948,0,0,1,.213,3.457c0,.12-.008.245,0,.365.029.4-.041.039.049-.2a6.034,6.034,0,0,0-.216.782c.153-.739.005-.042-.191.272-.075.119-.165.231-.238.351-.116.191.367-.4-.069.07a15.919,15.919,0,0,1-1.692,1.581c.494-.4-.437.311-.635.446-.419.287-.848.559-1.283.821a46.283,46.283,0,0,1-6.084,3,115.139,115.139,0,0,1-18.74,5.551,208.96,208.96,0,0,1-52.9,4.458c-9.718-.4-19.423-1.478-29.024.7a140.169,140.169,0,0,0-27,9.147c-4.173,1.9-8.181,4.314-12.555,5.729-3.709,1.2-7.806,1.491-11.015-1.1C7.5,76.872,6.067,72.963,5.4,69.112a40.166,40.166,0,0,1-.162-13.559A60.961,60.961,0,0,1,9.045,43.5a2.416,2.416,0,0,0-1.676-2.952A2.459,2.459,0,0,0,4.416,42.22Z"></path></svg>