<svg xmlns="http://www.w3.org/2000/svg" viewBox="0 0 512 512">
  <defs>
    <style>
      .cls-1 {
        fill: #8eafc9;
      }

      .cls-2 {
        fill: #e7deb8;
      }

      .cls-3 {
        fill: #f2e74b;
      }

      .cls-4 {
        fill: #fbf8ec;
      }

      .cls-5 {
        fill: #4b4b4b;
      }

      .cls-6 {
        font-size: 25px;
      }

      .cls-6, .cls-7 {
        font-family: TsukuARdGothicStd-R-90ms-RKSJ-H, FOT-TsukuARdGothic Std;
      }

      .cls-7 {
        font-size: 32.462px;
      }
    </style>
  </defs>
  <g id="レイヤー_1" data-name="レイヤー 1">
    <g>
      <path class="cls-1" d="M302.646,433.632a14.56,14.56,0,0,0-.872,2.139c-.039.159.791.734.845.687.493-.43,1.152-.913,1.247-1.469C303.927,434.633,303.12,434.129,302.646,433.632Z"/>
      <g>
        <path class="cls-2" d="M358.112,237.247c4.673-.555,30.034-5.236,27.327,5.149-10.119,6.264-26.484,11.612-35.276,20.569a13.31,13.31,0,0,1-3.947,2.785c-71.56,32.871-75.937.883-78.479.135-7.991.491,51.888-21.835,58.763-23.469C330.947,241.36,352.442,237.922,358.112,237.247Z"/>
        <path class="cls-3" d="M294.1,283.557a44.366,44.366,0,0,1-9.011-.859c-12.421-2.577-16.818-10.3-18.7-13.6-.077-.133-.158-.277-.237-.414a3.185,3.185,0,0,1-2.118-2.5c-.4-2.719,1.412-3.767,10.055-7.453,4.736-2.021,11.325-4.651,19.054-7.608,12.813-4.9,28.943-10.737,32.66-11.62,4.66-1.106,26.334-4.56,31.951-5.228h0c.43-.052,1.042-.14,1.8-.247,11.637-1.662,23.009-2.528,27.371,2.359a7,7,0,0,1,1.417,6.771l-.3,1.162-1.02.632a141.6,141.6,0,0,1-12.647,6.608c-8.225,3.969-16.728,8.074-22.067,13.512a16.265,16.265,0,0,1-4.837,3.411C325.634,278.506,307.74,283.556,294.1,283.557Zm-22.375-17.226c1.752,3.073,5.032,8.511,14.583,10.492,13.08,2.712,32.814-1.929,58.657-13.8a10.278,10.278,0,0,0,3.057-2.159c6.072-6.185,15.054-10.521,23.742-14.714,3.925-1.9,7.658-3.7,10.828-5.544a.641.641,0,0,0-.142-.229c-1.053-1.181-5.317-2.805-22.047-.416-.812.117-1.472.21-1.935.266h0c-5.844.694-27.122,4.122-31.274,5.108C320.867,246.838,282.436,261.286,271.724,266.331Z"/>
      </g>
      <g>
        <path class="cls-2" d="M216.419,273.705c4.672-.555,30.034-5.236,27.327,5.149-10.12,6.264-26.485,11.612-35.276,20.569a13.315,13.315,0,0,1-3.948,2.785c-71.559,32.871-75.936.883-78.479.135-7.99.491,51.888-21.835,58.764-23.469C189.253,277.818,210.748,274.38,216.419,273.705Z"/>
        <path class="cls-3" d="M152.405,320.015a44.349,44.349,0,0,1-9.01-.859c-12.421-2.577-16.819-10.3-18.7-13.6-.076-.133-.157-.277-.236-.414a3.183,3.183,0,0,1-2.118-2.5c-.405-2.719,1.412-3.767,10.054-7.453,4.737-2.021,11.326-4.652,19.055-7.608,12.813-4.9,28.942-10.736,32.659-11.62,4.653-1.1,26.327-4.559,31.951-5.228h0c.43-.052,1.042-.14,1.8-.248,11.639-1.661,23.009-2.527,27.372,2.36a7,7,0,0,1,1.417,6.771l-.3,1.162-1.021.632a141.835,141.835,0,0,1-12.646,6.608c-8.225,3.969-16.729,8.074-22.068,13.512a16.253,16.253,0,0,1-4.837,3.411C183.94,314.964,166.047,320.014,152.405,320.015ZM130.03,302.789c1.752,3.073,5.032,8.511,14.583,10.492,13.08,2.711,32.815-1.928,58.658-13.8a10.291,10.291,0,0,0,3.057-2.159c6.071-6.185,15.054-10.521,23.741-14.714,3.925-1.894,7.659-3.7,10.828-5.544a.641.641,0,0,0-.141-.229c-1.055-1.181-5.325-2.8-22.048-.416-.812.116-1.472.21-1.935.265-5.849.7-27.129,4.125-31.273,5.109C179.174,283.3,140.742,297.744,130.03,302.789Z"/>
      </g>
      <g>
        <path class="cls-2" d="M409.738,325.833c7.155-.851,44.377-5.675,40.231,10.228-15.5,9.593-38.941,15.439-52.4,29.156a20.425,20.425,0,0,1-6.045,4.266c-109.586,50.338-117.906,3.695-121.8,2.55-12.237.752,81.078-35.782,91.607-38.284C368.137,332.131,401.054,326.866,409.738,325.833Z"/>
        <path class="cls-3" d="M309.6,397.394a70.813,70.813,0,0,1-12.368-1.02c-19.315-3.428-26.41-14.647-29.439-19.438-.118-.188-.247-.391-.371-.585a4.893,4.893,0,0,1-3.353-3.882c-.614-4.139,2.4-5.936,15.562-11.823,9.369-4.191,21.341-9.083,29.734-12.448,20.543-8.236,45.2-17.564,50.9-18.919,7.126-1.693,40.319-6.983,48.93-8.008h0l.526-.063c23.392-2.808,36.881-1.145,42.45,5.233a11.287,11.287,0,0,1,2.243,10.779L453.951,339l-1.563.968c-6.026,3.73-12.913,6.792-20.2,10.032-11.55,5.134-23.493,10.442-31.339,18.436a24.9,24.9,0,0,1-7.408,5.223C359.078,389.44,330.961,397.393,309.6,397.394Zm-33.727-24.873c2.857,4.491,8.2,12.186,22.965,14.806,20.489,3.636,51.032-3.77,90.76-22.019A15.772,15.772,0,0,0,394.286,362c9.072-9.243,21.829-14.913,34.165-20.4a189.14,189.14,0,0,0,17.206-8.318,1.564,1.564,0,0,0-.408-.8c-1.165-1.336-7.087-5.434-34.433-2.153l-.535.065c-8.958,1.065-41.545,6.315-47.891,7.823C353.116,340.422,292.461,364.312,275.877,372.521Z"/>
      </g>
      <g>
        <path class="cls-2" d="M205.245,333.777c5.511-.655,35.421-6.175,32.228,6.072-11.934,7.388-31.234,13.695-41.6,24.259a15.741,15.741,0,0,1-4.656,3.285c-84.4,38.767-89.558,1.041-92.556.159-9.424.579,61.2-25.752,69.3-27.679C173.207,338.627,198.557,334.572,205.245,333.777Z"/>
        <path class="cls-3" d="M129.749,388.393a52.389,52.389,0,0,1-10.628-1.012c-14.648-3.039-19.834-12.152-22.048-16.044-.089-.156-.184-.326-.278-.487a3.758,3.758,0,0,1-2.5-2.953c-.476-3.207,1.666-4.442,11.858-8.79,5.586-2.382,13.358-5.485,22.474-8.972,15.11-5.78,34.133-12.662,38.516-13.7,5.494-1.306,31.055-5.379,37.682-6.167h0c.508-.06,1.231-.164,2.119-.291,13.727-1.961,27.135-2.98,32.281,2.782a8.259,8.259,0,0,1,1.67,7.986l-.357,1.37-1.2.745a166.954,166.954,0,0,1-14.917,7.793c-9.7,4.682-19.729,9.523-26.023,15.937a19.212,19.212,0,0,1-5.7,4.022C166.94,382.437,145.838,388.393,129.749,388.393Zm-26.388-20.315c2.067,3.624,5.934,10.037,17.2,12.374,15.429,3.2,38.7-2.275,69.179-16.274a12.147,12.147,0,0,0,3.606-2.548c7.16-7.3,17.754-12.408,28-17.353,4.629-2.234,9.032-4.36,12.77-6.539a.747.747,0,0,0-.167-.27c-1.243-1.393-6.275-3.308-26-.49-.958.137-1.737.248-2.284.313h0c-6.893.819-31.988,4.861-36.882,6.024C161.319,345.088,116,362.128,103.361,368.078Z"/>
      </g>
      <path class="cls-4" d="M302.646,433.632c.474.5,1.281,1,1.22,1.357-.095.556-.754,1.039-1.247,1.469-.054.047-.884-.528-.845-.687A14.56,14.56,0,0,1,302.646,433.632Z"/>
    </g>
    <path class="cls-5" d="M266.887,276.68a2.674,2.674,0,0,0,.873-.982,2.449,2.449,0,0,0-.493-2.729l-6.18-8.082-41.382-54.146-2.925-3.831-22.725-29.729c-3.365-4.407-9.957-5.034-14.718-1.4s-5.887,10.161-2.519,14.568c4.277,5.592,6.606,3.812,10.883,9.408s1.944,7.374,6.223,12.97,6.6,3.809,10.874,9.4l.358-.274,1.417,1.85L191.26,235.414c22.421,29.336,43.111,39.479,57.611,42.53C259.294,280.14,264.848,278.241,266.887,276.68Zm-17.023-3.45c-12.269-2.584-31-11.144-51.8-36.952l11.437-8.742,3.828-2.925-2.926-3.828-1.413-1.85,6.89-5.266,41.383,54.146,4.5,5.888C259.518,274.208,255.638,274.445,249.864,273.23Z"/>
  </g>
  <g id="レイヤー_4" data-name="レイヤー 4">
    <text class="cls-6" transform="translate(218.5 132)">切る！</text>
    <text class="cls-7" transform="translate(301.773 372.034)">チーズ</text>
    <text class="cls-6" transform="translate(248.763 72.253)">6</text>
  </g>
</svg>
