<svg xmlns="http://www.w3.org/2000/svg" viewBox="0 0 512 512">
  <defs>
    <style>
      .cls-1 {
        fill: #add3e0;
      }

      .cls-2 {
        fill: #ece3bb;
      }

      .cls-3 {
        fill: #f2e74b;
      }

      .cls-4 {
        fill: #534f4c;
      }

      .cls-5 {
        font-size: 25px;
        font-family: TsukuARdGothicStd-R-90ms-RKSJ-H, FOT-TsukuARdGothic Std;
      }
    </style>
  </defs>
  <g id="レイヤー_1" data-name="レイヤー 1">
    <path class="cls-1" d="M299.826,374.491c-3.1.526-6.191,1.053-9.237,1.558-19.305-4.151-38.723-7.544-58.643-5.214-17.364-1.857-31.61-9.835-44.112-21.806-2.907-2.784-4.36-9.97-11.158-5.9l0,0q3.671-1.54,1.527-4.9c-18.1-27.034-34.768-54.8-43.987-86.385,12.447-4.592,24.839-2.829,35.527,3.718,13.985,8.567,25.818,8.612,39.293-1.324,12.03-8.87,25.961-9.2,38.3.363,11.288,8.75,21.427,5.338,29.919-2.84,14.531-13.992,30.491-14.481,46.814-5.97,12.691,6.618,22.845,5.933,34.25-2.665,5.353-4.035,13.3-4.927,20.246-6.374,3.34-.695,7.684-1.2,8,5.168,1.357,27.415-5.767,52.853-17.011,77.426-1.853,1.665-4.432,2.971-5.449,5.048-11.307,23.1-27.477,39.782-54.63,41.657C303.487,366.456,304.229,373.108,299.826,374.491Z"/>
    <g>
      <path class="cls-2" d="M295.612,335.374c-26.676,9.094-55.063,3.028-82.119,9.191-4.789,1.091-11.325-2.069-11.333-6.63-.029-18.465,11.681-52.45,17.491-53.231,25.913-3.484,51.714-8.979,78.117-6.855,7.353.591,16.742-3.588,20.039,7.6,3.356,11.392-2.192,18.233-12.021,22.736-4.786-.2-9.575-.611-14.357-.551-22.3.282-44.6.375-66.878,1.29-5.445.224-12.049,3.609-11.026,10.18,1.123,7.2,7.088,5.4,13.192,4.719,25.964-2.883,52.056-4.612,78.1-6.762C310.3,327.463,298.649,329.254,295.612,335.374Z"/>
      <path class="cls-3" d="M285.573,277.374c4.053,0,8.116.147,12.195.475.539.043,1.09.061,1.648.061,2.489,0,5.131-.353,7.643-.353,4.6,0,8.771,1.184,10.748,7.892,3.356,11.392-2.192,18.233-12.021,22.736-4.466-.183-8.935-.557-13.4-.557q-.48,0-.96.006c-22.3.282-44.6.375-66.877,1.29-5.445.224-12.049,3.609-11.026,10.18.682,4.374,3.149,5.426,6.348,5.426a67.994,67.994,0,0,0,6.844-.707c25.964-2.883,52.056-4.612,78.1-6.762,5.483,10.4-6.17,12.193-9.207,18.313-26.676,9.094-55.063,3.028-82.119,9.191a9.087,9.087,0,0,1-2.006.216c-4.422,0-9.32-2.9-9.327-6.846-.029-18.465,11.681-52.45,17.491-53.231,21.91-2.946,43.741-7.33,65.922-7.33m0-10.147c-17.48,0-34.651,2.589-51.257,5.092-5.262.793-10.7,1.613-16.017,2.328-6.434.865-10.213,6.508-12.787,11.327a104.273,104.273,0,0,0-6.419,15.492c-4.449,13.288-7.1,26.927-7.08,36.485.017,10.487,10.122,16.978,19.474,16.978a19.184,19.184,0,0,0,4.259-.47c11.094-2.527,22.594-2.819,34.768-3.129,15.8-.4,32.139-.817,48.372-6.351l3.957-1.349L304.6,340.1a24.968,24.968,0,0,1,2.281-1.933c2.408-1.9,5.707-4.5,7.74-8.547a17.512,17.512,0,0,0,.327-14.812c16.164-9.849,14.976-24.152,12.6-32.226-2.04-6.921-7.249-15.171-20.482-15.171-1.606,0-3.161.106-4.533.2-1.14.079-2.216.152-3.11.152-.319,0-.6-.009-.834-.028-4.183-.337-8.56-.507-13.009-.507Z"/>
    </g>
    <path class="cls-4" d="M382.82,234.358,373.775,276.5c-2.646,12.325-4.753,24.964-8.669,36.967a56.977,56.977,0,0,1-20.678,28.862c-9.228,6.883-19.609,12.679-29.766,18.064-11.946,6.333-24.156,10.184-37.8,9.614-13.308-.557-26.273-4.326-39.077-7.7l-21.214-5.6c-6.377-1.682-13.8-2.744-19.642-5.954-5.141-2.825-8.444-7.839-11.779-12.5q-5.853-8.176-11.7-16.358c-17.215-24.183-32.441-49.132-35.033-79.4-.655-7.637-12.661-7.707-12,0,2.509,29.295,15,54.34,31.544,78.177,7.677,11.06,15.08,22.945,23.976,33.06,9.768,11.105,25.571,12.992,39.158,16.575,27.726,7.314,57.36,17.75,85.581,6.9,12.585-4.837,24.445-11.959,35.825-19.13,10.825-6.822,21.041-14.945,27.56-26.167,7.545-12.988,10.114-28.165,13.224-42.652q5.551-25.857,11.1-51.713C396.009,230.018,384.443,226.8,382.82,234.358Z"/>
  </g>
  <g id="レイヤー_4" data-name="レイヤー 4">
    <text class="cls-5" transform="translate(218.5 123)">たたむ</text>
    <text class="cls-5" transform="translate(248.762 73.104)">4</text>
  </g>
  <g id="レイヤー_6" data-name="レイヤー 6">
    <text class="cls-5" transform="translate(222.971 304.955)">チーズ</text>
  </g>
</svg>
