<svg xmlns="http://www.w3.org/2000/svg" viewBox="0 0 512 512">
  <defs>
    <style>
      .cls-1 {
        fill: #acd2df;
      }

      .cls-2 {
        fill: #4b4b4b;
      }

      .cls-3 {
        fill: #e7deb8;
      }

      .cls-4 {
        fill: #f2e74b;
      }

      .cls-5 {
        font-size: 25px;
        font-family: TsukuARdGothicStd-R-90ms-RKSJ-H, FOT-TsukuARdGothic Std;
      }
    </style>
  </defs>
  <g id="レイヤー_1" data-name="レイヤー 1">
    <path class="cls-1" d="M152.19,307.809c.144-1.336-6.049-13.33-1.374-10.259,6.883,4.522,14.2,1.549,21.16-.893,10.723-3.759,20.964-4.37,30.97,2.571,7.611,5.279,15.79,3.521,23.417-.388,11.98-6.142,23.077-10.55,36.278-1,7.5,5.426,17.019.284,24.615-3.752,10.163-5.4,20.082-6.938,31.23-3.468,9.4,2.924,18.935.68,28.15-2.011,9.84-2.873,19.488-4.04,29.088.927,1.821.942,4.508,1.933,6.128,1.269,14.84-6.078,11.692,3.3,10.155,11.511-3.672,19.624-11.941,37.856-19.285,56.089-2.587,6.422-10,15.073-19.857,16.876-12.122,5.971-21.586,2.534-30.994,8.73-13.064.473-26.125,1.1-39.193,1.363-7.874.159-15.711,4-23.632.328a263.591,263.591,0,0,1-62.68-7.7l-15.581-7.283-3.71-.511c-.6-.616-7.095-7.155-10.1-12.614C157.936,355.134,150.681,321.747,152.19,307.809Z"/>
    <path class="cls-2" d="M127.966,169.611l26.887,21.734a3.293,3.293,0,0,0,.5,3.366l2.779,3.36a9.193,9.193,0,0,0,12.943,1.222l11.318-9.364a9.193,9.193,0,0,0,1.222-12.942l-2.78-3.359a3.305,3.305,0,0,0-3.44-1.072l-16.261-30.382a9.526,9.526,0,0,0-1.077-1.6,9.688,9.688,0,0,0-13.643-1.29l-18.528,15.33a9.688,9.688,0,0,0,.085,15Zm1.108-7.507a4.984,4.984,0,0,1,1.806-3.868l18.529-15.33a4.983,4.983,0,0,1,7.571,1.488l16.573,30.96-15.319,12.675-27.31-22.077a5.12,5.12,0,0,1-.706-.7A5,5,0,0,1,129.074,162.1Z"/>
    <g>
      <path class="cls-3" d="M346.274,297.748c3.438-.3,22.135-3.141,19.91,4.407-7.563,4.357-2.479,8.6-9.13,14.961-.862.824-19.328,2.563-20.426,3.026-22.763,9.6-42.609,12.93-50.723,11.093-5.657-1.28-9.8-16.284.766-23.731,9.71-6.843,33.881-6.205,36.312-6.7C326.267,300.131,342.1,298.11,346.274,297.748Z"/>
      <path class="cls-4" d="M291.086,333.9a26.275,26.275,0,0,1-5.667-.517c-3.334-.754-6.128-4.47-7.117-9.466a17.78,17.78,0,0,1,7.1-18.21c8.306-5.852,25.482-6.54,33.736-6.87,1.5-.061,3.048-.122,3.409-.189,3.424-.7,19.393-2.73,23.536-3.09h0c.316-.029.767-.078,1.321-.14,8.573-.947,16.924-1.318,20.007,2.365a5.133,5.133,0,0,1,.882,5l-.249.845-.763.44c-3.135,1.805-3.435,3.259-3.934,5.669a15.091,15.091,0,0,1-4.774,8.975c-.827.791-1.563,1.06-14.155,2.578-2.808.339-6.283.758-7.044.93C317.6,330.537,300.921,333.9,291.086,333.9Zm55.379-33.96c-4.308.375-19.986,2.4-23.04,3.02a33.789,33.789,0,0,1-4.111.273c-7.221.29-24.131.966-31.376,6.071-6.551,4.617-5.729,11.7-5.321,13.759.7,3.519,2.465,5.733,3.773,6.029,7.553,1.705,26.937-1.513,49.383-10.976.626-.263,1.765-.431,8.12-1.2,3.9-.471,10.293-1.241,11.925-1.669a10.844,10.844,0,0,0,3.221-6.407c.523-2.532,1.113-5.38,5.111-8.016a.464.464,0,0,0-.111-.218c-.745-.89-3.832-2.179-16.149-.817-.6.066-1.084.12-1.425.149Zm-8.983,22.231-.024.01.023-.01Zm18.573-6.993Z"/>
    </g>
    <g>
      <path class="cls-3" d="M210.439,364.26c-3.057.141-14.978-12.155-8.854-17.552.793-.7,17.219-1.574,18.209-1.945,20.519-7.683,38.225-9.922,45.349-8,4.967,1.339,8.1,14.784-1.534,21-8.852,5.714-30.248,4.276-32.421,4.629C228.254,362.869,214.149,364.089,210.439,364.26Z"/>
      <path class="cls-4" d="M210.409,366.213c-3.287,0-9.409-6.016-11.6-11.447-1.578-3.9-1.049-7.285,1.49-9.522.761-.671,1.423-.883,12.634-1.774,2.5-.2,5.6-.446,6.277-.571,21.94-8.2,39.449-9.906,46.445-8.021,2.927.789,5.269,4.183,5.966,8.644a15.772,15.772,0,0,1-6.95,15.882c-7.571,4.886-22.8,4.88-30.144,4.871-1.324,0-2.7,0-3.027.044-3.058.5-17.283,1.72-20.968,1.891h0C210.489,366.212,210.449,366.213,210.409,366.213Zm.049-3.9ZM202.632,348.4c-.605.636-1.168,1.722-.566,3.866,1.353,4.814,6.905,9.716,8.357,10.039,3.934-.19,17.741-1.4,20.453-1.842a29.762,29.762,0,0,1,3.65-.094c6.414,0,21.421.015,28.025-4.248a11.876,11.876,0,0,0,5.211-12c-.491-3.145-1.978-5.17-3.126-5.479-6.628-1.787-23.923.367-44.157,7.944-.564.212-1.58.319-7.241.769C209.777,347.635,204.124,348.084,202.632,348.4Zm-.231.06Zm16.735-5.538-.028.01Z"/>
    </g>
    <g>
      <path class="cls-3" d="M328.02,337.349c1.691-.147,13.9-2.854,21.195-2.918a4.312,4.312,0,0,1,4.342,4.117c.137,3.256,6.78,8.724-1.016,12.325-2.286,1.056-11.5,2.03-15.8,3.017-.848.195-6.035,2.606-26.168,4.307-8.84.747-25.169,8.706-28.079,8.047-4.131-.935-5.726-16.331,1.993-21.77,7.092-5,24.745-4.531,26.52-4.894C313.408,339.09,324.972,337.614,328.02,337.349Z"/>
      <path class="cls-4" d="M282.9,367.888a3.492,3.492,0,0,1-.756-.076c-2.057-.466-3.587-2.725-4.308-6.36-1.231-6.215.341-14.494,5.73-18.292,6.068-4.275,18.614-4.777,24.642-5.017,1.093-.044,2.224-.089,2.487-.138,2.509-.513,14.169-2,17.189-2.257h0c.37-.032,1.639-.266,3.108-.536,4.752-.875,12.707-2.339,18.211-2.388h.055a5.886,5.886,0,0,1,5.907,5.656,8.689,8.689,0,0,0,1.042,2.563c1.032,2.016,2.317,4.523,1.435,7.083-.6,1.731-2.045,3.107-4.424,4.206-1.466.677-4.542,1.191-9.435,1.957-2.462.386-5.007.784-6.677,1.168-.068.018-.184.059-.347.113-5.37,1.8-14.133,3.222-26.046,4.228-4.6.39-11.657,2.942-17.324,4.993C287.841,366.8,284.737,367.888,282.9,367.888Zm45.261-28.939c-3.139.273-14.588,1.747-16.826,2.2a24.97,24.97,0,0,1-3,.2c-5.274.21-17.627.7-22.919,4.433-4.224,2.976-5.435,9.971-4.43,15.041.537,2.711,1.489,3.764,1.866,3.849,1.026.152,5.693-1.551,9.441-2.907,6.149-2.226,13.119-4.749,18.146-5.173,11.66-.986,20.17-2.356,25.3-4.074.31-.1.52-.169.651-.2,1.779-.409,4.265-.8,6.9-1.21,3.306-.517,7.419-1.161,8.584-1.7,1.522-.7,2.441-1.488,2.734-2.337.436-1.265-.424-2.944-1.257-4.569a9.99,9.99,0,0,1-1.393-3.892,2.718,2.718,0,0,0-2.7-2.579h-.024c-5.225.047-13.313,1.535-17.659,2.335-1.95.359-2.91.534-3.412.577Z"/>
    </g>
    <g>
      <path class="cls-3" d="M227.8,314.881c21.175-10.136,48.148-1.636,21.625,11.661-1.976.99-10.137,1.74-13.924,2.587-.748.167-5.319,2.24-23.065,3.691-7.791.638-22.18,7.48-24.745,6.911-3.643-.808-5.059-14.065,1.742-18.744,6.248-4.3,21.81-3.885,23.375-4.2C214.925,316.37,225.373,316.044,227.8,314.881Z"/>
      <path class="cls-4" d="M188.052,341.162a3.041,3.041,0,0,1-.661-.065c-1.811-.4-3.2-2.45-3.82-5.618-1-5.164.155-12.261,5.074-15.645,5.336-3.671,16.384-4.1,21.694-4.3.969-.037,1.97-.075,2.2-.117.793-.158,2.442-.288,4.531-.452,3.274-.258,8.753-.69,10.128-1.347h0c13.336-6.383,30.894-6.087,34.159.577,1.423,2.905.618,7.621-11.3,13.6-1.309.656-4.092,1.1-8.521,1.751-2.11.31-4.293.631-5.724.951-.062.016-.165.051-.31.1-4.729,1.545-12.448,2.763-22.946,3.622-4.065.332-10.283,2.526-15.279,4.289C192.4,340.228,189.664,341.162,188.052,341.162Zm59.217-29.35a44.778,44.778,0,0,0-18.86,4.332h0c-1.708.817-5.862,1.2-11.116,1.612-1.838.144-3.574.281-4.208.407a22.581,22.581,0,0,1-2.638.169c-4.652.179-15.547.6-20.216,3.809-3.707,2.549-4.773,8.371-3.911,12.8.468,2.407,1.333,3.343,1.678,3.42.9.115,5.033-1.33,8.348-2.5,5.417-1.911,11.555-4.078,15.981-4.44,10.28-.84,17.785-2.016,22.306-3.492.27-.089.454-.145.568-.17,1.532-.343,3.667-.657,5.927-.99,2.974-.436,6.674-.981,7.675-1.482,8.805-4.415,10.962-7.99,10.044-9.864C257.776,313.244,253.237,311.812,247.269,311.812Z"/>
    </g>
    <path d="M385.3,298.692c.041,11.732-3.138,22.965-6.568,34.09-3.114,10.1-6.63,20.5-13.48,28.762a50.764,50.764,0,0,1-23.122,15.769c-10.722,3.5-21.752,1.771-32.737,3.361-5.588.809-10.944,2.557-16.426,3.838a59.949,59.949,0,0,1-16.655,1.419c-11.252-.54-22.21-3.506-33.289-5.3a114.37,114.37,0,0,0-16.468-1.683c-5.674-.089-11.781,1.809-17.358.813-5.288-.944-10.616-5.753-14.984-8.623-4.834-3.175-9.7-6.3-14.466-9.584-9.645-6.647-19.416-14.754-23.628-26.066-4.573-12.282,1.429-24.324,1.8-36.765.195-6.594-10.047-6.588-10.243,0-.374,12.632-5.85,24.222-2.257,36.94,3.026,10.706,10.245,19.745,18.639,26.807,9.492,7.987,20.277,14.429,30.628,21.218,5.1,3.346,10.039,6.3,16.313,6.472,6.727.187,13.3-1.251,20.092-.763,12.21.877,24.088,4.273,36.2,5.894,12.515,1.675,23.7.311,35.835-2.825,12.543-3.243,25.483-1.082,38.009-4.2a61.4,61.4,0,0,0,26.929-14.788c9.347-8.773,14.758-20.353,18.756-32.338,4.56-13.673,8.777-35.387,8.726-49.92C395.516,284.623,385.273,292.09,385.3,298.692Z"/>
    <g>
      <path class="cls-2" d="M207.445,258.36a3.885,3.885,0,1,0,2-5.119A3.882,3.882,0,0,0,207.445,258.36Z"/>
      <path class="cls-2" d="M201.65,245.146a3.885,3.885,0,1,0,2-5.12A3.884,3.884,0,0,0,201.65,245.146Z"/>
      <path class="cls-2" d="M195.856,231.931a3.885,3.885,0,1,0,2-5.119A3.882,3.882,0,0,0,195.856,231.931Z"/>
      <path class="cls-2" d="M190.062,218.716a3.884,3.884,0,1,0,2-5.119A3.88,3.88,0,0,0,190.062,218.716Z"/>
      <path class="cls-2" d="M201.488,253.223a3.885,3.885,0,1,0-2,5.116A3.883,3.883,0,0,0,201.488,253.223Z"/>
      <path class="cls-2" d="M195.694,240.009a3.885,3.885,0,1,0-2,5.115A3.884,3.884,0,0,0,195.694,240.009Z"/>
      <path class="cls-2" d="M189.9,226.794a3.885,3.885,0,1,0-2,5.116A3.883,3.883,0,0,0,189.9,226.794Z"/>
      <path class="cls-2" d="M214.382,247.57a3.885,3.885,0,1,0,2-5.12A3.882,3.882,0,0,0,214.382,247.57Z"/>
      <path class="cls-2" d="M208.588,234.355a3.884,3.884,0,1,0,2-5.119A3.882,3.882,0,0,0,208.588,234.355Z"/>
      <path class="cls-2" d="M202.793,221.141a3.885,3.885,0,1,0,2-5.12A3.883,3.883,0,0,0,202.793,221.141Z"/>
    </g>
  </g>
  <g id="レイヤー_4" data-name="レイヤー 4">
    <text class="cls-5" transform="translate(168.5 100)">塩づけにする！</text>
    <text class="cls-5" transform="translate(286.823 318.621)">チーズ</text>
    <text class="cls-5" transform="translate(248.762 74.934)">7</text>
  </g>
</svg>
