<svg xmlns="http://www.w3.org/2000/svg" viewBox="0 0 512 512">
  <defs>
    <style>
      .cls-1 {
        fill: #abd2e0;
      }

      .cls-2 {
        fill: #aed5e2;
      }

      .cls-3 {
        fill: #ebd4af;
      }

      .cls-4 {
        fill: #efe6be;
      }

      .cls-5 {
        fill: #f2e74b;
      }

      .cls-6 {
        fill: #999;
      }

      .cls-7 {
        fill: #d8e1e1;
      }

      .cls-8 {
        font-size: 25px;
        font-family: TsukuARdGothicStd-R-90ms-RKSJ-H, FOT-TsukuARdGothic Std;
      }
    </style>
  </defs>
  <g id="レイヤー_1" data-name="レイヤー 1">
    <g>
      <path class="cls-1" d="M361.367,246.3c7.678,7.689,24.814,7.213,33.5,7.045-.15,33.2-20.12,55.037-39.536,81.737-9.216,4.97-15.046,12.822-25.578,17.881-12.491,6-19.559,8.47-32.588,10.306-14.911,3.28-37.157-5.633-51.8,0l-5.463-.02c-21.9-3.863-43.094-2.863-65.167-4.639l-3.289-1.743c-12.408-6.019-24.547-12.76-36.823-19.141-9.425-11.954-12.177-24.6-19.323-40.173-6.727,1.663-1.366-20-10.552-28.963V255.715c8.293,9.429,16.584,6.159,25.677,1.489,4.8-2.467,10.555-3.088,15.88-4.539q.024,1.563.042,3.121c-4.617,13.421-10.625,26.56-13.412,40.352-2.248,11.128,4.808,16.4,15.216,14.376,2.289-3.738,5.961-3.915,9.749-3.789,11.857,8.942,25.6,9.267,39.547,8.66l7.881.195,6.159,2.293,39.521.058c12.855-.524,26.305,1.586,37.028-8.375q3.5-1.432,7-2.866c11.658,4.645,20.181-3.219,29.62-7.426,8.7-4.361,20.728-4.612,27.07-12.38,10.283-12.6,8.977,5.733,9.223,0,3-4.439,4.991-10.147,2.311-14.286C357.558,263.8,359.939,255.183,361.367,246.3Zm-37.84,87.656c-1.245-2.884-3.411-5.006-7.2-4.3-2.955.553-5.339,2.378-4.916,5.6.5,3.807,3.394,5.347,7.057,4.782C321.464,339.571,323.415,337.769,323.527,333.953Z"/>
      <path class="cls-2" d="M166.675,258.352c10.5,5.516,20.768,4.545,30.719-1.349,11.672-6.913,23.295-8.961,35.522-1.146,8.475,5.416,17.123,3.4,25.371-.847,14.325-7.373,27.844-14.063,45.061-5.683,9.071,4.415,20.285.219,29.589-5.087,5.188-.026,5.978,4.752,8.426,7.719,6.531,6.105,4.8,2.411,1.422,9.876-3.767,8.153-28.319,17.817-36.83,20.591-17.874,5.827-35.994,9.745-54.781,10.508l-51.1,0c-9.725.045-17.7-3.923-24.454-10.684C165.965,276.784,161.972,269.2,166.675,258.352Z"/>
      <path class="cls-3" d="M166.675,258.352c-4.7,10.846-.71,18.432,8.948,23.89.159,7.95-2.435,14.516-9.5,18.819-4.376-.488-5.142,4.265-8.218,5.664-3.789-.126-7.461.051-9.736,3.786-7.684-5.973-13.521-14.606-7.491-22.787,7.721-10.473,6.229-20.9,5.673-31.938q-.019-1.56-.042-3.121a76.455,76.455,0,0,0,2.419-8.045c2.74-14.55,13.977-19.631,26.651-12.463,4.931,2.788,2.048,4.719.676,7.637C173.1,246.073,166.76,250.647,166.675,258.352Z"/>
      <path class="cls-3" d="M341.362,251.959c-2.447-2.967-3.237-7.745-8.425-7.719a37.426,37.426,0,0,0-.968-4.109c-2.193-6.227-9.2-13.065-2.071-18.841,6.253-5.068,23.33,3.767,26.221,12,1.55,4.413,3.486,8.69,5.248,13.018-1.428,8.876-3.809,17.491,1.89,26.291,2.68,4.139.687,9.847-2.309,14.286-9.934-5.113-20.1-7.549-30.878-2.6-4.822-3.852-2.371-8.891-2.21-13.557,4.256-2.465,8.528-4.9,12.765-7.4C346.406,259.918,346.934,256.126,341.362,251.959Z"/>
      <g>
        <path class="cls-4" d="M316.162,309.755c-2.908,2.01-39.226,12.17-54.574,13.535l-67.211-1.638c-7.808-2.195-15.58-4.95-23.436-6.407-6.219-1.153-11.365-3.1-11.344-16.141,11.257-1.237,20.509-20.159,32.982-10.652,22.934,7.045,45.96,3.758,68.976,1.76,27.253-2.89,54.5-6.3,79.915-25.185,5.851-4.348,9.935-1.558,14.35,3.689,2.8,7.773-1.155,10.782-3.663,14.812C340.553,293.815,326.732,295.425,316.162,309.755Z"/>
        <path class="cls-5" d="M261.771,328.966,193.527,327.3l-.684-.193c-2.409-.676-4.827-1.41-7.166-2.119a148.321,148.321,0,0,0-15.771-4.171c-8.314-1.542-16-5.241-15.979-21.724l.009-5.074,5.042-.553c2.747-.3,6.2-2.942,9.537-5.493,6.344-4.852,15.843-12.12,26.614-4.675,19.024,5.611,38.082,3.839,58.241,1.964q3.82-.357,7.642-.7c24.428-2.589,52.108-5.537,77.076-24.091,11.2-8.328,19.381,1.393,22.069,4.588l.653.775.343.953c3.319,9.207-.466,14.48-2.972,17.971-.446.621-.867,1.207-1.21,1.759l-.436.7-.617.547c-5.193,4.6-10.641,7.553-15.908,10.4-7.073,3.828-13.754,7.444-19.286,14.944l-.561.76-.776.537c-4.542,3.143-42.97,13.246-57.3,14.521ZM195.231,316l66.166,1.613c13.66-1.3,44.717-9.8,51.067-12.365,6.831-8.755,14.612-12.967,22.147-17.046,4.7-2.545,9.155-4.955,13.221-8.426.381-.572.764-1.1,1.137-1.625,1.861-2.592,2.663-3.71,1.819-6.593-3.393-3.872-4.136-3.319-5.936-1.982-27.473,20.417-56.813,23.528-82.7,26.273l-.107.01c-2.541.221-5.083.457-7.625.694-20.669,1.922-42.043,3.911-63.507-2.682l-.967-.3-.8-.613c-3.72-2.834-6.27-1.69-13.74,4.021a47.238,47.238,0,0,1-9.925,6.339c.653,5.265,2.825,5.668,6.5,6.35a158.949,158.949,0,0,1,16.991,4.468C191.025,314.764,193.149,315.407,195.231,316Z"/>
      </g>
      <path class="cls-6" d="M146.348,255.786c.556,11.037,2.048,21.465-5.673,31.938-6.03,8.181-.193,16.814,7.491,22.787-10.422,2.031-17.478-3.245-15.23-14.373C135.723,282.346,141.731,269.207,146.348,255.786Z"/>
      <path class="cls-7" d="M323.527,333.953c-.112,3.816-2.063,5.618-5.064,6.081-3.663.565-6.556-.975-7.057-4.782-.423-3.218,1.961-5.043,4.916-5.6C320.116,328.947,322.282,331.069,323.527,333.953Z"/>
    </g>
    <path d="M386.648,251.247c-3.511,13.1-4.341,26.829-8.549,39.748-4.229,12.985-12.976,24.673-20,36.276-3.048,5.031-5.837,9.96-11.243,12.783-4.985,2.6-10.664,3.589-15.937,5.455-11.817,4.18-20.2,14.12-32.92,16.022s-25.8-1.238-38.375-2.928a332.631,332.631,0,0,0-42.525-2.853c-13.566-.073-28.246,2.159-41.367-2.131-11.5-3.761-20.3-13.046-28.02-21.941-9.714-11.193-19.523-22.563-28.559-34.311s-13.7-25.784-11.251-40.625c1.246-7.554-10.315-10.8-11.571-3.19a63.239,63.239,0,0,0,6.107,40.165c7,13.273,14.976,31.722,24.524,43.174,8.275,9.923,19.925,12.928,30.484,20.551,12.063,8.709,25.909,10.788,40.485,10.584,16.2-.226,32.29-.393,48.446,1.074,14.181,1.287,28.263,4.7,42.524,4.918,6.493.1,16.648,3.255,19.408-2.656,5.276-11.3,12.266-7.772,18.666-10.8,11.243-5.323,24.118-6.289,33.238-15.538,5.532-5.611,9.188-13.247,13.228-19.924,4.538-7.5,9.524-14.893,13.13-22.9,6.819-15.142,7.4-31.894,11.653-47.76C400.221,246.97,388.648,243.784,386.648,251.247Z"/>
  </g>
  <g id="レイヤー_4" data-name="レイヤー 4">
    <text class="cls-8" transform="translate(193.5 123)">水につける</text>
    <text class="cls-8" transform="translate(207.223 312.213)">チーズ</text>
    <text class="cls-8" transform="translate(248.762 72.998)">5</text>
  </g>
</svg>
