<svg xmlns="http://www.w3.org/2000/svg" viewBox="0 0 512 512">
  <defs>
    <style>
      .cls-1 {
        fill: #add3e0;
      }

      .cls-2 {
        fill: #524c4b;
      }

      .cls-3 {
        fill: #564f4c;
      }

      .cls-4 {
        fill: #5c5857;
      }

      .cls-5 {
        fill: #8d8f8d;
      }

      .cls-6 {
        fill: #f1e8c0;
      }

      .cls-7 {
        fill: #f2e74b;
      }

      .cls-8 {
        font-size: 25px;
        font-family: TsukuARdGothicStd-R-90ms-RKSJ-H, FOT-TsukuARdGothic Std;
      }
    </style>
  </defs>
  <g id="レイヤー_4" data-name="レイヤー 4">
    <g>
      <path class="cls-1" d="M406.61,264.536l-.5,8.275c-8.689,8.529-10.25,20.3-14.037,31.038-10.05,28.5-22.808,54.853-52.876,67.7-36.423,8.186-72.931,12.158-110.555,9.212-29.184-2.286-52.438-11.982-70.626-35.3-15.873-20.347-31.12-41-43.819-63.475-4.509-16.01-13.483-30.5-16.1-47.152,17.655-8,34.244-3.218,50.438,4.5,13.473,6.416,25.2,7.9,38.938-2.182,15.576-11.424,33.781-16.279,51.587-1.773,14.418,11.746,28.56,5.533,39.884-4.01,18.971-15.987,38.062-14.958,58.559-5.156,11.8,5.641,22.683,6.051,34.777-.977,11.347-6.593,23.4-13.519,37.728-11.562C409.331,230.652,403.356,247.285,406.61,264.536ZM198.361,297.517l.017-.093c-7.378.373-7.288,5.3-6.5,10.656-1.541,6.094-3.894,12.125-4.363,18.3-.368,4.837-2.595,12.549,7.29,11.723l-.033-.259c-2.512-.206-4.379.761-4.52,3.386-.166,3.073,1.195,5.274,4.612,5.573l-.139-.2c-1.309,10.994,7.3,8.827,12.916,8.96,30.653.727,61.317,1.056,91.979,1.324,16.744.147,32.2-5.335,39.265-20.708,8.1-17.633,2.426-35.65-8.347-50.966-3.995-5.678-10.829-12.149-19.626-5.211l-.1-.078c6.366-8.4-2.02-9.423-6.169-10.147-7.123-1.244-14.583-.559-21.9-.684-10.6,1.36-22.712-4.14-31.161,6.909-6.814,6.585-16.622,3.272-24.2,7.326-7.755,1.256-17.948-4.971-22.143,7.216l.13-.085C199.314,289.113,196.631,291.123,198.361,297.517Z"/>
      <path class="cls-2" d="M114.2,281.99c12.7,22.479,27.946,43.128,43.819,63.475,18.188,23.313,41.442,33.009,70.626,35.3,37.624,2.946,74.132-1.026,110.555-9.212q.043,3.618.088,7.234C290.174,397.05,240,396.459,189.65,385.907c-9.927-2.081-18.914-9.1-25.9-17.12-20.932-24.015-41.138-48.576-53.463-78.479Z"/>
      <path class="cls-3" d="M114.2,281.99l-3.918,8.318C99.12,265.976,88.89,241.282,81.527,215.494c-1.152-4.038-6.044-9.46.732-11.879,7.838-2.8,5.4,4.844,6.812,8.6,2.855,7.6,6,15.086,9.031,22.621C100.719,251.5,109.693,265.98,114.2,281.99Z"/>
      <path class="cls-4" d="M339.2,371.548q.043,3.618.088,7.234c11.94.321,21.567-5.3,29.119-13.513,23.947-26.041,41.834-84.99,45.235-119.554-8.689,8.529-17.779,47.4-21.566,58.134C382.028,332.353,369.27,358.7,339.2,371.548Z"/>
      <path class="cls-5" d="M411.606,198.272c-.542,5.25-1.067,10.33-1.594,15.4-.681,16.979-6.656,33.612-3.4,50.863,1.606-.527,4.52-.867,4.625-1.607,2.7-19.038,5.333-38.095,7.339-57.215C418.86,202.987,417.166,198.814,411.606,198.272Z"/>
      <g>
        <g>
          <path class="cls-6" d="M220.6,279.657c32.059-9.183,75.777-15.993,102.684,4.98,54.922,93.6-91.994,64.293-139.033,65.99.75-16.981.243-37.258,3.926-55.2C194.146,296.838,214.072,286.783,220.6,279.657Z"/>
          <path class="cls-7" d="M275.52,270.828c17.713,0,34.715,3.636,47.766,13.809,34.413,58.649-10.43,69.045-60.281,69.045-27.358,0-56.218-3.128-74.332-3.129q-2.334,0-4.42.074c.75-16.981.242-37.258,3.926-55.2a5.758,5.758,0,0,0,1.317.134c7.156,0,25-9.232,31.106-15.9,16.509-4.728,36.114-8.829,54.918-8.829m0-8.944c-16.821,0-36.127,3.087-57.381,9.175a8.947,8.947,0,0,0-4.13,2.555c-4.951,5.4-20.037,12.705-24.331,12.991a8.945,8.945,0,0,0-10.26,7.019c-2.96,14.419-3.357,30.169-3.708,44.064-.111,4.4-.216,8.554-.392,12.544a8.943,8.943,0,0,0,8.935,9.338c.107,0,.215,0,.323,0,1.239-.045,2.617-.068,4.1-.068,7.852,0,18.229.635,29.214,1.308,13.949.853,29.759,1.821,45.118,1.821,18.439,0,33.036-1.416,44.625-4.329,15.706-3.948,26.535-10.953,32.187-20.823,4.143-7.233,5.45-15.82,3.885-25.524-1.525-9.456-5.68-19.871-12.7-31.84a8.939,8.939,0,0,0-2.216-2.528c-13.364-10.416-31.284-15.7-53.264-15.7Z"/>
        </g>
        <text class="cls-8" transform="translate(224.787 323.719)">チーズ</text>
      </g>
    </g>
    <text class="cls-8" transform="translate(131 125)">チーズをお湯につける</text>
    <text class="cls-8" transform="translate(248.762 75.425)">1</text>
  </g>
</svg>
