<svg id="レイヤー_1" data-name="レイヤー 1" xmlns="http://www.w3.org/2000/svg" viewBox="0 0 350.716 55.821">
  <defs>
    <style>
      .cls-1 {
        fill: #f5e928;
      }
    </style>
  </defs>
  <g>
    <g>
      <path class="cls-1" d="M34.336,46.779A5.345,5.345,0,1,1,28.991,41.5,5.311,5.311,0,0,1,34.336,46.779Z" transform="translate(-7.125 -12.211)"/>
      <path class="cls-1" d="M55.234,51.028a4.3,4.3,0,1,1-4.3-4.249A4.277,4.277,0,0,1,55.234,51.028Z" transform="translate(-7.125 -12.211)"/>
      <path class="cls-1" d="M80.134,53.979a7.293,7.293,0,1,1-7.292-7.2A7.246,7.246,0,0,1,80.134,53.979Z" transform="translate(-7.125 -12.211)"/>
      <path class="cls-1" d="M92.474,42.954a2.2,2.2,0,0,0,2.211-2.183V36.414a5.879,5.879,0,0,0-.085-.992c-1.528-8.8-14.136-18.735-24.5-22.154a6.048,6.048,0,0,0-3.921.052L11.036,33.162a5.893,5.893,0,0,0-3.911,5.516v3.581a2.2,2.2,0,0,0,2.212,2.183,3.528,3.528,0,1,1,0,7.056,2.2,2.2,0,0,0-2.212,2.184v8.479a5.917,5.917,0,0,0,5.947,5.872H30.538a2.2,2.2,0,0,0,2.212-2.184,2.172,2.172,0,0,0-.126-.729A3.471,3.471,0,0,1,32.5,64.2a3.573,3.573,0,0,1,7.146,0,3.467,3.467,0,0,1-.153,1.022,2.163,2.163,0,0,0,.342,1.933,2.22,2.22,0,0,0,1.775.882H88.739a5.916,5.916,0,0,0,5.946-5.872V55.17a2.2,2.2,0,0,0-2.211-2.184,5.016,5.016,0,1,1,0-10.032ZM90.262,57.1v5.064a1.515,1.515,0,0,1-1.523,1.5H44.051a8,8,0,0,0-15.957,0H13.072a1.515,1.515,0,0,1-1.523-1.5v-6.6a7.87,7.87,0,0,0,0-15.177v-1.7a1.493,1.493,0,0,1,.076-.467H90.262v.632a9.358,9.358,0,0,0,0,18.254Z" transform="translate(-7.125 -12.211)"/>
    </g>
    <g>
      <path class="cls-1" d="M153.208,23.463a2.022,2.022,0,0,1-2.127,1.947c-.384,0-1.614-.026-3.228-.026a1.682,1.682,0,0,0-1.691,1.076c-1.229,3.639-2.741,5.048-4.227,6.149-1.153.871-2.255,1.281-3.254.743a2.188,2.188,0,0,1-.256-3.586,14.593,14.593,0,0,0,3-3.28c.231-.333.18-1.076-.947-1.127-1.845-.1-3.305-.026-3.664-.051-1.383-.052-2.28-.359-2.383-1.948-.076-1.485,1.333-2.075,2.665-2.126.538-.026,2.254-.026,4.3-.026a1.466,1.466,0,0,0,1.588-1.588,1.084,1.084,0,0,0-1.306-1.127c-.718.128-1.307.231-1.717.256-1.409.128-2.562-.743-2.382-2.075.153-1.307,1.1-1.794,3.048-2.229,1.947-.41,5.38-1.23,6.508-1.563a2.426,2.426,0,0,1,3.074,1.256c.436,1.255-.333,2.1-1.435,2.638a2.43,2.43,0,0,0-1.563,2.152c0,.231.026.462.026.667,0,.537.1,1.511,1.691,1.665,1.178.1,2.05.051,2.383.076C152.618,21.49,153.643,22.8,153.208,23.463Z" transform="translate(-7.125 -12.211)"/>
      <path class="cls-1" d="M181.726,22.976a1.8,1.8,0,0,1-.41,1.281,4.442,4.442,0,0,1-2.972.923c-.743.051-4,.051-5.559.051-4.048,0-5.918-.051-6.738-.077-2.152-.1-2.485-1.2-2.485-1.87a2.466,2.466,0,0,1,2.587-2.409c.333-.025,1.819-.025,3.484-.025,2.921,0,4.151.025,6.739.051,1.152,0,1.946.026,2.2.026C180.138,20.927,181.624,21.157,181.726,22.976Z" transform="translate(-7.125 -12.211)"/>
      <path class="cls-1" d="M209.835,14.855c1.179,1.562,1.2,2.382.333,2.792a.965.965,0,0,1-.948-.025.462.462,0,0,0-.743.282,20.622,20.622,0,0,1-2.459,5.943,1.9,1.9,0,0,0,.333,2.537,44.2,44.2,0,0,1,3.151,3.279,2.179,2.179,0,0,1-.385,3.356c-1.179.641-2.152.154-3.663-1.2-.666-.615-1.281-1.2-1.87-1.742A1.926,1.926,0,0,0,201.277,30c-1.2.922-2.2,1.716-2.971,2.178a4.783,4.783,0,0,1-3.92.845c-1.178-.358-1.742-2.28-.256-3.612,1.357-1.23,4.355-2.588,6.584-5.431a15.459,15.459,0,0,0,2.075-3.69c.333-.768-.076-1.307-.922-1.332-1.87-.026-5.047-.077-5.918-.077-1.434,0-2.69-.769-2.69-1.9,0-1.23.871-2.177,2.844-2.408a101.181,101.181,0,0,1,10.222.1.812.812,0,0,0,.947-.538.871.871,0,0,1,.488-.513C208.477,13.241,209.015,13.753,209.835,14.855Zm2.844,1.383c-1,.513-1.717-.487-2.46-1.767-.41-.718-.461-1.742.282-2.1.743-.385,1.46.179,2.178,1.383C213.447,15.034,213.55,15.829,212.679,16.238Z" transform="translate(-7.125 -12.211)"/>
      <path class="cls-1" d="M237.688,23.822c-1.256,1.05-1.717.973-2.639.666-.9-.308-1.128-1.537-.462-2.767a8.615,8.615,0,0,0,.615-1.665c.205-.641-.153-1.179-.948-1.153h-.538c-1.588.051-1.64,1-1.665,1.562a33.187,33.187,0,0,1-1.409,8.506c-.769,2.434-2.05,3.843-3.51,3.869a1.92,1.92,0,0,1-2.05-2.408c.205-1.41,1.614-2.69,1.947-4.33a29.023,29.023,0,0,0,.589-5.329,1.678,1.678,0,0,0-1.946-1.768c-.59.026-1.026.026-1.333.026-2.151,0-3.458-.128-3.791-1.794-.36-1.691.563-2.741,3.663-2.741,3.638,0,10.889-.128,12.708.077a3.3,3.3,0,0,1,2.972,3.2C240.019,19.338,238.942,22.771,237.688,23.822Z" transform="translate(-7.125 -12.211)"/>
      <path class="cls-1" d="M266.026,26.947c-1.357,3.92-3.125,6.021-5.149,6.687a2.059,2.059,0,0,1-2.639-1.076c-.384-.794.257-2,1.332-2.946a10.054,10.054,0,0,0,3.2-6.328c.077-.487.128-.846.154-1.153a1.117,1.117,0,0,0-1.1-1.383,7.567,7.567,0,0,0-.768,0c-1.717-.052-2,.845-2.178,1.306-.18.512-.41,1.025-.641,1.563-1.665,4.022-2.433,4.612-3.92,5.816a2.4,2.4,0,0,1-2.766.409,1.79,1.79,0,0,1-.692-2.51c.538-1.281,2-2.1,3.3-4.971a2.8,2.8,0,0,0,.205-.486c.153-.359.436-1.179-.846-1.179-.333,0-.588-.026-.716-.026-1.461-.051-2.41-.384-2.511-2.075-.1-1.562,1.408-2.178,2.817-2.229a10.138,10.138,0,0,1,1.333-.025c1.716.076,1.819-1.1,1.87-1.409a2.024,2.024,0,0,1,2.562-1.87,2.173,2.173,0,0,1,1.819,2.049c.026.307,0,1.153,1.435,1.255.871.077,1.588.077,1.921.1a3.589,3.589,0,0,1,2.972,3.126C267.257,21.465,267.436,22.848,266.026,26.947Z" transform="translate(-7.125 -12.211)"/>
      <path class="cls-1" d="M296.8,21.439c-.154.717-.154,1.973-3.125,1.973h-1.563a1.918,1.918,0,0,0-1.871,1.332c-.384,1.973-1.408,5.61-3.893,7.583-1.589,1.281-2.767,1.614-3.843.282-.948-1.178.307-2.331,1.818-4.483A12.517,12.517,0,0,0,285.81,24.8c.23-.768-.411-1.357-1.307-1.383-1.23-.026-2.716-.052-2.921-.052-2.178,0-3.254-.23-3.51-1.332-.281-1.076.128-2.664,2.691-2.792,2.587-.128,12.374-.128,14.141.128C296.646,19.6,296.929,20.7,296.8,21.439Zm-15.474-5.867c0-1.23.794-2.2,3.1-2.2,2.332,0,6.123.128,7.609.128a3.8,3.8,0,0,1,.564.051,1.624,1.624,0,0,0,1,.026c.768-.256,1.256.128,2.075,1.23,1.179,1.562,1.2,2.382.358,2.818-.486.231-1.05-.052-1.665-.538a1.161,1.161,0,0,0-1.2-.1,3.168,3.168,0,0,1-1.537.385H284.58C282.94,17.366,281.326,16.776,281.326,15.572Zm17.191.641c-1,.487-1.717-.513-2.434-1.768-.41-.743-.487-1.742.256-2.127.743-.358,1.486.205,2.2,1.384C299.311,14.983,299.388,15.777,298.517,16.213Z" transform="translate(-7.125 -12.211)"/>
      <path class="cls-1" d="M308.922,27.434c.64-1.2,2.844-1.1,4.791-.589s6.4,2.126,7.532,3.382a1.93,1.93,0,0,1-.513,3.125c-1.153.538-1.947.128-3.766-.64a61.234,61.234,0,0,0-6.328-2.05C308.717,30.1,308.307,28.536,308.922,27.434Zm1.024-12.221c.231-1.178,1.692-1.972,3.28-1.716a24.116,24.116,0,0,1,6.968,2.075c2.153,1.076,3.459,2.281,2.921,3.766-.538,1.461-2.562,1.153-3.869.615-1.307-.512-6.123-1.87-6.968-2.075C310.792,17.52,309.69,16.417,309.946,15.213Zm0,6.61c.077-1.153,1.742-1.844,3.357-1.486,1.844.436,6.174,1.666,7.25,2.537,1.2.973.871,3.484-.948,3.459s-6.046-1.666-7.1-2C310.689,23.771,309.869,22.976,309.946,21.823Z" transform="translate(-7.125 -12.211)"/>
      <path class="cls-1" d="M353.914,22.976a1.8,1.8,0,0,1-.41,1.281,4.442,4.442,0,0,1-2.972.923c-.743.051-4,.051-5.559.051-4.048,0-5.918-.051-6.739-.077-2.151-.1-2.484-1.2-2.484-1.87a2.466,2.466,0,0,1,2.587-2.409c.333-.025,1.819-.025,3.484-.025,2.921,0,4.151.025,6.739.051,1.152,0,1.947.026,2.2.026C352.325,20.927,353.812,21.157,353.914,22.976Z" transform="translate(-7.125 -12.211)"/>
      <path class="cls-1" d="M139.091,52.491c2.05-.025,4.765.027,5.355,0a1.476,1.476,0,0,1,1.075.462,2.281,2.281,0,0,1,.59,1.613,2.053,2.053,0,0,1-1.794,1.973c-.588.026-3.3.052-5.3.077-1.2,0-1.281.974-1.281,1.435.026,1.178.026,2.28.052,3.151,0,1.256.025,2.152.025,2.255a2.157,2.157,0,0,1-2.049,2.023h-.154a2.166,2.166,0,0,1-2.306-2.228c-.1-2.178-.128-12.733-.128-14.244,0-1.717.769-2.588,2.383-2.613,1.665-.052,8.121.05,9.274.076a1.9,1.9,0,0,1,1.87,2.05,1.916,1.916,0,0,1-2.075,2.049c-.563.026-1.691.026-3.305.026h-2.767s-.9.128-.9.9C137.656,51.569,137.3,52.491,139.091,52.491Z" transform="translate(-7.125 -12.211)"/>
      <path class="cls-1" d="M181.163,48.879c0,1.537-.077,8.48-.205,10.069-.256,2.9-2.9,6.021-7.3,6.046h-.1c-4.868,0-7.84-2.588-8.121-7.071-.2-2.869-.257-7.609-.257-9.018,0-1.717.871-2.767,2.306-2.767h.1c1.41.051,2.127,1,2.127,2.818,0,.333-.025.846-.051,1.486-.077,2.254-.231,6.021.307,7.4.538,1.435,1.23,2.69,3.408,2.69h.1c2.1-.025,3.1-.9,3.356-2.869.18-1.307.1-4.919.051-7.3-.025-.768-.025-1.409-.025-1.742a2.293,2.293,0,0,1,2.28-2.485C180.394,46.138,181.163,47.163,181.163,48.879Z" transform="translate(-7.125 -12.211)"/>
      <path class="cls-1" d="M216.01,64.046a2.184,2.184,0,0,1-1.947,1,2.431,2.431,0,0,1-1.255-.333,45.416,45.416,0,0,1-4.637-3.587c-.487-.409-1.2-.973-1.9-1.485-.921-.666-1.1.307-1.1.768v2.254c-.051,1.538-.41,2.435-2.075,2.537-.077,0-.128.026-.179.026-1.486,0-2.075-1.46-2.127-2.793-.077-1.435-.23-13.194-.077-14.578a2.28,2.28,0,0,1,2.255-2.049A2.191,2.191,0,0,1,205.1,48.06c-.027.358-.027,1.511,0,3.023,0,.409.256,1.127,1.075.512,1.2-.922,2.178-1.665,2.87-2.229.23-.179.436-.333.64-.512l.256-.206c1.64-1.332,2.819-2.3,3.818-2.3a2.075,2.075,0,0,1,1.973,1.922c.025.819-.693,1.844-1.948,2.818-.973.742-2.818,2.459-4,3.586-.972.923-.409,1.461.129,1.922,1.844,1.537,5.1,4.3,5.533,4.765A2.489,2.489,0,0,1,216.01,64.046Z" transform="translate(-7.125 -12.211)"/>
      <path class="cls-1" d="M250.191,48.879c0,1.537-.077,8.48-.205,10.069-.256,2.9-2.895,6.021-7.3,6.046h-.1c-4.867,0-7.84-2.588-8.121-7.071-.205-2.869-.256-7.609-.256-9.018,0-1.717.87-2.767,2.306-2.767h.1c1.408.051,2.126,1,2.126,2.818,0,.333-.025.846-.051,1.486-.077,2.254-.231,6.021.307,7.4.538,1.435,1.231,2.69,3.408,2.69h.1c2.1-.025,3.1-.9,3.356-2.869.18-1.307.1-4.919.052-7.3-.026-.768-.026-1.409-.026-1.742a2.293,2.293,0,0,1,2.28-2.485C249.423,46.138,250.191,47.163,250.191,48.879Z" transform="translate(-7.125 -12.211)"/>
      <path class="cls-1" d="M283.322,63.815a10.4,10.4,0,0,1-4.919,1.154,9.9,9.9,0,0,1-5.764-1.64A10.714,10.714,0,0,1,269.181,53a9.074,9.074,0,0,1,8.5-6.892h.205a9.6,9.6,0,0,1,9.249,6.841C288.318,57.077,286.576,62.048,283.322,63.815Zm-1.717-11.708a4.69,4.69,0,0,0-3.432-1.332,4.759,4.759,0,0,0-3.1,1.025,5.036,5.036,0,0,0-1.357,5.226,4.679,4.679,0,0,0,4.432,3.33c1.768.078,4-.9,4.535-2.792A5.352,5.352,0,0,0,281.605,52.107Z" transform="translate(-7.125 -12.211)"/>
      <path class="cls-1" d="M321.475,64.046a2.185,2.185,0,0,1-1.948,1,2.438,2.438,0,0,1-1.256-.333,45.624,45.624,0,0,1-4.636-3.587c-.488-.409-1.2-.973-1.9-1.485-.923-.666-1.1.307-1.1.768v2.254c-.051,1.538-.409,2.435-2.075,2.537-.077,0-.128.026-.179.026-1.487,0-2.075-1.46-2.127-2.793-.076-1.435-.231-13.194-.076-14.578a2.278,2.278,0,0,1,2.254-2.049,2.191,2.191,0,0,1,2.127,2.255c-.026.358-.026,1.511,0,3.023,0,.409.255,1.127,1.076.512,1.2-.922,2.177-1.665,2.869-2.229.23-.179.435-.333.64-.512l.256-.206c1.64-1.332,2.819-2.3,3.818-2.3a2.074,2.074,0,0,1,1.972,1.922c.026.819-.691,1.844-1.947,2.818-.974.742-2.818,2.459-4,3.586-.974.923-.41,1.461.128,1.922,1.845,1.537,5.1,4.3,5.533,4.765A2.491,2.491,0,0,1,321.475,64.046Z" transform="translate(-7.125 -12.211)"/>
      <path class="cls-1" d="M356.808,65.122a2.5,2.5,0,0,1-3.1-1.229c-.282-.513-.666-1.615-1.256-2.793a1.732,1.732,0,0,0-1.665-1.179h-4.816s-1.076-.2-1.9,1.256c-.615,1.127-1.384,2.741-1.589,3.049-.844,1.178-1.357,1.511-2.536,1.254s-1.895-1.357-1.281-3,5.021-10.4,5.687-12.015c.641-1.64,1.384-3.971,2.588-4.484,1.23-.512,3.357-.255,4.023.871.666,1.1,6.148,14.68,6.661,15.756A1.81,1.81,0,0,1,356.808,65.122Zm-8.787-12.631c-.283.59-.641,1.384-1,2.255-.46,1.051.512,1,.512,1l1.82-.025s.82,0,.512-.949c-.282-.768-.692-1.639-.948-2.3C348.661,51.877,348.3,51.852,348.021,52.491Z" transform="translate(-7.125 -12.211)"/>
    </g>
  </g>
</svg>
