<svg xmlns="http://www.w3.org/2000/svg" width="366.385" height="445.212" viewBox="0 0 366.385 445.212"><defs><style>.a{fill:#fff;}.b{fill:#fcdc4a;}.c{fill:#211715;}</style></defs><path class="a" d="M215.256,248.273a436.674,436.674,0,0,1-18.367,46.205,33.631,33.631,0,0,0-3.071,8.421c-.582,3.436-.042,6.951.5,10.394l12.315,78.589c4.79-1.265,18.635-5.306,23.651-6.572-.593-11.259-2.814-35.548-4.741-49.185-.747-5.289-1.895-11.642-.889-16.889a39.227,39.227,0,0,1,5-13.755c11.637-20,27.509-40.618,39.145-60.615"></path><path class="a" d="M121.07,50.05a40.731,40.731,0,0,0,2.007,8.669c1.383,5.31,3.317,12.676-.738,16.691a5.087,5.087,0,0,0-1.578,2.9c-.386,2.959,2.211,3.476,4.054,4.576a8.367,8.367,0,0,1,2.828,2.883c.984,2.8,3.671,8.964,6.485,11.859a10.478,10.478,0,0,0,7.027,3.487c4.413.293,10.333-1.427,14.961-2.359,2.667-.444,4.861-.639,7.27.343a8.854,8.854,0,0,1,1.765.97c2.405,1.692,4.038,4.468,5.508,7.1,1.925,3.442,4.124,6.964,6.049,10.406l.177.316c.2-.608.408-1.213.616-1.816,2.574-7.437,8.3-19.231,12.971-27.706-.242-.72-.272-1.39-.492-2.18-1.33-4.7,1.62-9.99,3.44-14.33a53.117,53.117,0,0,0,2.01-27.13c-3.61-17.95-14.64-25.85-22.55-28.32a43.851,43.851,0,0,0-33.18,2.55c-9.19,4.48-20.51,14.32-18.63,31.1"></path><path class="a" d="M193.079,83.79c-4.889,8.222-12.5,23.373-15.578,32.278a29.563,29.563,0,0,0-1.973,8.126,29.52,29.52,0,0,0,.928,7.5l5.734,27.069c2.37,10.222,13.037,30.139,15.074,35.376-.331,1.768,5.047,12.592,9.982,15.19,22.919,6.872,49.775,13.547,73.7,13.76,6.518.3,5.333-7.407,3.407-15.259-1.037-6.963-6.106-20.564-6.889-22.222L272.8,178.5c-4.666-10-5.872-14.027-12.044-27.563C248.312,123.643,227.523,98.9,193.079,83.79"></path><path class="a" d="M210.707,392.079c.638,6.434-4.688,13.114-9.809,15.578s-10.843,4.081-14.932,8.028c-2.787,2.69-4.42,7.623-1.551,10.227,2.122,1.925,5.417,1.419,8.214.794,11.53-2.58,21.864-4.154,33.4-6.733,2.8-.627,7.186-2.563,8.337-5.192a12.758,12.758,0,0,0-.3-9.328c-1.816-3.869-2.755-10.742-3.872-16.649"></path><path class="a" d="M175.6,126.687c-.053-.563-.084-1.128-.085-1.694a75.587,75.587,0,0,0-4.824,16.963c-.712,4.734-1.569,9.526-3.689,13.819-1.843,3.735-4.569,6.947-7.2,10.173q-9.009,11.04-16.95,22.9c4.326,4.065,7.26,6.428,10.9,11.116.111-.112.221-.223.33-.335l6.26-6.389c3.7-9.06,11.613-17.754,18.425-26.1,1.391-1.7,2.808-3.4,4.1-5.179l-6.41-30.264A43.855,43.855,0,0,1,175.6,126.687Z"></path><path class="a" d="M140.191,190.8a12.593,12.593,0,0,1,2.627-1.979c4.8,4.513,7.886,6.925,12.113,12.716a9.759,9.759,0,0,1-3.341,2.014c-2.963.959-6.157-.153-9.271-.216a17.085,17.085,0,0,0-9.4,2.9c-3.078-1.6-6.631-3.475-9.366-3.7a10.191,10.191,0,0,0-5.247,1c-.312-4.762,3.755-6.1,7.248-6.182,2.53-.061,5.153.308,7.524-.573C136,195.688,137.91,192.955,140.191,190.8Z"></path><path class="a" d="M183.973,310.729c.822,4.128-.7,8.584-3.189,12.149,2.171,1.688,6.335,1.475,9.03,1.056,4.269-.664,12.937-1.982,14.877-9.69q-1.475-3.735-2.6-7.594"></path><path class="a" d="M168.428,350.7a14.9,14.9,0,0,0,2.862-.574c12-3.947,21.012-6.979,33.856-11.179a10.5,10.5,0,0,0,6.357-6.536c.878-2.695-.662-5.512-2.029-8a87.887,87.887,0,0,1-4.783-10.173c-1.939,7.709-10.608,9.027-14.877,9.691-2.695.419-6.859.632-9.029-1.055a19.456,19.456,0,0,1-5.621,5.445c-5.19,3.155-11.11,5.472-15.047,10.1-2.684,3.153-3.907,8.571-.583,11.041C161.35,350.812,165.309,351.052,168.428,350.7Z"></path><path class="a" d="M276.248,223.239c3.626,10.161-4.353,21.5-14.378,25.482S240.6,251.333,229.9,249.9c-14.876-2-25.339.37-40.215-1.626,4.112,10.905,6.76,20.1,8.057,24.517a248.365,248.365,0,0,1,6.8,33.147c-4.444,1.777-17.158,6.08-24.579,6.631-9.967-21.485-19.888-46.319-29.86-67.815-3.274-7.057-6.277-16.2-.976-21.9,2.926-3.142,7.48-4.025,11.713-4.742l48.239-8.169"></path><path class="a" d="M162.669,190.857l-8.592,8.769c-1.558,1.59-3.2,3.236-5.322,3.922-2.963.959-6.157-.153-9.271-.216-4.308-.087-10.691,2.5-14.018,5.237a28.737,28.737,0,0,0-6.667,8.593c-.612,1.069-1.814,5.667,1.963,6.37a3.258,3.258,0,0,0,2.926-1.259c-.527.75-2,5.7,1.63,7.148a3.524,3.524,0,0,0,4.407-1.814c-.555,1.925-.261,5.756,3.519,6.3a3.06,3.06,0,0,0,2.555-1.074,33.82,33.82,0,0,0,3.741-5.185,4.177,4.177,0,0,0,1.037,5.74c.547.456,2.608.525,4.148-.74a20.973,20.973,0,0,0,3.963-4.482,9.074,9.074,0,0,1,7.126-5.18,13.222,13.222,0,0,0,3.615-1.026c2-.94,3.006-3.153,4.093-5.083a61.927,61.927,0,0,1,10.261-13.688"></path><path class="a" d="M205.338,112.345c-5.619,2.246-9.6,7.476-11.831,13.1s-2.953,11.712-3.853,17.7c-.712,4.734-1.569,9.526-3.688,13.819-1.844,3.735-4.57,6.947-7.2,10.173-6.006,7.36-13.074,16.915-16.95,22.9,3.876,4.24,8.765,9.129,13.654,14.24,3.152.179,14.655-5.881,20.987-10.833,2.708-2.117,6.508-5.041,8.435-7.887A330.843,330.843,0,0,0,231.1,139.2"></path><path class="a" d="M172.838,4.354c-1.87.142-3.513.264-4.81.355L159.673,6.28c-5.905,1.11-11.914,2.255-17.225,5.065-5.288,2.8-9.606,7.1-13.689,11.473-7.115,7.623-13.858,15.146-15.532,25.328a3.937,3.937,0,0,0,2.828,4.356,11.288,11.288,0,0,0,2.391.258q8.55.174,17.1-.015c27.851.33,31.822-4.729,56.433-16.9,2.74-1.355,4.754-7.364,4.164-11.944-.387-3,7.625-13.579,9.568-18.541a2.162,2.162,0,0,0-2.025-2.953C197.729,2.435,182.339,3.637,172.838,4.354Z"></path><path class="a" d="M228.956,371.878c0-41.192,32.943-57.592,60.5-57.592s60.5,17.329,60.5,57.592-32.943,57.592-60.5,57.592-60.5-16.4-60.5-57.592"></path><path class="a" d="M16.43,371.878c0-41.192,32.943-57.592,60.5-57.592s60.5,17.329,60.5,57.592-32.943,57.592-60.5,57.592-60.5-16.4-60.5-57.592"></path><path class="a" d="M240.3,285.413c2.091-6.68,4.135-13.252,6.075-19.515l-16.967-2.7c-1.111,3.556-3.444,11.334-4.555,14.889-21.489-6.211-82.1-23.369-101.949-28.9,3.7-12.023,6.739-22.033,8.563-28.219l-13.2-4.038c-7.78,26.39-37.327,121.136-46.2,146.709l13.2,4.038c5.536-15.96,18.95-58.305,30.2-94.478,9.583,15.771,44.548,70.248,65.9,101.489l30.482-4.139c4.256-12.269,13.237-40.363,22.245-69.047,14.133,22.033,33.548,51.465,46.462,70.364l11.556-7.556C278.9,344.5,255.9,309.563,240.3,285.413Zm-43.892,81.044-7.648-4.815c-18.58-27.851-52.537-80.027-62.58-96.3,18.954,5.228,75.713,21.068,93.988,26.361C211.334,319.925,200.563,354.491,196.412,366.457Z"></path><path class="a" d="M125.461,217.192c-3.376-.466-6.866-.971-9.757-2.778s-5.025-5.292-4.174-8.592c.951-3.695,5.254-5.675,9.056-5.365s9.185,3.822,12.687,5.334c8.487,3.663,13.2,5.486,21.349,8.647a17.781,17.781,0,0,1,5.5,3.4,4.946,4.946,0,0,1,.294,5.58,5.421,5.421,0,0,1-5.282,1.921,163.379,163.379,0,0,1-29.675-8.145"></path><path class="a" d="M272.152,240.451a334.53,334.53,0,0,0-50.794,4.6c-3.18.534-6.86,1.507-8.065,4.5-.915,2.271.068,4.962,1.794,6.7a16.866,16.866,0,0,0,6.362,3.551,100.371,100.371,0,0,0,44.893,5.551c1.835-.193,3.78-.487,5.177-1.692,1.706-1.469,2.158-3.9,2.364-6.143a54.721,54.721,0,0,0-.792-15.527"></path><path class="a" d="M202.3,435.682c-.407-1.875-1.248-5.788-1.688-7.787a1.161,1.161,0,0,1,.881-1.387c3.706-.834,23.327-5.288,27.146-6.15a1.162,1.162,0,0,1,1.391.886c.422,1.887,1.274,5.724,1.666,7.491a1.16,1.16,0,0,1-.862,1.388c-3.78.9-23.419,5.557-27.122,6.443A1.163,1.163,0,0,1,202.3,435.682Z"></path><path class="a" d="M176.684,388.072c0-14.519,11.611-20.3,21.323-20.3s21.323,6.108,21.323,20.3-11.611,20.3-21.323,20.3-21.323-5.781-21.323-20.3"></path><path class="a" d="M201.544,403.77c3.5,9.231,10.384,27.116,10.834,28.011,1.238,2.46,3.868,3.994,6.426,3.081,3.574-1.275,3.049-4.794,2.477-6.394-.835-2.337-9.216-23.615-11.982-30.523"></path><path class="a" d="M192.22,355.422c2.55,6.99,9.08,26.77,9.85,29.13.52,1.62.94,5.15-2.67,6.32-2.59.83-5.17-.78-6.33-3.28-.42-.89-7.06-19.85-10.35-29.35"></path><path class="a" d="M170.834,352.505c.6,1.859,1.854,5.736,2.487,7.722A1.181,1.181,0,0,0,174.8,361c3.691-1.157,23.253-7.245,27.059-8.434a1.184,1.184,0,0,0,.773-1.491c-.591-1.878-1.8-5.693-2.355-7.45a1.182,1.182,0,0,0-1.468-.784c-3.79,1.136-23.471,7.055-27.186,8.164A1.184,1.184,0,0,0,170.834,352.505Z"></path><path class="b" d="M195.756,62.125a49.614,49.614,0,0,0-.329-17.406c-3.6-17.946-14.634-25.846-22.545-28.313a43.827,43.827,0,0,0-33.185,2.55c-8.721,4.247-19.367,13.328-18.814,28.592,5.985-.559,12.147-1.141,12.147-1.141,6.934-.414,12.256,1.547,17.137,4.2,4.579,2.487,7.627,9.155,10.924,8.79a9.545,9.545,0,0,1,3.091-6.034,4.862,4.862,0,0,1,4.223-.965c2.179.621,3.412,2.942,3.916,5.15A14.25,14.25,0,0,1,170.79,68.49c4.7,4.184,11.538,10.15,19.1,12.844.61-3.28,2.322-6.595,3.53-9.482A59.2,59.2,0,0,0,195.756,62.125Z"></path><path class="b" d="M172.838,4.354c-1.87.142-3.513.264-4.81.355L159.673,6.28c-5.905,1.11-11.914,2.255-17.225,5.065-5.288,2.8-9.606,7.1-13.689,11.473-7.115,7.623-13.858,15.146-15.532,25.328a3.937,3.937,0,0,0,2.828,4.356,11.288,11.288,0,0,0,2.391.258q8.55.174,17.1-.015c27.851.33,31.822-4.729,56.433-16.9,2.74-1.355,4.754-7.364,4.164-11.944-.387-3,7.625-13.579,9.568-18.541a2.162,2.162,0,0,0-2.025-2.953C197.729,2.435,182.339,3.637,172.838,4.354Z"></path><path class="b" d="M289.453,300.933a86.132,86.132,0,0,0-34.427,7.131c2.488,3.808,5.022,7.678,7.559,11.547l0,0a70.123,70.123,0,0,1,26.864-5.33c27.554,0,60.5,17.329,60.5,57.592s-32.943,57.592-60.5,57.592-60.5-16.4-60.5-57.592c0-21.444,8.936-36.155,21.383-45.346v0q-1.917-2.928-3.808-5.825l-.034-.052q-1.884-2.889-3.725-5.723l0,0a62.83,62.83,0,0,0-20.157,22.83q-.446,1.391-.881,2.749l-.076.237-.734,2.284-.194.6q-.348,1.08-.689,2.138l-.118.367c-.823,2.551-1.615,4.993-2.369,7.307l-.129.4q-.321.987-.633,1.941l-.092.282q-.344,1.048-.675,2.058l-.025.074a85.385,85.385,0,0,0-1.068,13.687c0,1.138.028,2.255.068,3.363a19.517,19.517,0,0,1,4.333,12.831,21.785,21.785,0,0,1-1.114,7.076c10.316,33.752,43.062,47.675,71.237,47.675,33.942,0,74.523-21.348,74.523-70.945S323.4,300.933,289.453,300.933Z"></path><path class="b" d="M105.253,305.852c-1.376,4.364-2.74,8.681-4.076,12.9,19.556,7.442,36.247,24.472,36.247,53.129,0,40.263-32.943,57.592-60.5,57.592s-60.5-16.4-60.5-57.592,32.943-57.592,60.5-57.592a68.254,68.254,0,0,1,10.9.892c1.335-4.211,2.7-8.523,4.074-12.886a84.351,84.351,0,0,0-14.975-1.359c-33.942,0-74.523,20.2-74.523,70.945s40.581,70.945,74.523,70.945,74.523-21.348,74.523-70.945C151.45,335.823,130,314.7,105.253,305.852Z"></path><path class="b" d="M353.583,136.1c-8.732-18.645-20.6-43.157-30.792-64.76a2.887,2.887,0,0,1,1.489-3.89h0a2.887,2.887,0,0,0,1.477-3.9c-3.2-6.7-6.427-13.45-9.548-20.026a2.872,2.872,0,0,0-3.725-1.415C300.968,47,237.771,74.39,218.213,82.654a2.846,2.846,0,0,0-1.474,3.827c14.066,30.233,33.451,69.883,44.476,93.979a2.851,2.851,0,0,0,3.7,1.439c19.155-8.041,69.029-29.861,88.884-38.285a2.873,2.873,0,0,0,1.486-3.863Q354.458,137.966,353.583,136.1Z"></path><path class="c" d="M170.843,71.736c5.264,4.595,10.843,8.887,17.369,11.521a2.415,2.415,0,0,0,2.952-1.676,2.459,2.459,0,0,0-1.676-2.952,43.791,43.791,0,0,1-8.3-4.723,84.508,84.508,0,0,1-6.949-5.564,2.459,2.459,0,0,0-3.394,0,2.421,2.421,0,0,0,0,3.394Z"></path><path class="c" d="M164.005,57.672c.581-1.539,2.025-3.327,3.617-3a2.407,2.407,0,0,1,1.519,1.256,8.482,8.482,0,0,1,1,2.891c.857,4.394-.713,8.183-3.723,11.567a2.456,2.456,0,0,0,0,3.394,2.422,2.422,0,0,0,3.394,0,20.416,20.416,0,0,0,4.891-8.541,17.249,17.249,0,0,0-.367-9.4c-1.069-3.153-3.511-6.05-7.108-6-3.94.052-6.562,3.135-7.852,6.551a2.42,2.42,0,0,0,1.676,2.953,2.453,2.453,0,0,0,2.952-1.676Z"></path><path class="c" d="M119.176,53.44c1,5.116,3.291,10.035,3.191,15.338a9.168,9.168,0,0,1-.49,2.983,8.332,8.332,0,0,1-1.739,2.508c-1.879,2.259-2.591,5.559-.607,7.989,1.329,1.628,3.459,1.948,4.928,3.346s1.927,3.585,2.8,5.475c2.255,4.889,5.29,9.922,10.634,11.811,2.876,1.017,6.042.663,8.99.219,3.327-.5,6.583-1.371,9.877-2.043a2.4,2.4,0,1,0-1.276-4.628c-2.739.558-5.449,1.251-8.2,1.758-2.208.408-4.731.882-6.959.395-4.682-1.022-7.1-5.973-8.923-9.935-.892-1.934-1.433-3.974-2.806-5.638a10.07,10.07,0,0,0-2.8-2.343,19.482,19.482,0,0,1-2.421-1.3c.111.085-.344-.563-.189-.148a1.4,1.4,0,0,1,.056-1.009c.345-.987,1.432-1.744,2.016-2.6a12.4,12.4,0,0,0,1.9-6.668c.17-5.823-2.26-11.182-3.358-16.787a2.424,2.424,0,0,0-2.952-1.676,2.449,2.449,0,0,0-1.676,2.952Z"></path><path class="c" d="M190.286,36.09a47.642,47.642,0,0,1,2.944,26.687,59.238,59.238,0,0,1-1.678,7.027c-.656,2.162-1.7,4.175-2.549,6.27a23.69,23.69,0,0,0-1.67,6.2A17.593,17.593,0,0,0,188.156,89c.846,2.965,5.479,1.7,4.628-1.276a12.557,12.557,0,0,1-.541-6.01A28.584,28.584,0,0,1,194.208,76a47.436,47.436,0,0,0,2.51-6.8,59.06,59.06,0,0,0,1.433-7.006,51.666,51.666,0,0,0-3.237-27.381,2.482,2.482,0,0,0-2.952-1.676,2.414,2.414,0,0,0-1.676,2.952Z"></path><path class="c" d="M198.249,406.25c-6.525,2.9-14.9,5.554-17.278,13.131-1.073,3.418-.18,7.35,3.084,9.215,3.417,1.952,7.521.782,11.093.006,4.836-1.052,9.7-1.983,14.56-2.906a2.421,2.421,0,0,0,1.676-2.952,2.451,2.451,0,0,0-2.952-1.676c-4.706.892-9.411,1.794-14.093,2.8-2.129.459-7.551,2.436-8.814-.4-1.228-2.762,1.746-6.017,3.829-7.51,3.432-2.459,7.491-3.862,11.317-5.565a2.417,2.417,0,0,0,.861-3.284,2.459,2.459,0,0,0-3.283-.861Z"></path><path class="c" d="M219.248,423.856c4.335-.875,8.851-1.511,12.783-3.651a2.422,2.422,0,0,0,.861-3.284,2.45,2.45,0,0,0-3.283-.861c-.45.245-.908.469-1.374.681-.258.112-.266.116-.026.013-.133.053-.266.106-.4.156q-.294.113-.592.215a24.189,24.189,0,0,1-2.778.741q-3.228.71-6.468,1.362a2.414,2.414,0,0,0-1.676,2.952,2.459,2.459,0,0,0,2.952,1.676Z"></path><path class="c" d="M253.408,264.691c-4.712,7.034-9.506,14.012-14.18,21.07a2.4,2.4,0,1,0,4.144,2.423c4.675-7.059,9.469-14.037,14.18-21.07a2.4,2.4,0,1,0-4.144-2.423Z"></path><path class="c" d="M227.2,330.9v-.01a2.467,2.467,0,0,0-2.4-2.4l-.638.086a2.4,2.4,0,0,0-1.059.617l-.375.486a2.375,2.375,0,0,0-.328,1.211v.01a2.464,2.464,0,0,0,2.4,2.4l.638-.086a2.392,2.392,0,0,0,1.059-.617l.375-.485a2.392,2.392,0,0,0,.328-1.212Z"></path><path class="c" d="M211.01,253.7c0-.737-.348.613-.4.77q-.184.523-.37,1.047-.433,1.221-.873,2.438-.849,2.349-1.725,4.687-1.782,4.761-3.673,9.48a2.416,2.416,0,0,0,1.676,2.952,2.456,2.456,0,0,0,2.952-1.676q1.958-4.891,3.8-9.826.906-2.425,1.784-4.863.438-1.218.87-2.44a8.4,8.4,0,0,0,.759-2.569c0-3.088-4.8-3.093-4.8,0Z"></path><path class="c" d="M173.2,124.361a83.5,83.5,0,0,0-4.17,13.347c-.951,4.5-1.335,9.089-2.758,13.488-1.409,4.351-4.036,7.988-6.9,11.5-3.054,3.748-6.066,7.525-8.973,11.388q-5,6.642-9.625,13.552a2.416,2.416,0,0,0,.375,2.908c3.806,3.568,7.673,6.992,10.9,11.116a2.413,2.413,0,0,0,3.394,0,2.46,2.46,0,0,0,0-3.394c-3.227-4.124-7.095-7.548-10.9-11.116l.375,2.908q8.209-12.239,17.565-23.621c3.014-3.689,5.858-7.411,7.652-11.861,1.759-4.364,2.316-8.981,3.129-13.576a80.079,80.079,0,0,1,4.56-15.361,2.417,2.417,0,0,0-1.676-2.953,2.457,2.457,0,0,0-2.952,1.677Z"></path><path class="c" d="M142.279,186.418a18.283,18.283,0,0,0-5.426,4.35c-1.449,1.528-2.947,3.3-5.051,3.894-2.716.762-5.679.076-8.463.5a8.932,8.932,0,0,0-6.471,3.952c-1.632,2.633,2.519,5.046,4.144,2.423,1-1.606,3.278-1.78,4.986-1.795,3-.026,5.943.2,8.75-1.084,4.01-1.84,5.981-6.279,9.954-8.093a2.419,2.419,0,0,0,.861-3.284,2.457,2.457,0,0,0-3.284-.861Z"></path><path class="c" d="M263.218,321.916a68.279,68.279,0,0,1,24.05-5.2,65.2,65.2,0,0,1,15.414,1.313,60.12,60.12,0,0,1,27.2,12.936,50.569,50.569,0,0,1,16.434,28.227c2.508,12.076,1.529,25.581-3.718,36.83a51.231,51.231,0,0,1-21.332,22.8A64.7,64.7,0,0,1,292.641,427a66.935,66.935,0,0,1-28.774-4.891A52.5,52.5,0,0,1,240.4,403.625c-7.024-10.313-9.523-22.806-8.962-35.14.581-12.767,5.022-25.221,13.991-34.5a49.939,49.939,0,0,1,6.124-5.4,2.474,2.474,0,0,0,.861-3.284,2.416,2.416,0,0,0-3.283-.861,54.7,54.7,0,0,0-20.914,32.05c-3.085,13.691-2.1,28.772,3.633,41.646a54.351,54.351,0,0,0,22.541,24.626,71.463,71.463,0,0,0,61.731,3.865,59.108,59.108,0,0,0,26.4-20.791c7.454-10.823,10.347-24.177,9.76-37.184-.579-12.825-4.788-25.209-13.091-35.1-7.181-8.55-17.013-14.6-27.552-18.1a72.16,72.16,0,0,0-37.432-1.971,68.815,68.815,0,0,0-12.261,3.8,2.479,2.479,0,0,0-1.676,2.952,2.414,2.414,0,0,0,2.952,1.676Z"></path><path class="c" d="M297.523,358.769q6.975-14.471,14.515-28.658c1.449-2.727-2.692-5.155-4.144-2.423q-7.54,14.184-14.515,28.659a2.463,2.463,0,0,0,.861,3.283,2.42,2.42,0,0,0,3.283-.861Z"></path><path class="c" d="M294.954,387.648c6.109,9.093,11.785,18.553,17.36,27.981,1.571,2.657,5.722.245,4.144-2.423-5.574-9.428-11.25-18.887-17.36-27.981-1.713-2.551-5.873-.151-4.144,2.423Z"></path><path class="c" d="M305,379.983c8.836,3.347,17.541,7.163,26.167,11.013a2.475,2.475,0,0,0,3.284-.861,2.419,2.419,0,0,0-.861-3.284c-9-4.018-18.091-8-27.314-11.5a2.419,2.419,0,0,0-2.952,1.676A2.452,2.452,0,0,0,305,379.983Z"></path><path class="c" d="M256.241,310.135a83.343,83.343,0,0,1,40.433-6.485,81.823,81.823,0,0,1,27.305,7.344,67.362,67.362,0,0,1,23.278,17.855A63.418,63.418,0,0,1,360.373,357.8a77.244,77.244,0,0,1-2.047,36.5A61.46,61.46,0,0,1,342.2,420.354a70.779,70.779,0,0,1-24.554,15.059,83.041,83.041,0,0,1-64.7-3.338,60.95,60.95,0,0,1-32.411-37.561c-.908-2.943-5.543-1.687-4.628,1.276a66.46,66.46,0,0,0,25.554,35.049c11.337,7.93,24.876,12.383,38.563,13.87a87.285,87.285,0,0,0,31.8-2.436,79.075,79.075,0,0,0,27.706-13.366,66.6,66.6,0,0,0,20.282-25.149,78.432,78.432,0,0,0,6.411-37.175,71.966,71.966,0,0,0-10.566-34.267,69,69,0,0,0-22.864-22.046,82.838,82.838,0,0,0-28.7-10.467,89.04,89.04,0,0,0-38.744,2.029,87.354,87.354,0,0,0-11.528,4.158,2.415,2.415,0,0,0-.861,3.284,2.46,2.46,0,0,0,3.283.861Z"></path><path class="c" d="M224.682,338.964A61.606,61.606,0,0,1,243.981,317a2.463,2.463,0,0,0,.861-3.284,2.419,2.419,0,0,0-3.283-.861,66.711,66.711,0,0,0-21.021,23.691c-1.432,2.734,2.709,5.163,4.144,2.423Z"></path><path class="c" d="M213.6,358.182c0-.853-.07.366-.1.549-.044.3-.085.594-.126.891-.112.814-.218,1.628-.31,2.444q-.236,2.082-.364,4.174a85.9,85.9,0,0,0-.1,8.992,2.4,2.4,0,0,0,4.8,0,85.9,85.9,0,0,1,.1-8.992q.131-2.091.364-4.174c.069-.612.148-1.264.221-1.763a15.283,15.283,0,0,0,.312-2.121,2.4,2.4,0,1,0-4.8,0Z"></path><path class="c" d="M100.542,321.056c10.442,4,19.959,11,26.11,20.5,7.3,11.273,9.458,25.1,7.914,38.3a51.163,51.163,0,0,1-14.561,30.485,58.512,58.512,0,0,1-27.275,14.8,67.676,67.676,0,0,1-29.525.547c-10.055-2.073-19.67-6.317-27.331-13.075a50.313,50.313,0,0,1-16.04-28.961c-2.293-12.447-1.09-26.294,4.617-37.7a50.4,50.4,0,0,1,22.034-22.029,67.225,67.225,0,0,1,40.707-6.439,2.473,2.473,0,0,0,2.952-1.676,2.419,2.419,0,0,0-1.676-2.952,72.453,72.453,0,0,0-36.724,3.508,58.616,58.616,0,0,0-27.089,20.023C16.762,347.205,13.688,360.769,14.06,374c.368,13.126,4.347,25.936,12.755,36.151,7.141,8.674,17.057,14.737,27.673,18.194a72.259,72.259,0,0,0,31.881,2.86,66.494,66.494,0,0,0,30.876-12.221A55.185,55.185,0,0,0,137.5,389.6a65.686,65.686,0,0,0-2.569-42.672,55.779,55.779,0,0,0-25.007-26.822,69.425,69.425,0,0,0-8.11-3.682,2.418,2.418,0,0,0-2.952,1.676,2.453,2.453,0,0,0,1.676,2.952Z"></path><path class="c" d="M90.433,380.669q15.574,7.5,30.842,15.62c2.727,1.45,5.155-2.692,2.423-4.144q-15.265-8.115-30.843-15.621a2.464,2.464,0,0,0-3.283.861,2.421,2.421,0,0,0,.861,3.284Z"></path><path class="c" d="M61.554,378.1c-9.093,6.109-18.553,11.785-27.981,17.36-2.657,1.571-.245,5.722,2.423,4.145,9.428-5.575,18.887-11.251,27.981-17.36,2.551-1.714.151-5.874-2.423-4.145Z"></path><path class="c" d="M69.219,388.147c-3.347,8.836-7.163,17.541-11.013,26.167a2.475,2.475,0,0,0,.861,3.284,2.418,2.418,0,0,0,3.284-.861c4.018-9,8-18.091,11.5-27.314a2.419,2.419,0,0,0-1.676-2.952,2.454,2.454,0,0,0-2.952,1.676Z"></path><path class="c" d="M104.612,308.166c13.084,4.7,25.127,13.05,33.093,24.642,9.472,13.784,12.548,30.83,10.956,47.3a64.051,64.051,0,0,1-17.653,38.921c-9.222,9.367-21.129,15.587-33.8,18.827a83.749,83.749,0,0,1-36.817.948c-12.575-2.513-24.644-7.782-34.262-16.2A62.52,62.52,0,0,1,6.005,386.246c-2.8-15.522-1.241-32.713,5.95-46.888A62.786,62.786,0,0,1,39.7,312.04a83.253,83.253,0,0,1,51.56-7.434,2.468,2.468,0,0,0,2.952-1.676,2.42,2.42,0,0,0-1.676-2.952,88.808,88.808,0,0,0-46.018,3.883c-13.2,4.857-25.018,13.031-33.39,24.424C3.4,341.532-.4,358.145.034,374.394c.433,16.082,5.293,31.821,15.621,44.322,8.844,10.7,21.125,18.157,34.273,22.346a88.993,88.993,0,0,0,39.466,3.228A80.905,80.905,0,0,0,127,428.907a67.281,67.281,0,0,0,24.335-36.519c4.449-17.095,3.273-36.267-4.058-52.395-6.364-14-17.793-25.2-31.421-32.163a85.015,85.015,0,0,0-9.967-4.292,2.422,2.422,0,0,0-2.952,1.676,2.448,2.448,0,0,0,1.676,2.952Z"></path><path class="c" d="M283.445,371.878c0-.254.021-.506.028-.76.021-.734-.11.383.035-.309a13.279,13.279,0,0,1,.344-1.284c.03-.1.19-.411,0-.008.088-.184.179-.366.28-.543s.212-.335.317-.5c.16-.22.152-.213-.022.019.081-.1.165-.195.252-.29.216-.234.452-.441.688-.654-.424.382.021-.013.115-.076.154-.105.313-.2.474-.3.269-.156.547-.293.83-.422-.553.251.013.007.116-.028q.348-.122.7-.214c.3-.077.592-.131.892-.188.6-.115-.53.023.076,0,.177-.008.353-.027.531-.034q.443-.015.884.01c.181.01.361.03.541.046-.676-.063.133.034.269.063a9.277,9.277,0,0,1,.9.239c.18.057.355.125.533.187-.557-.2.02.012.12.061a8.353,8.353,0,0,1,.989.568c.106.071.21.145.312.22-.475-.349.167.167.249.246.141.135.266.284.405.42.439.433-.228-.389.114.133.186.283.348.576.523.866.329.547-.115-.422.095.2.071.207.143.411.2.622.051.181.093.364.131.549.024.113.044.227.062.341-.032-.247-.033-.221,0,.076.018.507.018,1,0,1.509-.028.754.056-.231-.019.191-.033.188-.07.375-.116.56q-.079.321-.186.635c-.025.076-.317.688-.076.213a10.932,10.932,0,0,1-.614,1.052c-.342.521.325-.3-.114.132-.139.137-.264.286-.405.421s-.286.258-.432.384c.36-.311.124-.089.028-.026a11.121,11.121,0,0,1-.977.591c-.168.087-.34.168-.513.244.548-.24-.1.02-.22.06a9.659,9.659,0,0,1-.991.268c-.18.038-.362.067-.544.1.637-.112.041-.012-.086,0-.3.023-.592.031-.889.026q-.264,0-.528-.024c-.119-.008-.238-.019-.356-.032.34.05.374.055.1.013-.36-.069-.716-.137-1.07-.237q-.265-.075-.527-.165c-.117-.04-.233-.083-.347-.128q.43.188.061.023c-.332-.171-.663-.337-.978-.54q-.237-.151-.462-.321c.483.365-.149-.159-.231-.239s-.18-.18-.266-.274-.171-.191-.252-.29c.174.233.182.239.022.02-.105-.169-.218-.331-.317-.5-.037-.064-.351-.7-.241-.448.142.327-.111-.319-.106-.306a7.947,7.947,0,0,1-.23-.856c-.008-.04-.106-.777-.057-.291-.034-.334-.046-.668-.05-1a2.4,2.4,0,0,0-4.8,0,10.53,10.53,0,0,0,2.384,6.782,10.38,10.38,0,0,0,5.121,3.169,11.7,11.7,0,0,0,11.216-2.667,10.631,10.631,0,0,0,1.141-13.192,11.349,11.349,0,0,0-11.108-4.308,10.725,10.725,0,0,0-5.918,2.937,10.314,10.314,0,0,0-2.836,7.279,2.4,2.4,0,0,0,4.8,0Z"></path><path class="c" d="M294.188,363.1q-20.536-30.787-40.722-61.811-5.562-8.531-11.09-17.085l.242,1.85q3.053-9.753,6.075-19.515c.916-2.957-3.716-4.222-4.628-1.276q-2.068,6.677-4.149,13.349l-1.033,3.31c-.356,1.137-1.1,2.617-.936,3.813a6.718,6.718,0,0,0,1.316,2.489l1.438,2.223q6.024,9.3,12.09,18.582,12.579,19.255,25.267,38.438,5.976,9.037,11.986,18.056c1.706,2.557,5.865.157,4.144-2.423Z"></path><path class="c" d="M70.92,371.878c0-.254.02-.506.027-.76.021-.734-.11.383.035-.309.092-.438.21-.857.344-1.284.03-.1.191-.411,0-.008.088-.184.179-.366.28-.543s.212-.335.318-.5c.159-.22.151-.213-.023.019.081-.1.166-.195.252-.29.216-.234.452-.441.688-.654-.424.382.021-.013.115-.076.154-.105.313-.2.475-.3.268-.156.546-.293.829-.422-.553.251.013.007.116-.028q.348-.122.7-.214c.3-.077.593-.131.892-.188.6-.115-.53.023.076,0,.177-.008.354-.027.531-.034q.442-.015.884.01c.181.01.361.03.541.046-.676-.063.133.034.27.063.3.065.6.144.9.239.18.057.355.125.533.187-.557-.2.02.012.12.061a8.353,8.353,0,0,1,.989.568c.106.071.21.145.313.22-.476-.349.167.167.249.246.14.135.265.284.4.42.439.433-.228-.389.114.133.186.283.348.576.523.866.329.547-.115-.422.095.2.071.207.143.411.2.622.051.181.093.364.131.549.024.113.045.227.062.341-.032-.247-.032-.221,0,.076.018.507.018,1,0,1.509-.027.754.057-.231-.019.191-.033.188-.07.375-.116.56-.053.214-.114.426-.185.635-.026.076-.318.688-.077.213a10.727,10.727,0,0,1-.614,1.052c-.342.521.325-.3-.114.132-.139.137-.264.286-.4.421s-.287.258-.433.384c.36-.311.124-.089.029-.026a11.287,11.287,0,0,1-.978.591q-.252.13-.513.244c.549-.24-.1.02-.219.06a9.728,9.728,0,0,1-.991.268c-.181.038-.363.067-.545.1.637-.112.041-.012-.086,0-.3.023-.592.031-.889.026q-.264,0-.528-.024c-.119-.008-.238-.019-.356-.032.341.05.375.055.1.013-.359-.069-.716-.137-1.069-.237q-.267-.075-.528-.165c-.117-.04-.232-.083-.347-.128q.431.188.062.023c-.333-.171-.664-.337-.979-.54q-.237-.151-.461-.321c.482.365-.149-.159-.232-.239s-.179-.18-.266-.274-.171-.191-.252-.29c.174.233.182.239.023.02-.106-.169-.219-.331-.318-.5-.036-.064-.351-.7-.241-.448.142.327-.11-.319-.106-.306a7.947,7.947,0,0,1-.23-.856c-.008-.04-.1-.777-.057-.291-.033-.334-.045-.668-.049-1a2.4,2.4,0,0,0-4.8,0A10.519,10.519,0,0,0,68.5,378.66a10.371,10.371,0,0,0,5.121,3.169,11.7,11.7,0,0,0,11.215-2.667,10.632,10.632,0,0,0,1.142-13.192,11.351,11.351,0,0,0-11.109-4.308,10.725,10.725,0,0,0-5.918,2.937,10.309,10.309,0,0,0-2.835,7.279,2.4,2.4,0,0,0,4.8,0Z"></path><path class="c" d="M115.957,216.29c-2.195,7.443-4.466,14.864-6.74,22.284q-4.853,15.832-9.782,31.643Q93.962,287.8,88.421,305.352q-5.091,16.124-10.266,32.219c-2.524,7.828-5.054,15.657-7.712,23.441q-.339.995-.683,1.987c-1.014,2.925,3.621,4.182,4.628,1.276,2.519-7.265,4.887-14.583,7.255-21.9q5.083-15.7,10.046-31.445,5.553-17.55,11.03-35.124,5.048-16.187,10.033-32.394c2.435-7.926,4.864-15.855,7.228-23.8q.3-1.021.606-2.045c.875-2.969-3.755-4.237-4.629-1.276Z"></path><path class="c" d="M203.056,338.224q-1.655,5.19-3.31,10.38a2.419,2.419,0,0,0,1.676,2.952,2.452,2.452,0,0,0,2.952-1.676q1.656-5.19,3.31-10.38a2.42,2.42,0,0,0-1.676-2.952,2.452,2.452,0,0,0-2.952,1.676Z"></path><path class="c" d="M200.442,288.576c6.366,1.8,12.735,3.6,19.09,5.44l-1.676-2.952q-5.207,16.615-10.41,33.23c-.93,2.954,3.7,4.217,4.628,1.276q5.226-16.608,10.41-33.23a2.434,2.434,0,0,0-1.676-2.952c-6.355-1.841-12.724-3.637-19.09-5.44-2.977-.843-4.248,3.787-1.276,4.628Z"></path><path class="c" d="M182.1,347.271c-.221-.342-.449-.679-.67-1.02a2.312,2.312,0,0,0-2.391-1.146,1.784,1.784,0,0,0-.892.285l-.486.375a2.4,2.4,0,0,0-.617,1.059l-.086.638a2.382,2.382,0,0,0,.328,1.212c.221.341.448.678.67,1.02a2.313,2.313,0,0,0,2.391,1.145,1.783,1.783,0,0,0,.892-.284l.486-.376a2.4,2.4,0,0,0,.617-1.059l.086-.638a2.385,2.385,0,0,0-.328-1.211Z"></path><path class="c" d="M164.458,273.5q-18.813-5.259-37.64-10.47a2.426,2.426,0,0,0-2.71,3.526c10.189,16.505,20.867,32.719,31.452,48.971q5.688,8.732,11.4,17.449c1.686,2.573,5.844.171,4.144-2.423-12.293-18.767-24.555-37.557-36.6-56.485-2.1-3.3-4.195-6.606-6.251-9.935l-2.71,3.525q18.835,5.178,37.64,10.47c2.98.833,4.251-3.8,1.276-4.628Z"></path><path class="c" d="M198.724,367.09c1.563-4.507,3.026-9.049,4.49-13.59a2.419,2.419,0,0,0-1.676-2.952,2.453,2.453,0,0,0-2.952,1.676c-1.464,4.541-2.927,9.083-4.49,13.59a2.415,2.415,0,0,0,1.676,2.952,2.458,2.458,0,0,0,2.952-1.676Z"></path><path class="c" d="M196.312,272.406q13.959,3.981,27.91,7.99a2.442,2.442,0,0,0,2.952-1.676c1.545-4.951,3-9.929,4.55-14.88.923-2.955-3.71-4.22-4.628-1.276-1.546,4.951-3,9.929-4.55,14.88l2.952-1.676q-13.947-4.024-27.91-7.99c-2.976-.848-4.246,3.782-1.276,4.628Z"></path><path class="c" d="M126.976,227.624q-3.156,10.471-6.38,20.92a2.432,2.432,0,0,0,1.676,2.952q16.723,4.675,33.43,9.41c2.977.843,4.248-3.787,1.276-4.628q-16.709-4.727-33.43-9.41l1.676,2.952q3.216-10.452,6.38-20.92c.893-2.964-3.738-4.231-4.628-1.276Z"></path><path class="c" d="M214.168,371.185c5.769-16.647,11.008-33.486,16.327-50.281q2.97-9.38,5.918-18.766l-4.387.573q18.225,28.41,37.043,56.437,4.683,6.981,9.419,13.927c1.732,2.536,5.893.137,4.145-2.422-12.373-18.112-24.451-36.429-36.412-54.815q-5.049-7.76-10.05-15.549a2.432,2.432,0,0,0-4.387.573C225.623,320.479,219.449,340.1,213,359.621c-1.134,3.436-2.278,6.869-3.463,10.288-1.014,2.925,3.622,4.182,4.629,1.276Z"></path><path class="c" d="M87.584,368.31c8.151-23.5,15.434-47.323,22.888-71.052q3.677-11.709,7.322-23.428l-4.386.574c10.1,16.618,20.735,32.923,31.312,49.238q5.91,9.117,11.868,18.2c1.687,2.572,5.845.17,4.144-2.423Q141.9,310.707,123.56,281.666c-2.021-3.217-4.035-6.438-6.008-9.685a2.429,2.429,0,0,0-4.386.573c-8.32,26.718-16.666,53.433-25.375,80.027-1.581,4.828-3.171,9.654-4.835,14.453-1.015,2.925,3.621,4.181,4.628,1.276Z"></path><path class="c" d="M183.442,373.471q-8.1-11.856-15.99-23.85c-1.695-2.566-5.854-.165-4.144,2.423q7.913,11.979,15.99,23.85a2.46,2.46,0,0,0,3.283.861,2.422,2.422,0,0,0,.861-3.284Z"></path><path class="c" d="M151.52,222.292h-.01a2.672,2.672,0,0,0-1.7.7,2.678,2.678,0,0,0-.7,1.7l.086.638a2.387,2.387,0,0,0,.617,1.059l.486.376a2.384,2.384,0,0,0,1.211.327h.01a2.467,2.467,0,0,0,2.4-2.4l-.086-.638a2.407,2.407,0,0,0-.617-1.059l-.486-.375a2.4,2.4,0,0,0-1.211-.328Z"></path><path class="c" d="M120.088,213.728c-2.554-.777-5.1-2.235-6.036-4.78a4.286,4.286,0,0,1-.311-1.664,2.747,2.747,0,0,1,.1-.824c.016-.062.23-.717.107-.414a4.349,4.349,0,0,1,2.018-2.208,7.572,7.572,0,0,1,6.405-.547,59.071,59.071,0,0,1,8.115,3.834,2.459,2.459,0,0,0,3.283-.861,2.423,2.423,0,0,0-.861-3.284c-5.112-2.55-10.483-6.141-16.443-4.511a10.424,10.424,0,0,0-6.488,4.808,9.159,9.159,0,0,0,.3,8.879c1.832,3.241,5.055,5.143,8.528,6.2,2.962.9,4.228-3.73,1.276-4.628Z"></path><path class="c" d="M270.776,242.63a52.107,52.107,0,0,1,.917,8.513,34.484,34.484,0,0,1-.448,8,4.962,4.962,0,0,1-1.149,2.569,5.3,5.3,0,0,1-3.006,1.15,69.024,69.024,0,0,1-8.1.592,98.5,98.5,0,0,1-32.976-4.621c-2.753-.879-5.736-1.721-8.147-3.371-1.552-1.062-3.209-3.255-2.272-5.207a2.464,2.464,0,0,0-.861-3.284,2.42,2.42,0,0,0-3.283.861,8.472,8.472,0,0,0,.631,8.486c1.713,2.582,4.4,4.075,7.2,5.212a92.022,92.022,0,0,0,18.648,5.175,104.068,104.068,0,0,0,19.677,1.582,86.909,86.909,0,0,0,9.847-.667c3.069-.4,6-1.571,7.468-4.493,1.554-3.094,1.572-6.942,1.59-10.329a59.243,59.243,0,0,0-1.106-11.443,2.422,2.422,0,0,0-2.952-1.676,2.45,2.45,0,0,0-1.676,2.952Z"></path><path class="c" d="M219.638,424.856q3.4-.766,6.805-1.54l2.293-.52c.118-.026.238-.049.356-.08.568-.149-.586,0-.865-.175a1.35,1.35,0,0,1-.4-.406c-.046-.075-.124-.435-.092-.132a4.609,4.609,0,0,0,.122.542q.606,2.688,1.2,5.379.12.542.241,1.085a1.667,1.667,0,0,0,.054.246c.144.372.02-.62.03-.659.077-.3.575-.806.769-.778a2.746,2.746,0,0,0-.773.184l-1.1.261-7.473,1.775a2.421,2.421,0,0,0-1.676,2.952,2.449,2.449,0,0,0,2.952,1.676l7.549-1.792a10.536,10.536,0,0,0,2.652-.768,3.625,3.625,0,0,0,1.685-2.078,4.5,4.5,0,0,0-.054-2.361q-.677-3.051-1.359-6.1c-.342-1.521-.954-3.013-2.622-3.478a6.558,6.558,0,0,0-3.275.263q-4.146.94-8.292,1.878a2.419,2.419,0,0,0-1.676,2.952,2.453,2.453,0,0,0,2.952,1.676Z"></path><path class="c" d="M208.932,422.368q-3.583.811-7.167,1.621a4.323,4.323,0,0,0-3.118,1.9c-.775,1.319-.326,2.754-.027,4.132.437,2.013.847,4.033,1.3,6.042a3.616,3.616,0,0,0,4.236,2.849c.744-.129,1.48-.336,2.215-.511q4.258-1.014,8.517-2.031a2.421,2.421,0,0,0,1.676-2.952,2.451,2.451,0,0,0-2.952-1.676l-6.879,1.64-2.474.589-.855.2c-.059.013-.31.035-.332.078.063-.12.84.031.952.1.08.051.658.539.58.694.073-.146-.181-.845-.215-1.006q-.141-.654-.28-1.307-.3-1.4-.6-2.794c-.177-.82-.307-1.669-.537-2.476-.171-.6.047.488-.137.769-.072.112-.527.656-.705.6.03.01.111-.028.143-.032.3-.039.611-.14.909-.208q3.513-.8,7.028-1.59a2.418,2.418,0,0,0,1.676-2.952,2.453,2.453,0,0,0-2.952-1.676Z"></path><path class="c" d="M209.4,404.64c3.185,8.061,6.564,16.081,9.487,24.242a7.489,7.489,0,0,1,.416,1.557c-.056-.44-.01.594-.023.748.036-.412-.016.094-.05.2-.136.432.016.163-.18.467a2.277,2.277,0,0,1-1.636.871,3.11,3.11,0,0,1-2.528-1.4c-.147-.2-.265-.671-.464-.828-.282-.222.252.626.054.129-.213-.537-.432-1.072-.644-1.609q-1.046-2.643-2.069-5.295-3.205-8.261-6.365-16.539a2.469,2.469,0,0,0-2.952-1.676,2.417,2.417,0,0,0-1.676,2.952q3.105,8.123,6.245,16.232c.772,1.99,1.544,3.98,2.332,5.964a13.675,13.675,0,0,0,2.145,4.064,7.455,7.455,0,0,0,8.857,2.084,6.525,6.525,0,0,0,3.745-6.092,12.051,12.051,0,0,0-1.007-4.244c-.685-1.8-1.385-3.584-2.084-5.374q-3.467-8.873-6.975-17.73a2.472,2.472,0,0,0-2.952-1.676,2.417,2.417,0,0,0-1.676,2.952Z"></path><path class="c" d="M196.5,370.222c6.509-.35,13.638,1.972,17.471,7.615,4.211,6.2,4.077,15.772-.78,21.506-4.332,5.115-11.066,7.135-17.552,6.516a21.479,21.479,0,0,1-8.889-2.977,15.827,15.827,0,0,1-6.288-7.288,20.494,20.494,0,0,1-.28-14.3,16.2,16.2,0,0,1,7.979-8.844c2.734-1.442.311-5.586-2.422-4.145a20.847,20.847,0,0,0-9.313,9.573,25.5,25.5,0,0,0-1.612,15.535c1.732,8.657,8.789,14.865,17.25,16.7,7.911,1.714,16.592-.071,22.708-5.522,7.248-6.46,8.8-17.738,4.893-26.4-3.959-8.782-13.88-13.271-23.165-12.772-3.073.165-3.092,4.966,0,4.8Z"></path><path class="c" d="M189.956,356.19c3.325,9.17,6.328,18.465,9.381,27.728.149.45.309.9.444,1.354.061.209.115.419.162.632.036.159.073.614.042.211.021.272.023.539.02.811a2.84,2.84,0,0,1-.023.357c.058-.4-.047.129-.075.2-.17.408.006.179-.212.455.132-.167-.243.268-.32.327a2.491,2.491,0,0,1-1.551.423,2.846,2.846,0,0,1-1.5-.65,4.018,4.018,0,0,1-.56-.591c-.184-.232-.391-.929-.619-1.063.2.115.28.717.078.163-.088-.239-.179-.476-.267-.715-.28-.763-.554-1.528-.828-2.293q-1.246-3.482-2.469-6.971-3.288-9.342-6.532-18.7c-1-2.9-5.644-1.654-4.628,1.276q3.114,8.986,6.27,17.958,1.357,3.859,2.73,7.714A42.6,42.6,0,0,0,191,388.8a7.7,7.7,0,0,0,10.263,3.886c3.074-1.5,3.97-4.926,3.311-8.062a39.611,39.611,0,0,0-1.333-4.187q-1.242-3.754-2.494-7.5c-2.01-6.021-4-12.055-6.161-18.023a2.463,2.463,0,0,0-2.952-1.676,2.42,2.42,0,0,0-1.676,2.952Z"></path><path class="c" d="M168.519,353.143q.864,2.682,1.731,5.363c.678,2.106,1.234,4.755,3.936,4.919a8.557,8.557,0,0,0,3-.657q1.722-.538,3.444-1.074,8.929-2.784,17.859-5.564c2.219-.691,5.838-1.164,6.484-3.8.448-1.823-.726-4.115-1.271-5.837-.557-1.762-.911-4.377-2.543-5.466-2.081-1.389-5.121.135-7.285.785l-8.757,2.631-9.983,3-3.373,1.012c-2.283.683-3.695,2.159-3.246,4.684a2.421,2.421,0,0,0,2.953,1.676,2.454,2.454,0,0,0,1.676-2.952c.082.462-1.338,1.384-.53,1.347a2.069,2.069,0,0,0,.423-.127l1.132-.339,2.911-.874q3.807-1.142,7.613-2.286,6.915-2.079,13.831-4.155c.163-.049.72-.115.828-.249.154-.19,1.709.74-.612-.365-1.145-.544-.644-.471-.591.031a6.413,6.413,0,0,0,.358,1.132q.743,2.349,1.485,4.7a3.211,3.211,0,0,0,.288.916c.55.6.338-1.592.845-1.314a1.058,1.058,0,0,0-.21.065,4.193,4.193,0,0,0-.994.311l-2.708.843-15.371,4.789q-3.384,1.054-6.767,2.11a3.22,3.22,0,0,0-.913.285c1.969-1.644,1.429,1.484,1.306.393a3.27,3.27,0,0,0-.183-.571l-.465-1.447q-.837-2.6-1.676-5.193C172.205,348.938,167.569,350.19,168.519,353.143Z"></path><path class="c" d="M181.75,311.992a15.533,15.533,0,0,1-4.168,11.1c-2.98,3.39-7.2,5.1-11.04,7.313-3.96,2.285-8.24,5.208-10.189,9.509-1.758,3.88-1.884,8.932,1.966,11.616,1.925,1.342,4.55,1.623,6.829,1.691a21.475,21.475,0,0,0,7.25-.944c4.6-1.5,9.194-3.034,13.788-4.558q6.735-2.235,13.475-4.458c2.41-.793,4.931-1.442,7.256-2.46a12.523,12.523,0,0,0,4.908-3.972,9.877,9.877,0,0,0,2.23-7.271c-.375-2.772-1.894-5.173-3.182-7.6a84.583,84.583,0,0,1-6.409-15.761c-.872-2.956-5.506-1.7-4.628,1.276a92.075,92.075,0,0,0,5.107,13.349c.951,2.01,2.029,3.944,3.063,5.91.874,1.662,1.808,3.551,1.044,5.425-1.614,3.956-5.459,4.763-9.128,5.968q-6.222,2.045-12.439,4.109-6.127,2.033-12.256,4.06c-4.212,1.389-8.442,2.932-12.932,1.77-3.47-.9-2.478-4.876-1.008-7.2,2.185-3.46,6.3-5.579,9.777-7.486a57.159,57.159,0,0,0,6.447-3.754,22.9,22.9,0,0,0,4.636-4.581c2.827-3.684,4.737-8.348,4.4-13.054a2.458,2.458,0,0,0-2.4-2.4,2.42,2.42,0,0,0-2.4,2.4Z"></path><path class="c" d="M179.826,325.133c2.742,1.707,6.293,1.68,9.391,1.287a43.407,43.407,0,0,0,6.4-1.22c5.29-1.5,9.918-4.784,11.391-10.319.8-2.988-3.833-4.263-4.628-1.276-1.087,4.081-4.481,5.992-8.279,7.034a40.578,40.578,0,0,1-4.922.98c-2.108.3-4.978.582-6.927-.631-2.63-1.637-5.043,2.514-2.423,4.145Z"></path><path class="c" d="M208.442,207.628q-23.022,3.913-46.05,7.8a2.419,2.419,0,0,0-1.676,2.952,2.454,2.454,0,0,0,2.952,1.676q23.025-3.9,46.05-7.8a2.418,2.418,0,0,0,1.676-2.952,2.455,2.455,0,0,0-2.952-1.676Z"></path><path class="c" d="M273.936,223.88c1.8,5.25.212,10.643-3.022,14.982a24.81,24.81,0,0,1-14.787,9.115c-6.969,1.569-14.267.993-21.294.158-3.687-.439-7.355-1-11.062-1.248-3.468-.234-6.944-.274-10.419-.245-7.916.067-15.79.267-23.662-.77a2.409,2.409,0,0,0-2.314,3.038,271.665,271.665,0,0,1,12.059,41.175c1.07,5.251,2,10.536,2.715,15.847l1.762-2.314c-3.6,1.431-7.293,2.636-11,3.73a65.494,65.494,0,0,1-12.938,2.824l2.072,1.189c-9.639-20.8-18.162-42.087-27.631-62.96-2.475-5.456-5.565-11.063-5.761-17.189-.1-3.081-4.9-3.095-4.8,0,.186,5.83,2.532,11.148,4.931,16.36,2.408,5.234,4.745,10.5,7.051,15.779,4.741,10.856,9.347,21.769,14.086,32.626,2.6,5.961,5.244,11.905,7.98,17.807a2.324,2.324,0,0,0,2.072,1.188,69.555,69.555,0,0,0,13.869-2.894c3.828-1.118,7.642-2.356,11.349-3.832.881-.35,1.909-1.214,1.762-2.314a256.132,256.132,0,0,0-9.8-43.424Q194.766,255,192,247.634l-2.314,3.038c7.45.982,14.91.873,22.4.784,3.667-.044,7.336-.034,11,.188,3.937.239,7.827.825,11.741,1.291,13.894,1.651,29.965,1.409,39.417-10.593,4.37-5.549,6.684-12.836,4.314-19.738-1-2.9-5.635-1.657-4.628,1.276Z"></path><path class="c" d="M159.985,238.219l16.864,5.353a2.4,2.4,0,1,0,1.276-4.628l-16.864-5.353a2.4,2.4,0,1,0-1.276,4.628Z"></path><path class="c" d="M124.612,224.451a8.1,8.1,0,0,0,2.143-2.547c.7-1.063,1.4-2.13,2.157-3.16.339-.463-.3.364-.017.022.079-.094.155-.19.234-.284.165-.193.336-.381.519-.557.646-.622,1.333-1.208,2.014-1.79.321-.274.645-.546.973-.812.2-.16.4-.317.592-.474.4-.315-.334.245.1-.08.683-.506,1.372-1,2.086-1.461A2.4,2.4,0,0,0,133,209.164a43.672,43.672,0,0,0-4.352,3.258,22.152,22.152,0,0,0-3.261,3.1c-.88,1.112-1.668,2.285-2.448,3.468-.3.451-.593.9-.905,1.346-.055.079-.114.155-.168.234-.217.318.46-.525.131-.169a1.664,1.664,0,0,0-.125.14c-.231.312.521-.361.321-.234a2.4,2.4,0,1,0,2.423,4.144Z"></path><path class="c" d="M160.971,189.16l-6.529,6.664c-1.694,1.73-3.348,3.806-5.476,5.021-2.305,1.317-5.224.484-7.7.215a18.975,18.975,0,0,0-6.868.57,26.493,26.493,0,0,0-12.575,7.055,32.677,32.677,0,0,0-4.335,5.942,11.176,11.176,0,0,0-1.7,4.5,6.159,6.159,0,0,0,1.769,5.456c2.45,2.154,5.627,1.5,7.819-.618l-3.769-2.908a8.438,8.438,0,0,0-.135,8.112c2.412,4.036,8.079,3.524,10.317-.356l-4.387-1.85c-.852,3.191.14,7.053,3.265,8.614a5.671,5.671,0,0,0,6.6-.83,27.39,27.39,0,0,0,4.341-5.9l-4.145-2.423a6.8,6.8,0,0,0-.4,6.318,5.451,5.451,0,0,0,3.915,3.255c4.182.594,7.593-3.184,9.63-6.4a8.644,8.644,0,0,1,2.731-3.243A15.436,15.436,0,0,1,157.955,225a9.282,9.282,0,0,0,5.232-3.071,41.341,41.341,0,0,0,3.17-5.164,59.038,59.038,0,0,1,9.123-11.88c2.193-2.182-1.2-5.576-3.394-3.394a62.34,62.34,0,0,0-7.4,8.961q-1.611,2.353-3.023,4.834a16.607,16.607,0,0,1-2.47,3.931c-1.058,1.015-2.641,1.182-4.018,1.454a13.265,13.265,0,0,0-4.258,1.55c-2.8,1.676-3.867,4.561-5.967,6.874a10.127,10.127,0,0,1-1.914,1.816,2.363,2.363,0,0,1-.918.36c.083-.013-.345.033-.289.017-.373.106-.123-.088-.121,0,0,.021.553.524.05-.086a2.316,2.316,0,0,1-.416-.6,1.973,1.973,0,0,1,.27-1.75c1.459-2.721-2.54-5.073-4.145-2.423a34.294,34.294,0,0,1-2.518,3.709c-.695.867-1.1,1.648-2.1,1.168-.42-.2-.356-.221-.535-.47-.3-.417-.2-.324-.345-.907-.038-.147-.067-.541-.038-.195-.02-.234-.012-.463-.016-.7,0-.083.094-.77,0-.227.034-.192.078-.38.129-.568.7-2.611-3.012-4.234-4.387-1.85-.324.562-.8.977-1.385.819a1.083,1.083,0,0,1-.642-.436c.183.227-.173-.34-.18-.356.123.289-.014-.144-.041-.247-.021-.08-.077-.59-.045-.219a5.7,5.7,0,0,1-.014-.613c0-.2.016-.4.038-.6-.037.342,0,.021.035-.146.074-.316.18-.627.251-.943.113-.506-.246.355.091-.17,1.5-2.337-1.842-4.773-3.77-2.909-.439.425-.775.651-1.1.515-.242-.1-.217-.231-.171-.1-.038-.109-.112-.377-.05-.034-.027-.147-.1-.285-.125-.434-.076-.491-.018-.134-.01-.04a3.87,3.87,0,0,1-.013-.457c.006-.129.118-.967.024-.47.05-.266.108-.529.184-.788.118-.4.261-.589.062-.242,1.9-3.321,3.945-6.674,7.195-8.852a22.337,22.337,0,0,1,10.544-3.922c2.271-.137,4.5.449,6.755.562a10.973,10.973,0,0,0,6.924-1.847,42.927,42.927,0,0,0,5.8-5.425l6.358-6.489c2.163-2.208-1.228-5.6-3.4-3.394Z"></path><path class="c" d="M131.613,229.114c.679-1.166,1.308-2.36,2-3.52.161-.272.326-.542.5-.807a5.988,5.988,0,0,0,.493-.712c-.05.112-.29.343-.08.116.092-.1.18-.2.273-.3.249-.268.5-.533.752-.8.851-.9,1.711-1.791,2.611-2.642q.636-.6,1.3-1.17.356-.3.718-.6c.1-.08.2-.158.3-.237.506-.4-.4.3.13-.1a2.623,2.623,0,0,0,1.1-1.435,2.452,2.452,0,0,0-.242-1.849,2.423,2.423,0,0,0-3.283-.861,48.719,48.719,0,0,0-6.028,5.494,19.238,19.238,0,0,0-2.537,3.226c-.751,1.236-1.419,2.521-2.148,3.77a2.4,2.4,0,0,0,4.145,2.423Z"></path><path class="c" d="M141.242,229.336c.387-.616.812-1.207,1.255-1.783l-.375.486a45.807,45.807,0,0,1,4.3-4.735,2.4,2.4,0,1,0-3.394-3.4,38.915,38.915,0,0,0-5.931,7,2.422,2.422,0,0,0,.861,3.283,2.45,2.45,0,0,0,3.284-.861Z"></path><path class="c" d="M204.7,110.03a24.045,24.045,0,0,0-12.092,11.608c-3.022,5.925-4.037,12.517-5,19.024-.935,6.354-1.923,12.693-5.493,18.176a90.445,90.445,0,0,1-5.684,7.376q-2.9,3.581-5.688,7.248c-3.824,5-7.576,10.08-11.008,15.36a2.442,2.442,0,0,0,.375,2.908c2.638,2.879,5.362,5.678,8.083,8.479q2.279,2.344,4.548,4.695c.791.822,1.485,1.717,2.72,1.769a7.01,7.01,0,0,0,1.5-.15,26.925,26.925,0,0,0,6.613-2.474,83.84,83.84,0,0,0,8.2-4.491,82.325,82.325,0,0,0,7.706-5.462,35.5,35.5,0,0,0,7.743-7.719c4.635-6.836,8.988-13.87,13.083-21.042q6.956-12.183,12.862-24.924a2.468,2.468,0,0,0-.861-3.283,2.419,2.419,0,0,0-3.283.861,333.1,333.1,0,0,1-18.837,34.971q-2.583,4.174-5.291,8.272c-.805,1.22-1.572,2.509-2.48,3.656a26.027,26.027,0,0,1-3.307,3.324,75.891,75.891,0,0,1-12.261,8.694,71.551,71.551,0,0,1-7.249,3.706,25.691,25.691,0,0,1-2.6.961c-.35.1-.711.171-1.061.274-.179.052-.571.037.066.006-.182.009-.358.026-.541.02l1.7.7c-4.547-4.749-9.211-9.392-13.654-14.24l.375,2.908c2.889-4.443,6.015-8.735,9.2-12.971,3.6-4.789,7.484-9.346,11.113-14.108a36.188,36.188,0,0,0,4.823-8.2,43.684,43.684,0,0,0,2.451-9.078c1.132-6.45,1.634-13.052,3.788-19.28,1.831-5.3,5.344-10.73,10.719-12.952a2.48,2.48,0,0,0,1.677-2.952,2.416,2.416,0,0,0-2.953-1.677Z"></path><path class="c" d="M191.006,82.579a224.712,224.712,0,0,0-12.458,24.469,76.611,76.611,0,0,0-4.866,13.293c-1.41,6.136.52,12.276,1.79,18.274l4.4,20.785c.64,3.02,5.268,1.742,4.629-1.276l-3.789-17.885q-.946-4.471-1.894-8.943c-.578-2.732-1.187-5.507-.781-8.311.63-4.34,2.566-8.685,4.3-12.694,1.828-4.239,3.82-8.407,5.9-12.528,2.179-4.319,4.448-8.6,6.916-12.762,1.579-2.663-2.569-5.08-4.145-2.422Z"></path><path class="c" d="M194.844,194.273a11.234,11.234,0,0,0,1.239,4.225,38.061,38.061,0,0,0,2.595,4.912,32.845,32.845,0,0,0,3.976,5.281,11.616,11.616,0,0,0,5.4,3.383c11.332,3.369,22.767,6.425,34.35,8.807a209.965,209.965,0,0,0,35.086,4.533c2.311.078,4.884.415,7.042-.606a6.487,6.487,0,0,0,3.38-4.351c1.156-4.472-.472-9.133-1.28-13.506a96.628,96.628,0,0,0-3.6-13.165,91.368,91.368,0,0,0-3.49-9.391,2.419,2.419,0,0,0-3.283-.861,2.455,2.455,0,0,0-.861,3.284c.041.088.241.544.054.112-.2-.457.081.207.125.315.22.551.431,1.1.641,1.66q.848,2.251,1.63,4.528c1.284,3.712,2.494,7.465,3.429,11.281.428,1.747.726,3.518,1.129,5.269a37.716,37.716,0,0,1,1.035,6.122c.032.515.047,1.032.033,1.548-.006.2-.052.9-.033.765a3.73,3.73,0,0,1-.6,1.795,1.106,1.106,0,0,1-.6.366,12.5,12.5,0,0,1-3.01.083c-21.794-.47-43.359-5.592-64.225-11.562q-2.108-.6-4.212-1.223a10.281,10.281,0,0,1-3.261-1.2c-.341-.249.2.168-.138-.108-.215-.174-.419-.362-.621-.551-.356-.334-.695-.685-1.023-1.047a23,23,0,0,1-1.859-2.361,39.5,39.5,0,0,1-3.11-5.335c-.19-.394-.376-.792-.547-1.195.146.345-.039-.1-.071-.191-.064-.167-.128-.333-.188-.5-.111-.314-.2-.631-.292-.949-.222-.735-.028.33-.032-.161-.029-3.087-4.829-3.094-4.8,0Z"></path><path class="c" d="M209.541,89.53a144.736,144.736,0,0,0-15.25-7.81,2.464,2.464,0,0,0-3.283.861,2.426,2.426,0,0,0,.861,3.284,144.643,144.643,0,0,1,15.25,7.81,2.4,2.4,0,0,0,2.422-4.145Z"></path><path class="c" d="M229.373,274.833c.769.17,1.538.345,2.3.531a1.812,1.812,0,0,0,.957.042,1.786,1.786,0,0,0,.892-.284,2.7,2.7,0,0,0,1.1-1.435l.086-.638a2.4,2.4,0,0,0-.328-1.211l-.375-.486a2.407,2.407,0,0,0-1.059-.617q-1.149-.278-2.3-.53a1.812,1.812,0,0,0-.957-.043,1.774,1.774,0,0,0-.892.285,2.677,2.677,0,0,0-1.1,1.434l-.086.638a2.385,2.385,0,0,0,.328,1.211l.375.486a2.387,2.387,0,0,0,1.059.617Z"></path><path class="c" d="M156.754,101.067c2.008-.328,4.147-.535,6.038.382a11.118,11.118,0,0,1,4.248,4.292c1.272,2,2.374,4.109,3.576,6.151,1.348,2.291,2.719,4.569,4.02,6.887,1.512,2.694,5.66.277,4.145-2.423-1.429-2.545-2.941-5.041-4.416-7.559a78.083,78.083,0,0,0-4.137-6.882,14.262,14.262,0,0,0-6.2-5.134c-2.774-1.1-5.675-.811-8.546-.342a2.417,2.417,0,0,0-1.676,2.952,2.457,2.457,0,0,0,2.952,1.676Z"></path><path class="c" d="M130.468,91.429a12.9,12.9,0,0,0,4.765-1.716,8.117,8.117,0,0,0,2.607-2.459,2.421,2.421,0,0,0-.861-3.283,2.451,2.451,0,0,0-3.284.861c-.054.085-.113.166-.175.246l.376-.486a5.5,5.5,0,0,1-.951.922l.486-.375a8.825,8.825,0,0,1-1.92,1.1l.573-.242a12.668,12.668,0,0,1-2.892.807,2.4,2.4,0,0,0-1.434,1.1,2.453,2.453,0,0,0-.242,1.849,2.426,2.426,0,0,0,1.1,1.434l.573.242a2.4,2.4,0,0,0,1.276,0Z"></path><path class="c" d="M130.306,65.247c-.1,1.666,1.026,5.185,3.9,4.836,3.7-.889,2.9-5.273,1.181-7.021C133.981,61.63,130.819,61.637,130.306,65.247Z"></path><path class="c" d="M187.26,131.232q.041.6.08,1.2l4.1-1.7c-2.758-3.545-2.491-8.921-2.123-13.132a33.326,33.326,0,0,1,4.217-13.24,22.569,22.569,0,0,1,1.589-2.448c.225-.305-.242.275.184-.226.185-.217.366-.436.556-.65q.64-.72,1.345-1.382a22.092,22.092,0,0,1,7.02-4.359,37.838,37.838,0,0,1,14.5-2.166c3.09.069,3.089-4.731,0-4.8-8.687-.193-17.766,1.577-24.434,7.5-5.788,5.138-8.793,13.216-9.666,20.718-.7,6.043-.446,12.608,3.423,17.583,1.271,1.635,4.232.268,4.1-1.7q-.04-.6-.08-1.2a2.458,2.458,0,0,0-2.4-2.4,2.421,2.421,0,0,0-2.4,2.4Z"></path><path class="c" d="M203.737,115.819c-.282.224.418-.277.5-.332.307-.195.623-.378.943-.551a19.576,19.576,0,0,1,1.936-.92,33.435,33.435,0,0,1,5.224-1.615,22.863,22.863,0,0,1,4.836-.632,10.473,10.473,0,0,1,4.044.754c2.882.972,4.3,2.633,5.665,5.456,2.093,4.332,3.251,9.052,5.306,13.406,2.283,4.837,5.779,8.973,9.449,12.814,2.138,2.238,5.529-1.159,3.394-3.394a45.605,45.605,0,0,1-8.7-11.842c-2.151-4.566-3.3-9.548-5.622-14.043a13.6,13.6,0,0,0-7.764-6.868,19.827,19.827,0,0,0-11.043-.46c-4.057.816-8.293,2.234-11.566,4.833a2.414,2.414,0,0,0,0,3.394,2.458,2.458,0,0,0,3.394,0Z"></path><path class="c" d="M227.393,148.139c5.551,4.332,13.169,5.3,20.007,5.293,3.088,0,3.094-4.8,0-4.8a41.007,41.007,0,0,1-9.933-1.061q-1.062-.261-2.105-.6-.5-.161-.985-.342c-.131-.049-.846-.336-.589-.225a17.559,17.559,0,0,1-1.789-.9q-.384-.22-.755-.463c-.132-.086-.82-.586-.457-.3a2.48,2.48,0,0,0-3.394,0,2.415,2.415,0,0,0,0,3.394Z"></path><path class="c" d="M222.362,159.816A85,85,0,0,0,252.18,163.5a2.457,2.457,0,0,0,2.4-2.4,2.421,2.421,0,0,0-2.4-2.4,80.99,80.99,0,0,1-28.542-3.514c-2.968-.879-4.236,3.752-1.276,4.628Z"></path><path class="c" d="M218.728,90.741c-17.887-.47-24.813,7.866-27.365,12.593a35,35,0,0,0-4.553,15.786c-.26,5.3.085,11.127,4.33,14.755a47.473,47.473,0,0,1,2.367-8.427,24.652,24.652,0,0,1,8.524-11.328c3.617-2.95,13.478-5.665,17.988-4.461,4.963,1.325,6.925,2.793,9.1,7.446s3.374,9.732,5.75,14.287a49.557,49.557,0,0,0,8.456,11.1C235.143,125.35,226.3,106.927,218.728,90.741Z"></path><path class="c" d="M247.392,151.017c-7.832.032-14.6-1.641-18.306-4.575L223,157.5a80.86,80.86,0,0,0,29.18,3.592Q249.865,156.207,247.392,151.017Z"></path><path class="c" d="M355.655,134.886c-7.99-17.058-16.181-34.02-24.279-51.027-2.081-4.371-4.278-8.71-6.233-13.139-.218-.493-.353-.657.01-1.035a5.053,5.053,0,0,1,.764-.395,5.386,5.386,0,0,0,1.274-1.114c1.6-1.92,1.423-4.156.425-6.291-2.3-4.928-4.692-9.817-7.029-14.729q-.789-1.656-1.575-3.313a8.586,8.586,0,0,0-1.96-3.08,5.465,5.465,0,0,0-5.95-.661c-7.855,3.336-15.681,6.741-23.516,10.122Q269.53,58.016,251.474,65.8q-15.49,6.675-31,13.3c-2.506,1.066-5.395,1.848-6.225,4.811-.626,2.235.632,4.238,1.542,6.188q1.32,2.829,2.648,5.654,5.708,12.146,11.5,24.251c7.552,15.832,15.16,31.637,22.626,47.51q2.4,5.1,4.763,10.2a29.768,29.768,0,0,0,2.178,4.537,5.284,5.284,0,0,0,6.052,1.951c2.38-.85,4.7-1.982,7.023-2.973q3.939-1.68,7.872-3.37,19.782-8.5,39.524-17.086c11.486-4.975,22.964-9.969,34.484-14.863a5.389,5.389,0,0,0,3.47-4.546c.185-2.259-1.35-4.514-2.275-6.49a2.419,2.419,0,0,0-3.283-.861,2.454,2.454,0,0,0-.861,3.284c.476,1.017.982,2.025,1.427,3.056.211.489.366.675-.037,1.024a5.724,5.724,0,0,1-1.432.63l-1.69.72q-3.592,1.533-7.179,3.078-8.74,3.757-17.468,7.542-19.512,8.445-39.024,16.889-8.137,3.51-16.288,6.991-1.642.7-3.288,1.4l-.789.334-.283.119a5.668,5.668,0,0,1-1.546.633c-.882.013-1.511-2.4-1.844-3.124q-1.053-2.283-2.115-4.563c-6.9-14.824-13.985-29.563-21.035-44.317q-5.673-11.87-11.317-23.752-2.729-5.757-5.438-11.523-1.279-2.724-2.552-5.452c-.186-.4-.868-1.4-.738-1.8s.6-.487.981-.65c9.125-3.937,18.278-7.808,27.407-11.737q17.65-7.6,35.29-15.22,13.584-5.862,27.171-11.713c1.207-.518,2.407-1.055,3.623-1.55.231-.094.307-.013.107-.025.125.007.3-.079.4.034a10.782,10.782,0,0,1,1.328,2.594q1.633,3.441,3.273,6.878,1.653,3.463,3.308,6.927c.534,1.118,1.085,2.228,1.6,3.353.245.533.474.779.021,1.155-.476.4-1.168.593-1.655,1.064a5.3,5.3,0,0,0-1.545,3.081c-.315,2.274,1.1,4.368,2.035,6.346,8,16.9,16.115,33.733,24.124,50.623q2.593,5.472,5.166,10.956a2.42,2.42,0,0,0,3.283.861A2.454,2.454,0,0,0,355.655,134.886Z"></path><path class="c" d="M236.675,107.987c9.7-4.042,19.337-8.261,28.982-12.443q17.78-7.709,35.553-15.426,3.846-1.663,7.7-3.32,1.557-.669,3.115-1.334l1.342-.572.615-.261c.17-.072.925-.391.183-.077a2.483,2.483,0,0,0,1.676-2.953,2.414,2.414,0,0,0-2.952-1.676c-9.492,4-18.928,8.138-28.377,12.24q-17.854,7.752-35.717,15.481-3.937,1.7-7.88,3.382-1.614.688-3.23,1.373l-.325.137c-.284.12.437-.184.021-.009l-.676.285-1.3.544a2.479,2.479,0,0,0-1.676,2.952,2.415,2.415,0,0,0,2.952,1.677Z"></path><path class="c" d="M248.574,95.879c1.393,3.061,2.762,6.112,4.4,9.054a2.423,2.423,0,0,0,3.283.861,2.448,2.448,0,0,0,.861-3.284c-1.637-2.942-3.006-5.993-4.4-9.054a2.413,2.413,0,0,0-1.435-1.1,2.4,2.4,0,0,0-2.71,3.526Z"></path><path class="c" d="M293.787,76.786c1.321,2.9,2.62,5.8,4.174,8.591a2.4,2.4,0,1,0,4.144-2.422c-1.553-2.792-2.852-5.687-4.174-8.592a2.408,2.408,0,0,0-1.434-1.1,2.4,2.4,0,0,0-2.71,3.526Z"></path><path class="c" d="M154.033,96.453c2.7-14.37,3.354-30.813-.9-44.563a58.952,58.952,0,0,0,7.281-1.46c2.49,14.736,1.43,41.941-3.87,50.712l-3.61.6Q153.524,99.156,154.033,96.453Z"></path><path class="c" d="M158.1,51.07a114.018,114.018,0,0,1,1.167,20.415A104.38,104.38,0,0,1,157.132,92.3a42.632,42.632,0,0,1-1.222,4.43c-.114.332-.235.662-.358.99-.053.141-.109.28-.165.419.127-.315.017-.033-.056.125a18.051,18.051,0,0,1-.863,1.67l1.434-1.1-3.61.6,2.952,2.952c3.773-16.541,5.225-34.685.2-51.126-.9-2.946-5.535-1.689-4.628,1.276,4.776,15.628,3.386,32.848-.2,48.574a2.435,2.435,0,0,0,2.952,2.952c1.134-.188,2.311-.3,3.427-.569,1.692-.41,2.338-2.418,2.936-3.871a45.176,45.176,0,0,0,2.562-9.84A133.231,133.231,0,0,0,164,63.426a105.024,105.024,0,0,0-1.28-13.632,2.419,2.419,0,0,0-2.952-1.676A2.456,2.456,0,0,0,158.1,51.07Z"></path><path class="c" d="M172.838,1.954a66.172,66.172,0,0,0-7.3.79q-3.693.694-7.386,1.388A67.894,67.894,0,0,0,143.465,8.2c-8.615,3.758-15.23,11.3-21.263,18.272a58.36,58.36,0,0,0-7.857,11.061,36.279,36.279,0,0,0-2.561,6.224c-.63,2.088-1.367,4.515-.758,6.68,1.539,5.473,7.855,4.753,12.306,4.789,5.246.043,10.491-.043,15.736-.073,7.372-.042,14.856-.491,22-2.42a88.958,88.958,0,0,0,17.188-7.176c3.575-1.831,7.127-3.7,10.708-5.523,1.822-.924,3.965-1.665,5.508-3.032a12.1,12.1,0,0,0,3.031-4.948,19.024,19.024,0,0,0,1.137-6.2,7.484,7.484,0,0,0-.111-2.259c.048.139-.131.446.028-.091.077-.264.152-.524.242-.783a10.133,10.133,0,0,1,.584-1.3c.347-.7.72-1.381,1.1-2.059.846-1.5,1.744-2.966,2.64-4.435a58.08,58.08,0,0,0,4.74-8.548,4.632,4.632,0,0,0-1.8-5.713c-1.405-.877-3.159-.664-4.738-.61-7.663.26-15.319.9-22.964,1.474l-5.528.418a2.459,2.459,0,0,0-2.4,2.4,2.419,2.419,0,0,0,2.4,2.4c7.379-.557,14.757-1.138,22.144-1.578,1.623-.1,3.247-.186,4.871-.257.658-.028,1.317-.054,1.976-.073.383-.012,1.437.163,1.761-.035.05-.029.137-.028.017.008-.606.18.424-.951-.208-.093-.017.022-.139.346-.039.1.111-.276-.074.159-.1.218-.16.327-.315.656-.482.98-.659,1.28-1.391,2.522-2.131,3.757-1.65,2.753-3.4,5.453-4.915,8.285a22.809,22.809,0,0,0-1.649,3.66,10.239,10.239,0,0,0-.234,3.592A14.831,14.831,0,0,1,193,30.448a9.984,9.984,0,0,1-.95,2.01c-.1.165-.374.554-.4.587a4.749,4.749,0,0,1-.372.392c-.549.518.132-.051-.2.165a61.2,61.2,0,0,1-5.611,2.843q-2.592,1.323-5.174,2.669c-5.3,2.75-10.667,5.649-16.073,7.6A62.087,62.087,0,0,1,146.991,50.1c-4.141.268-8.276.184-12.42.266q-7.572.149-15.147.013c-1.286-.023-3.463.3-3.81-1.376a5.563,5.563,0,0,1,.329-2.221,29.759,29.759,0,0,1,.9-3.067,38.393,38.393,0,0,1,5.807-10.25,118.281,118.281,0,0,1,8.243-9.418,60.255,60.255,0,0,1,9.491-8.638c7.731-5.319,17.422-6.345,26.424-8.036a54.733,54.733,0,0,1,6.028-.619,2.459,2.459,0,0,0,2.4-2.4A2.419,2.419,0,0,0,172.838,1.954Z"></path><path class="c" d="M136.372,34.137a47.26,47.26,0,0,1,6.367-5.992q.441-.359.889-.711c.053-.042.538-.422.272-.215s.291-.221.342-.26q.836-.633,1.691-1.239a29.82,29.82,0,0,1,2.951-1.882,2.422,2.422,0,0,0,.861-3.284,2.451,2.451,0,0,0-3.284-.861,47.093,47.093,0,0,0-6.968,4.938,47.532,47.532,0,0,0-6.515,6.112,2.4,2.4,0,0,0,3.394,3.394Z"></path><path class="c" d="M156.672,20.717a19.676,19.676,0,0,1,3.754-.889l-.638.086q.609-.08,1.219-.122a2.553,2.553,0,0,0,1.7-.7,2.4,2.4,0,0,0,0-3.394,2.381,2.381,0,0,0-1.7-.7,22.034,22.034,0,0,0-5.611,1.1,2.555,2.555,0,0,0-1.434,1.1,2.4,2.4,0,0,0,.861,3.284,2.392,2.392,0,0,0,1.849.242Z"></path></svg>