<svg xmlns="http://www.w3.org/2000/svg" viewBox="0 0 512 512">
  <defs>
    <style>
      .cls-1 {
        fill: #faf7eb;
      }

      .cls-2 {
        fill: #625850;
      }

      .cls-3 {
        fill: #584f49;
      }

      .cls-4 {
        fill: #f4ebc2;
      }

      .cls-5 {
        fill: #f2e74b;
      }

      .cls-6 {
        fill: #f0d8b2;
      }

      .cls-7 {
        fill: #534740;
      }

      .cls-8 {
        fill: #776e64;
      }

      .cls-9 {
        fill: #96897b;
      }

      .cls-10 {
        fill: #6c6460;
      }

      .cls-11 {
        fill: #4c423c;
      }

      .cls-12 {
        fill: #6b6057;
      }

      .cls-13 {
        fill: #c7b294;
      }

      .cls-14 {
        font-size: 25px;
        font-family: TsukuARdGothicStd-R-90ms-RKSJ-H, FOT-TsukuARdGothic Std;
      }

      .cls-15 {
        letter-spacing: 0.25em;
      }
    </style>
  </defs>
  <g id="レイヤー_1" data-name="レイヤー 1">
    <g>
      <path class="cls-1" d="M309.058,256.563c-3.268,1.938-7.076,3.78-1.3,7.318l.208-.177c-6.966-6.937-8.64,1.067-10.865,4.414-18.619,28.007-21.368,29.031-52.521,17.585q.19-2.85.383-5.7c14.009-12.688,13.775-13.418-.192-24.2-4.021-3.1-8.39-3.674-12.6-5.452-12.1-5.117-29.482-5.252-26.6-26.175.661-4.8-3.595-7.705-8.281-7.557-9.8.31-19.864-2.532-29.352,2.111-10.361.118-6.988,7.484-5.8,12.377,3.4,13.95,10.649,27.648-.309,41.562-1.316,1.67.767,3.845,2.669,5.025q-1.393,2.664-2.788,5.327c-4.127-.843-6.843-.035-6.813,5.026.028,4.732-1.484,8.869-6.057,11.237-14.09-1.878-27.164,1.274-39.29,8.367-9.89,5.785-15.525,16.822-12.63,23.892-1.219,18.966,1.016,36.48,19.792,47.037,8.578,13.9,36.858,23.363,57.2,19.134l3.96.073c17.6,2.8,34.678,2.817,49.43-9.386,13.469-.514,21.131-12.819,33.135-16.307,19.326-1.158,38.4-4.467,58.044-.467,28,5.7,56.27,12.52,85,3.454,17.765-3.052,26.039-14.734,28.686-31.532,2.558-4.466,1.608-8.6-.142-13.282-5.2-13.911-17.282-17.8-29.514-22.422-5.843-2.207-15.873-.573-15.088-11.788,5.634-11.537-.281-20.513-6.526-29.416.174-4.134-.5-7.437-5.945-6.032l.1.143.041-29.353c5.032-8.919,4.843-14.683-7.674-15.552-10.28-.713-20.452-2.985-30.671-4.566-5.869,1.148-6.25,5.281-6.569,10.355-.612,9.757-2.143,19.458-3.293,29.182C320.236,250.512,314.043,251.665,309.058,256.563Zm100.481,1.307c12.422-4.124,19.5-9.83,25.746-16.73,2.073-2.292,4.15-5.346.81-8.236-2.613-2.262-4.754-.191-6.868,1.421C422.155,239.721,414.958,244.984,409.539,257.87Zm1.328,29.146c9.306,7.65,17.252,11.13,25.862,13.114,3.007.693,6.814.6,7.752-3.314.718-2.993-1.974-4.387-4.5-5.513C431.851,287.67,423.707,284.242,410.867,287.016ZM76.773,318.387c-9.2-2.772-11.968,5.5-17.083,9.008-3.4,2.336-6.36,7.056-3.113,10.788,4.66,5.354,6.9-1.458,9.641-3.557C71.489,330.6,75.589,325.529,76.773,318.387Zm335.454-46.494c10.776,2.951,17.32-3.349,24.321-7.644,2.1-1.289,3.7-4,2.143-6.752-2.379-4.205-5.245-1.329-7.832-.1C423.993,260.655,417.6,264.545,412.227,271.893Z"/>
      <path class="cls-2" d="M46.854,302.169c7.9-6.351,18.028-6.729,28.3-11.929-4.818,15.866-19.114,15.165-28.3,21.481Z"/>
      <path class="cls-3" d="M46.854,267.144c9.829-1.489,18.331,2.739,27,6.264,3.244,1.321,5.727,3.737,4.5,7.186-1.365,3.827-5.189,2.92-8.051,1.9-7.881-2.805-15.636-5.964-23.441-8.983Z"/>
      <g>
        <path class="cls-4" d="M177.886,397.784l-3.959-.073c-19.146-6.141-38.867-10.566-57.2-19.134-18.776-10.557-21.011-28.071-19.789-47.028,11.894-19.51,31.285-24.552,52.053-26.935,5.2,4.4.551,12.4,6.085,16.676.111,5.272-1.761,11.531,6.377,12.81,11.453,14.489,18.219,15.04,41.065,3.346,3.68,6.658,9.516,8.276,15.464,4.418,8.06-5.227,5.918-13.167,3.424-20.694.868-1.75,2.121-5.118,2.549-5.016,15.284,3.633,15.25-6.03,14.121-16.263-.554-5.014-.271-8.463,6.139-6.917,10.647,8.635,23.528,12.207,35.132,5.743,13.115-7.3,27.686-7.137,40.953-12.343,2.14,7.723-3.421,14.043-3.9,21.362-.358,5.449-5.422,11.888.732,15.865,6.575,4.251,9.358-4.851,15.467-6.791.314,6.339,5.836,13.675,9.483,10.559,7.784-6.65,22.935,2.27,25.468-12.893l.28-1.157-.962-.7c2.4-.641,1.816-2.384,1.493-4.032,13.095,3.369,26.587,5.689,39.164,10.431,10.469,3.948,19.178,11.256,18.7,24.523-6.139,12.353-13.718,23.258-27.8,27.623-31.967,2.258-62.8-7.723-94.376-8.786-14.91-.5-31.739-5.253-43.6,9.715-12,3.488-19.666,15.793-33.127,16.305-7.851-.66-15.461.992-23.161,1.82C194.623,391.242,188.039,400.7,177.886,397.784Z"/>
        <path class="cls-5" d="M181.738,401.338a16.691,16.691,0,0,1-4.282-.563l-4.025-.073-.42-.135c-5.57-1.786-11.3-3.459-16.845-5.077-13.538-3.953-27.537-8.039-40.711-14.195l-.2-.1C94.4,369.466,92.777,349.419,93.941,331.356l.048-.737.385-.631c12.746-20.909,33.618-25.984,54.273-28.354l1.291-.149.99.84c3.537,3,3.774,7.07,3.964,10.344.181,3.135.365,4.97,2.017,6.248l1.135.877.029,1.434c.021.961-.017,1.921-.054,2.849-.195,4.867-.068,6.436,3.9,7.059l1.159.182.729.921c9.875,12.493,14.506,14.226,37.343,2.536l2.587-1.325,1.407,2.544c1.447,2.62,3.259,4.267,5.239,4.763,1.821.455,3.825-.021,5.967-1.409,5.542-3.6,5.128-8.422,2.209-17.235l-.388-1.171.548-1.105c.258-.521.551-1.193.845-1.866,1.316-3.008,2.354-5.378,5.084-4.737,3.1.738,7.188,1.262,9.084-.414,2.205-1.947,1.958-7.206,1.363-12.6-.36-3.251-.533-6.905,1.964-9.1,2.632-2.32,6.565-1.373,7.859-1.059l.659.158.528.428c6.321,5.127,18.857,12.654,31.782,5.453,7.992-4.451,16.413-6.246,24.557-7.983a105.383,105.383,0,0,0,16.76-4.533l3.1-1.215.888,3.206c1.543,5.568-.224,10.449-1.784,14.756a28.517,28.517,0,0,0-2.014,7.605,25.359,25.359,0,0,1-1.267,5.691c-1.414,4.633-1.494,6.083.633,7.458,1.819,1.176,2.587.878,5.867-2.267,1.915-1.836,4.086-3.919,7.065-4.864l3.711-1.178.193,3.889c.218,4.406,3.32,8.244,4.514,8.441,3.88-3.287,8.813-3.539,13.166-3.761,6.652-.34,10-.782,11.2-6.754l-4.451-3.248,5.531-1.479c-.02-.095-.039-.188-.056-.271l-1.006-5.1,4.61,1.186c3.921,1.008,7.963,1.942,11.873,2.844,9.163,2.117,18.638,4.305,27.6,7.686,13.96,5.263,21.1,14.75,20.642,27.436l-.024.648-.288.58c-5.8,11.678-13.857,24.274-29.6,29.153l-.331.1-.346.024c-18.836,1.33-37.425-1.535-55.4-4.3-12.864-1.984-26.167-4.035-39.288-4.476-2.678-.09-5.434-.315-8.1-.533-12.475-1.019-24.256-1.982-33.044,9.113l-.595.75-.92.268c-4.644,1.349-8.659,4.222-12.91,7.264-6.066,4.341-12.339,8.83-20.94,9.159l-.184.006-.183-.015c-5.457-.46-10.795.266-16.444,1.036-2,.272-4.077.555-6.144.776-3.344.361-6.4,2.015-9.64,3.766C191,399.044,186.755,401.338,181.738,401.338Zm-7.316-6.618,3.913.071.38.108c4.786,1.376,8.721-.751,13.273-3.213,3.606-1.95,7.335-3.966,11.854-4.453,1.982-.213,4.012-.49,5.975-.756,5.663-.772,11.519-1.569,17.566-1.085,6.719-.317,11.958-4.067,17.5-8.035,4.227-3.026,8.592-6.149,13.809-7.863,10.72-12.833,25-11.666,37.639-10.633,2.715.222,5.279.431,7.814.517,13.479.453,26.961,2.531,40,4.541,17.535,2.7,35.657,5.5,53.713,4.274,13.087-4.192,19.966-14.622,25.377-25.395.1-9.682-5.539-16.737-16.777-20.975-8.589-3.238-17.864-5.381-26.836-7.452-2.73-.631-5.525-1.276-8.312-1.955a4.43,4.43,0,0,1-.388.849l-.44,1.816c-1.973,11.49-10.6,11.931-16.907,12.253-3.742.191-7.276.372-9.553,2.316a5.956,5.956,0,0,1-6.439.9c-3.016-1.3-5.742-4.913-7.1-9-.566.492-1.133,1.036-1.711,1.59-2.867,2.748-7.195,6.9-13.277,2.975-6.233-4.028-4.356-10.179-3.115-14.248a20.9,20.9,0,0,0,1.019-4.334,33.392,33.392,0,0,1,2.36-9.254,26.7,26.7,0,0,0,2.015-7.828,138.917,138.917,0,0,1-14.085,3.524c-8.066,1.721-15.684,3.345-22.888,7.358-11.524,6.42-25.311,4.377-37.919-5.585a4.809,4.809,0,0,0-1.847-.109c-.123.31-.279,1.23.017,3.917.753,6.821,1.113,13.809-3.353,17.754-2.761,2.441-6.789,3.168-12.268,2.207-.136.3-.268.606-.375.852-.146.333-.292.666-.435.984,2.144,6.584,4.811,16.651-5.012,23.022-3.545,2.3-7.242,3.057-10.688,2.2a13.519,13.519,0,0,1-7.459-5.239c-20.4,10.164-29.377,10.621-41.667-4.5-8.22-1.893-7.944-8.8-7.776-13,.017-.42.034-.828.043-1.226-2.775-2.9-2.989-6.573-3.165-9.6-.135-2.351-.278-4.021-1.079-5.244-21.125,2.578-37.4,7.942-47.939,24.714-1,16.739.66,33.491,18.216,43.42,12.727,5.935,26.463,9.945,39.749,13.823C163.289,391.318,168.911,392.96,174.422,394.72Z"/>
      </g>
      <path class="cls-6" d="M161.723,283.019q1.395-2.664,2.788-5.328c11.935-9.227,14.31-20.846,9.279-34.753-2.824-7.807-6.656-15.482-5.842-24.211,9.488-4.643,19.553-1.8,29.352-2.111,4.686-.148,8.942,2.762,8.281,7.557-2.885,20.923,14.493,21.058,26.6,26.175,4.208,1.778,8.577,2.348,12.6,5.452,13.967,10.784,14.2,11.514.192,24.2l-6.493-10.9c-.635-4.15-2.687-6.642-7.246-5.99-4.217.6-6.663,2.613-5.4,7.31-.414,8.236-2.243,16.527,2.5,24.368a4.771,4.771,0,0,1-1.951,6.712c-2.352,1.133-3.619-.768-4.562-2.822-1.282-2.793-2.5-6.431-6.528-5.058-4.595,1.564-3.525,5.96-3.267,9.443.459,6.2-.427,12.719,3.506,18.27-2.174,4.559,1.941,13.822-8.9,11.9-2.085-7.422-4.413-14.787-6.162-22.288-1.025-4.4-2.787-8.213-7.337-8.81-6.6-.868-6.945,4.553-7.713,9.158l-5.033.573c-12.632-3.7-9.21,5.332-8.806,11.423.844,12.7-4.307,4.653-7.836,2.39C157.549,311.719,162.644,297.227,161.723,283.019Z"/>
      <path class="cls-6" d="M380.911,266.638c6.245,8.9,12.16,17.879,6.527,29.417-4.6-1.369-6.741,8.356-9.355,4.346-12.538-19.225-14.049-1.1-19.144,5.049l-2.1-3.755c-1.794-3.5-3.65-3.4-5.562-.1-3.56.4-7.793,1.948-8.166-3.956-.439-6.947-4.9-5.277-9.051-4.443q-.78-.795-1.551-1.6c-.674-6.913,6.154-15.092-1.775-20.5-4.891-3.339-10.009.7-14.028,4.436-4.6,2.013-9.292,9.21-13.324,5.8-6.089-5.153,2.805-9.532,4.1-14.606.251-.985.333-2.013.493-3.022l-.207.177c2.967.785,4.84-1.066,6.761-2.8l12.713-3.989c4.3,0,7.58-2.261,6.82-6.4-2.467-13.448,2.983-26.209,2.7-39.407,10.219,1.581,20.391,3.853,30.671,4.566,12.517.869,12.706,6.633,7.674,15.556-4.989,9.778-13.7,19.548-.041,29.349l-.1-.143C374.6,264.934,376.908,266.619,380.911,266.638Z"/>
      <path class="cls-3" d="M260.451,372.091c11.858-14.968,28.687-10.218,43.6-9.715,31.577,1.063,62.409,11.044,94.38,8.793q2.538,1.961,5.067,3.909c-28.73,9.066-57,2.247-85-3.454C298.855,367.624,279.777,370.933,260.451,372.091Z"/>
      <path class="cls-2" d="M307.971,263.7c-.16,1.009-.242,2.037-.493,3.022-1.291,5.074-10.185,9.453-4.1,14.606,4.032,3.413,8.728-3.784,13.325-5.8-4.253,5.418,18.2,1.992,3.591,10.838-13.267,5.206-27.838,5.039-40.953,12.343-11.6,6.464-24.485,2.892-35.132-5.743l.372-7.271c31.153,11.446,33.9,10.422,52.521-17.585C299.331,264.771,301.005,256.767,307.971,263.7Z"/>
      <path class="cls-3" d="M358.939,305.45c5.095-6.152,6.606-24.274,19.144-5.049,2.614,4.01,4.751-5.715,9.355-4.346-.786,11.214,9.244,9.58,15.087,11.787,12.232,4.62,24.318,8.511,29.514,22.422,1.75,4.686,2.7,8.816.142,13.282l-5.958-.007c.476-13.267-8.233-20.575-18.7-24.523-12.577-4.742-26.069-7.062-39.164-10.431l-1.493,4.032.962.7s-.28,1.157-.294,1.134C364.34,311.741,358.908,311.2,358.939,305.45Z"/>
      <path class="cls-7" d="M244.585,285.7l-.372,7.271c-6.41-1.546-6.693,1.9-6.139,6.917,1.129,10.233,1.163,19.9-14.121,16.263-.428-.1-1.681,3.266-2.549,5.016l-5.88.167c-3.933-5.551-3.047-12.07-3.506-18.27-.258-3.483-1.328-7.879,3.267-9.443,4.031-1.373,5.246,2.265,6.528,5.058.943,2.054,2.21,3.955,4.562,2.822a4.771,4.771,0,0,0,1.951-6.712c-4.744-7.841-2.915-16.132-2.5-24.368,4.189-.7,9.172,6.191,12.65-1.32l6.493,10.9Q244.776,282.852,244.585,285.7Z"/>
      <path class="cls-8" d="M148.989,304.614c-20.768,2.383-40.159,7.425-52.053,26.935-2.9-7.079,2.737-18.116,12.627-23.9,12.126-7.093,25.2-10.245,39.29-8.367Q148.922,301.948,148.989,304.614Z"/>
      <path class="cls-9" d="M116.725,378.577c18.335,8.568,38.056,12.993,57.2,19.134C153.583,401.94,125.3,392.48,116.725,378.577Z"/>
      <path class="cls-10" d="M409.539,257.87c5.419-12.886,12.616-18.149,19.688-23.545,2.114-1.612,4.255-3.683,6.868-1.421,3.34,2.89,1.263,5.944-.81,8.236C429.044,248.04,421.961,253.746,409.539,257.87Z"/>
      <path class="cls-10" d="M410.867,287.016c12.84-2.774,20.984.654,29.118,4.287,2.522,1.126,5.214,2.52,4.5,5.513-.938,3.915-4.745,4.007-7.752,3.314C428.119,298.146,420.173,294.666,410.867,287.016Z"/>
      <path class="cls-7" d="M148.989,304.614q-.068-2.666-.136-5.333c4.573-2.368,6.085-6.5,6.057-11.237-.03-5.061,2.686-5.869,6.813-5.026.921,14.209-4.174,28.7,2.012,42.662l-2.436,2.113-6.225-6.5C149.54,317.01,154.187,309.017,148.989,304.614Z"/>
      <path class="cls-2" d="M426.223,343.539l5.958.007c-2.647,16.8-10.921,28.48-28.686,31.532q-2.531-1.952-5.067-3.909C412.505,366.8,420.084,355.892,426.223,343.539Z"/>
      <path class="cls-9" d="M177.886,397.784c10.153,2.913,16.737-6.542,26.277-7.568,7.7-.828,15.31-2.48,23.161-1.82C212.564,400.6,195.49,400.588,177.886,397.784Z"/>
      <path class="cls-10" d="M76.773,318.387c-1.184,7.142-5.284,12.211-10.555,16.239-2.746,2.1-4.981,8.911-9.641,3.557-3.247-3.732-.289-8.452,3.113-10.788C64.805,323.885,67.575,315.615,76.773,318.387Z"/>
      <path class="cls-11" d="M336.76,211.278c.281,13.2-5.169,25.959-2.7,39.407.76,4.144-2.518,6.4-6.82,6.4q-.17-3.138-.34-6.275c1.15-9.724,2.681-19.425,3.293-29.182C330.51,216.559,330.891,212.426,336.76,211.278Z"/>
      <path class="cls-2" d="M412.227,271.893c5.377-7.348,11.766-11.238,18.632-14.5,2.587-1.227,5.453-4.1,7.832.1,1.554,2.747-.04,5.463-2.143,6.752C429.547,268.544,423,274.844,412.227,271.893Z"/>
      <path class="cls-9" d="M375.064,260.749c-13.655-9.8-4.948-19.571.041-29.349Q375.085,246.07,375.064,260.749Z"/>
      <path class="cls-10" d="M326.9,250.815q.169,3.138.34,6.275l-12.713,3.989-5.467-4.516C314.043,251.665,320.236,250.512,326.9,250.815Z"/>
      <path class="cls-2" d="M309.058,256.563l5.467,4.516c-1.921,1.736-3.794,3.587-6.761,2.8C301.982,260.343,305.79,258.5,309.058,256.563Z"/>
      <path class="cls-11" d="M358.939,305.45c-.031,5.754,5.4,6.291,8.593,9-2.519,15.186-17.67,6.266-25.454,12.916-3.647,3.116-9.169-4.22-9.483-10.559-6.109,1.94-8.892,11.042-15.467,6.791-6.154-3.977-1.09-10.416-.732-15.865.481-7.319,6.042-13.639,3.9-21.362,14.609-8.846-7.844-5.42-3.591-10.838,4.018-3.739,9.136-7.776,14.027-4.437,7.929,5.412,1.1,13.591,1.781,20.511-1.456.969-2.414,2.077-.446,3.374.189.125,1.305-1.156,1.991-1.784,4.149-.834,8.612-2.5,9.051,4.443.373,5.9,4.606,4.352,8.168,3.956l5.56.1Zm-10.12,5.925c-1.832-1.05-2.966-2.223-4.133-2.256-2.167-.062-3.872,1.3-2.972,3.619.339.874,2.47,1.565,3.684,1.431C346.444,314.053,347.348,312.647,348.819,311.375Z"/>
      <path class="cls-7" d="M163.735,325.68c3.529,2.263,8.68,10.313,7.836-2.39-.4-6.091-3.826-15.123,8.806-11.423,1.662,7.56.751,16.086,8.207,22.9,3.1-9.331-1.24-16.237-3.174-23.475.768-4.6,1.11-10.026,7.713-9.158,4.55.6,6.312,4.415,7.337,8.81,1.749,7.5,4.077,14.866,6.162,22.288l-4.106,4.212C179.67,349.14,172.9,348.589,161.451,334.1q-.075-3.153-.152-6.307Z"/>
      <path class="cls-12" d="M202.516,337.446l4.106-4.212c10.843,1.925,6.728-7.338,8.9-11.9l5.88-.167c2.494,7.527,4.636,15.467-3.424,20.694C212.032,345.722,206.2,344.1,202.516,337.446Z"/>
      <path class="cls-8" d="M161.3,327.793q.076,3.153.152,6.307c-8.138-1.279-6.266-7.538-6.377-12.81Z"/>
      <path class="cls-11" d="M366.864,312.617l1.493-4.032C368.68,310.233,369.262,311.976,366.864,312.617Z"/>
      <path class="cls-13" d="M185.41,311.294c1.934,7.238,6.279,14.144,3.174,23.475-7.456-6.816-6.545-15.342-8.207-22.9Z"/>
      <path class="cls-2" d="M238.475,269.1c-3.478,7.511-8.461.617-12.65,1.32-1.259-4.7,1.187-6.706,5.4-7.31C235.788,262.462,237.84,264.954,238.475,269.1Z"/>
      <path class="cls-3" d="M356.839,301.7l-5.56-.1C353.189,298.291,355.045,298.2,356.839,301.7Z"/>
      <path class="cls-3" d="M348.819,311.375c-1.471,1.272-2.375,2.678-3.421,2.794-1.214.134-3.345-.557-3.684-1.431-.9-2.317.805-3.681,2.972-3.619C345.853,309.152,346.987,310.325,348.819,311.375Z"/>
      <path class="cls-6" d="M334.06,293.2c-.686.628-1.8,1.909-1.991,1.784-1.968-1.3-1.01-2.4.446-3.374C333.023,292.138,333.54,292.67,334.06,293.2Z"/>
    </g>
  </g>
  <g id="レイヤー_4" data-name="レイヤー 4">
    <text class="cls-14" transform="translate(144.838 123.7)">もちつき！練る<tspan class="cls-15" x="175" y="0">！</tspan><tspan x="206.25" y="0">! </tspan></text>
    <text class="cls-14" transform="translate(248.762 75.425)">2</text>
    <text class="cls-14" transform="translate(236 342.357)">チーズ</text>
  </g>
</svg>
