<svg xmlns="http://www.w3.org/2000/svg" viewBox="0 0 512 512">
  <defs>
    <style>
      .cls-1 {
        fill: #2525d6;
      }

      .cls-10, .cls-11, .cls-12, .cls-13, .cls-2, .cls-5, .cls-6, .cls-7, .cls-8, .cls-9 {
        fill: none;
      }

      .cls-10, .cls-12, .cls-2, .cls-9 {
        stroke: #000;
      }

      .cls-10, .cls-11, .cls-12, .cls-13, .cls-2, .cls-5, .cls-9 {
        stroke-miterlimit: 10;
      }

      .cls-2 {
        stroke-width: 13.646px;
      }

      .cls-3 {
        fill: #fff;
      }

      .cls-4 {
        fill: #ff0;
      }

      .cls-5 {
        stroke: #ff0;
        stroke-width: 3.412px;
      }

      .cls-6, .cls-8 {
        stroke: #231815;
      }

      .cls-6 {
        stroke-width: 16.09px;
      }

      .cls-13, .cls-7 {
        stroke: #f2e530;
      }

      .cls-7 {
        stroke-width: 4.022px;
      }

      .cls-8 {
        stroke-width: 10px;
      }

      .cls-9 {
        stroke-width: 12px;
      }

      .cls-10 {
        stroke-width: 19px;
      }

      .cls-11 {
        stroke: #f2e307;
        stroke-width: 5px;
      }

      .cls-12 {
        stroke-width: 15.985px;
      }

      .cls-13 {
        stroke-width: 3.996px;
      }
    </style>
  </defs>
  <g id="レイヤー_1" data-name="レイヤー 1">
    <rect class="cls-1" width="512" height="512"/>
  </g>
  <g id="レイヤー_5" data-name="レイヤー 5">
    <g>
      <g>
        <g>
          <g>
            <path class="cls-2" d="M257.376,267.749l-5.861,2.691a.606.606,0,0,1-.713-.154c-4.649-5.532-2.456-14.6,4.681-17.92,9.372-4.355,18.923-8.328,28.4-12.455,2.183-.95,4.373-1.883,6.562-2.816l-.457-2.238H267.483a.6.6,0,0,1-.6-.585l-.011-.349a.6.6,0,0,1,.577-.622l12.039-.541a.6.6,0,0,0,.577-.593v-.012a.6.6,0,0,0-.6-.614H268.144a.6.6,0,0,1-.584-.45l-.168-.633a.6.6,0,0,1,.285-.679,6.214,6.214,0,0,1,2.384-1.064c2.945-.178,5.907-.057,8.862-.107.852-.014,1.7-.133,2.554-.231a.606.606,0,0,0,.538-.619l-.006-.2a.606.606,0,0,0-.608-.586c-2.851.017-5.711.142-8.545-.068a10.6,10.6,0,0,1-2.953-.805.6.6,0,0,1,.02-1.137,10.217,10.217,0,0,1,2.84-.67c3.835-.163,7.681-.067,11.523-.058a.607.607,0,0,0,.6-.517l.018-.124a.6.6,0,0,0-.374-.65,8.954,8.954,0,0,0-1.7-.568c-3.578-.636-7.165-1.22-10.751-1.805-2.327-.38-3.237-1.423-2.551-2.922a.624.624,0,0,1,.623-.365c9.985,1,19.6,2.309,29.259,2.783s19.365.118,28.953.106a.612.612,0,0,1,.6.5c1.2,6.8-1.333,12.312-6.99,15.411-4.054,2.221-8.191,4.293-12.807,6.669a.605.605,0,0,0,.208,1.139c1.983.231,3.642.4,5.264.742,11.658,2.47,17.589,12.06,14.37,23.5-3.407,12.106-11.871,19.367-23.439,23.209a63.4,63.4,0,0,1-35.629,1.534,26.432,26.432,0,0,1-6.3-2.52c-5.791-3.162-7.634-8.544-5.605-14.768a38.071,38.071,0,0,0,1.2-6.441Zm2.723,2.3a.605.605,0,0,0,.986.322c8.818-7.456,18.671-8.616,29.173-5.7,5.6,1.554,10.417,4.318,11.158,10.812a.6.6,0,0,0,.718.539,13.229,13.229,0,0,0,9.089-7.114c1.7-3.9.793-7.414-3.057-9.211a28.345,28.345,0,0,0-9.086-2.469c-12.958-1.261-24.894,2.453-36.469,7.885C260.271,266.209,259.578,267.6,260.1,270.046Zm28.349,9.628a.613.613,0,0,0,.368-.893c-2.458-4.318-9.559-6.391-13.258-3.874-1.977,1.346-1.919,2.862.158,3.821A18.308,18.308,0,0,0,288.448,279.674Z"/>
            <path class="cls-3" d="M257.376,267.749l-5.861,2.691a.606.606,0,0,1-.713-.154c-4.649-5.532-2.456-14.6,4.681-17.92,9.372-4.355,18.923-8.328,28.4-12.455,2.183-.95,4.373-1.883,6.562-2.816l-.457-2.238H267.483a.6.6,0,0,1-.6-.585l-.011-.349a.6.6,0,0,1,.577-.622l12.039-.541a.6.6,0,0,0,.577-.593v-.012a.6.6,0,0,0-.6-.614H268.144a.6.6,0,0,1-.584-.45l-.168-.633a.6.6,0,0,1,.285-.679,6.214,6.214,0,0,1,2.384-1.064c2.945-.178,5.907-.057,8.862-.107.852-.014,1.7-.133,2.554-.231a.606.606,0,0,0,.538-.619l-.006-.2a.606.606,0,0,0-.608-.586c-2.851.017-5.711.142-8.545-.068a10.6,10.6,0,0,1-2.953-.805.6.6,0,0,1,.02-1.137,10.217,10.217,0,0,1,2.84-.67c3.835-.163,7.681-.067,11.523-.058a.607.607,0,0,0,.6-.517l.018-.124a.6.6,0,0,0-.374-.65,8.954,8.954,0,0,0-1.7-.568c-3.578-.636-7.165-1.22-10.751-1.805-2.327-.38-3.237-1.423-2.551-2.922a.624.624,0,0,1,.623-.365c9.985,1,19.6,2.309,29.259,2.783s19.365.118,28.953.106a.612.612,0,0,1,.6.5c1.2,6.8-1.333,12.312-6.99,15.411-4.054,2.221-8.191,4.293-12.807,6.669a.605.605,0,0,0,.208,1.139c1.983.231,3.642.4,5.264.742,11.658,2.47,17.589,12.06,14.37,23.5-3.407,12.106-11.871,19.367-23.439,23.209a63.4,63.4,0,0,1-35.629,1.534,26.432,26.432,0,0,1-6.3-2.52c-5.791-3.162-7.634-8.544-5.605-14.768a38.071,38.071,0,0,0,1.2-6.441Zm2.723,2.3a.605.605,0,0,0,.986.322c8.818-7.456,18.671-8.616,29.173-5.7,5.6,1.554,10.417,4.318,11.158,10.812a.6.6,0,0,0,.718.539,13.229,13.229,0,0,0,9.089-7.114c1.7-3.9.793-7.414-3.057-9.211a28.345,28.345,0,0,0-9.086-2.469c-12.958-1.261-24.894,2.453-36.469,7.885C260.271,266.209,259.578,267.6,260.1,270.046Zm28.349,9.628a.613.613,0,0,0,.368-.893c-2.458-4.318-9.559-6.391-13.258-3.874-1.977,1.346-1.919,2.862.158,3.821A18.308,18.308,0,0,0,288.448,279.674Z"/>
          </g>
          <path class="cls-4" d="M285.1,296.426a65.4,65.4,0,0,1-15.563-1.9,27.974,27.974,0,0,1-6.711-2.679c-6.41-3.5-8.746-9.622-6.409-16.794a28.787,28.787,0,0,0,.982-5.07l.011-.079-.247-.185-4.938,2.267a2.314,2.314,0,0,1-2.73-.6,12.546,12.546,0,0,1-2.528-10.9,13.929,13.929,0,0,1,7.794-9.671c6.7-3.113,13.592-6.075,20.258-8.94q4.094-1.76,8.182-3.532,2.067-.9,4.143-1.785H267.483a2.3,2.3,0,0,1-2.309-2.234l-.011-.352a2.319,2.319,0,0,1,.951-1.935,2.3,2.3,0,0,1-.2-.513l-.168-.632a2.309,2.309,0,0,1,1.1-2.6c.143-.081.285-.165.428-.25a9.879,9.879,0,0,1,1.383-.725,2.314,2.314,0,0,1,.715-3.973,11.6,11.6,0,0,1,3.323-.761c.318-.013.635-.025.953-.035l-1.835-.3c-1.931-.315-3.223-1.06-3.838-2.213a3.371,3.371,0,0,1,.009-3.1,2.332,2.332,0,0,1,2.341-1.353c2.981.3,5.926.623,8.849.945,6.992.772,13.6,1.5,20.328,1.832,6.787.332,13.718.251,20.425.174,2.821-.033,5.637-.066,8.442-.07h0a2.308,2.308,0,0,1,2.279,1.911c1.318,7.479-1.543,13.749-7.849,17.2-3.119,1.709-6.3,3.335-9.66,5.056.629.093,1.242.2,1.859.328,6.157,1.306,11.1,4.595,13.925,9.264,2.79,4.614,3.4,10.426,1.732,16.368-3.34,11.868-11.6,20.066-24.543,24.367A66.406,66.406,0,0,1,285.1,296.426Zm-24.569-24.212a24.431,24.431,0,0,1-.87,3.9c-1.277,3.92-1.482,9.313,4.8,12.743a24.594,24.594,0,0,0,5.887,2.36,61.875,61.875,0,0,0,34.684-1.5c11.973-3.977,19.278-11.191,22.336-22.053,1.434-5.1.961-9.826-1.369-13.679-2.362-3.908-6.413-6.568-11.712-7.691-1.334-.282-2.733-.443-4.354-.629l-.754-.087a2.311,2.311,0,0,1-.791-4.35l3.167-1.624c3.35-1.714,6.515-3.334,9.6-5.024,4.76-2.607,6.963-7.1,6.266-12.708-2.482.009-4.97.038-7.464.067-6.752.079-13.737.161-20.632-.178-6.835-.335-13.489-1.07-20.534-1.848l-.449-.049c1.592.267,3.192.541,4.786.823a9.17,9.17,0,0,1,1.806.574l.219.088a2.3,2.3,0,0,1,1.435,2.485l-.019.126a2.325,2.325,0,0,1-2.286,1.972h0q-.624,0-1.247-.006a2.315,2.315,0,0,1,.678,1.568l.007.2a2.3,2.3,0,0,1-2.046,2.371l-.42.05-.569.067a2.325,2.325,0,0,1,.419.338,2.317,2.317,0,0,1,.434,2.625h9.844l1.014,4.967-1.413.6c-2.141.913-4.284,1.826-6.419,2.755q-4.09,1.782-8.2,3.538c-6.643,2.855-13.513,5.808-20.168,8.9a10.538,10.538,0,0,0-5.9,7.316,9.253,9.253,0,0,0,1.3,7.294l5.984-2.748,1.053.788a6.1,6.1,0,0,1,3.246-3c14.252-6.688,25.777-9.169,37.36-8.038a29.88,29.88,0,0,1,9.643,2.62c4.549,2.123,6.043,6.5,3.9,11.436a14.917,14.917,0,0,1-10.28,8.1,2.279,2.279,0,0,1-1.819-.368,2.333,2.333,0,0,1-.967-1.643c-.546-4.781-3.512-7.581-9.919-9.36-10.779-2.993-19.814-1.241-27.615,5.359A2.289,2.289,0,0,1,260.534,272.214Zm42.576,3.069v0Zm-23.053-13.814a39.823,39.823,0,0,1,10.657,1.555c4.616,1.282,10.769,3.81,12.2,11.006a11.4,11.4,0,0,0,6.743-5.8c.982-2.257,1.394-5.3-2.214-6.985a26.8,26.8,0,0,0-8.529-2.317,56.8,56.8,0,0,0-23.49,2.887A30.946,30.946,0,0,1,280.057,261.469Zm-18.29,8.218v0h0Zm.77-2.6c-.076.051-.148.1-.215.153ZM283.9,224.522l.007,0Zm-.686,57.566A19.387,19.387,0,0,1,275,280.276c-2.1-.97-2.519-2.37-2.58-3.118-.078-.941.236-2.34,2.178-3.661a9.925,9.925,0,0,1,7.78-1.05,12.274,12.274,0,0,1,7.92,5.491,2.319,2.319,0,0,1-1.414,3.385h0A22.172,22.172,0,0,1,283.21,282.088Zm-7.314-5.229a2.436,2.436,0,0,0,.536.32,16.117,16.117,0,0,0,9.966,1.207,9.756,9.756,0,0,0-4.79-2.615,6.651,6.651,0,0,0-5.089.546A2.818,2.818,0,0,0,275.9,276.859Z"/>
        </g>
        <g>
          <g>
            <path class="cls-2" d="M132.719,273.557c.848,9.1-3.583,15.53-11.839,16.919-14,2.357-28.095,3.188-41.836-1.28-11.629-3.781-15.232-13.058-9.762-24.1,5.023-10.136,13.974-14.71,24.639-15.966,5.232-.617,10.626.081,15.943.273a45.28,45.28,0,0,1,4.875.755c-.69-2.357-.933-4.338-1.866-5.907-.5-.845-2.187-1.376-3.341-1.382-10.911-.055-21.824.073-32.735.029a18.067,18.067,0,0,1-4.235-1.056,19.513,19.513,0,0,1,4.217-1.494,55.662,55.662,0,0,1,6.539-.067l.015-1.6c-2.454,0-4.917.124-7.358-.058a10.99,10.99,0,0,1-3.069-1.221,10.108,10.108,0,0,1,3.037-1.229c3.18-.162,6.373-.059,9.561-.059l-.023-1.908c-1.885,0-3.771-.008-5.656,0a41.867,41.867,0,0,1-4.766,0c-.693-.075-1.313-.813-1.966-1.251.647-.469,1.277-1.311,1.945-1.344,3.29-.161,6.59-.092,9.886-.138,1.05-.014,2.1-.131,3.148-.2l.122-1.055c-1.318-.27-2.629-.582-3.956-.8-2.686-.447-5.373-.9-8.074-1.245-3.036-.383-3.449-2.019-2.278-4.789a107.706,107.706,0,0,0,35.292,3.714l-1.51-9.8c5.965,0,11.5-.109,17.027.12.818.034,2.031,1.56,2.275,2.583,1.608,6.746,1.537,6.747,8.544,6.72,6.115-.023,12.231,0,19.015,0-.991,5.393-1.6,10.345-5.47,13.968a7.22,7.22,0,0,1-4.365,1.361c-4.275.176-8.563.062-13.339.062,2.083,8.732,4.017,16.843,6.071,25.457-6.515,0-12.51.067-18.5-.064-1.029-.023-2.067-.842-3.055-1.377a32.909,32.909,0,0,0-21.815-3.31,15.157,15.157,0,0,0-2.623.738c-3.9,1.422-6.566,4.273-6.121,6.9.642,3.788,3.915,4.46,6.9,5.063,9.385,1.895,18.785,1.082,28.164-.189C124.418,274.778,128.45,274.171,132.719,273.557Z"/>
            <path class="cls-3" d="M132.719,273.557c.848,9.1-3.583,15.53-11.839,16.919-14,2.357-28.095,3.188-41.836-1.28-11.629-3.781-15.232-13.058-9.762-24.1,5.023-10.136,13.974-14.71,24.639-15.966,5.232-.617,10.626.081,15.943.273a45.28,45.28,0,0,1,4.875.755c-.69-2.357-.933-4.338-1.866-5.907-.5-.845-2.187-1.376-3.341-1.382-10.911-.055-21.824.073-32.735.029a18.067,18.067,0,0,1-4.235-1.056,19.513,19.513,0,0,1,4.217-1.494,55.662,55.662,0,0,1,6.539-.067l.015-1.6c-2.454,0-4.917.124-7.358-.058a10.99,10.99,0,0,1-3.069-1.221,10.108,10.108,0,0,1,3.037-1.229c3.18-.162,6.373-.059,9.561-.059l-.023-1.908c-1.885,0-3.771-.008-5.656,0a41.867,41.867,0,0,1-4.766,0c-.693-.075-1.313-.813-1.966-1.251.647-.469,1.277-1.311,1.945-1.344,3.29-.161,6.59-.092,9.886-.138,1.05-.014,2.1-.131,3.148-.2l.122-1.055c-1.318-.27-2.629-.582-3.956-.8-2.686-.447-5.373-.9-8.074-1.245-3.036-.383-3.449-2.019-2.278-4.789a107.706,107.706,0,0,0,35.292,3.714l-1.51-9.8c5.965,0,11.5-.109,17.027.12.818.034,2.031,1.56,2.275,2.583,1.608,6.746,1.537,6.747,8.544,6.72,6.115-.023,12.231,0,19.015,0-.991,5.393-1.6,10.345-5.47,13.968a7.22,7.22,0,0,1-4.365,1.361c-4.275.176-8.563.062-13.339.062,2.083,8.732,4.017,16.843,6.071,25.457-6.515,0-12.51.067-18.5-.064-1.029-.023-2.067-.842-3.055-1.377a32.909,32.909,0,0,0-21.815-3.31,15.157,15.157,0,0,0-2.623.738c-3.9,1.422-6.566,4.273-6.121,6.9.642,3.788,3.915,4.46,6.9,5.063,9.385,1.895,18.785,1.082,28.164-.189C124.418,274.778,128.45,274.171,132.719,273.557Z"/>
          </g>
          <path class="cls-4" d="M100.671,294.1a71.356,71.356,0,0,1-22.154-3.283c-6.073-1.974-10.31-5.46-12.253-10.079-1.993-4.738-1.478-10.408,1.49-16.395,4.835-9.757,13.571-15.444,25.968-16.9a66.114,66.114,0,0,1,11.806.027c1.468.091,2.936.183,4.4.236a17.054,17.054,0,0,1,2.493.308,10.962,10.962,0,0,0-1.011-2.884,3.693,3.693,0,0,0-1.885-.548c-5.635-.029-11.368-.008-16.912.012-5.273.018-10.546.038-15.82.016a11.041,11.041,0,0,1-3.423-.728c-.412-.137-.824-.274-1.236-.382l-5.24-1.366,5.078-1.883c.4-.15.8-.326,1.205-.5l.343-.149c-.148-.073-.291-.146-.432-.218-.278-.142-.556-.285-.836-.4l-3.739-1.56,3.729-1.584c.276-.117.548-.262.822-.406l.258-.136c-.26-.177-.494-.37-.707-.546-.156-.129-.31-.261-.468-.367l-2.036-1.362,1.985-1.437a5.761,5.761,0,0,0,.459-.395,3.907,3.907,0,0,1,2.4-1.271q.5-.025,1.01-.042l-.015,0c-1.923-.243-3.19-.94-3.878-2.132-.97-1.685-.326-3.669.242-5.014l.582-1.377,1.442.4A105.542,105.542,0,0,0,107.2,225.5l-1.524-9.9h1.988q2.212,0,4.351-.014c4.4-.019,8.551-.04,12.747.135,1.809.075,3.5,2.355,3.863,3.891l.047.2c.62,2.6,1.03,4.324,1.611,4.771.6.46,2.442.453,5.22.443,4.186-.017,8.376-.012,12.776-.009l8.294,0-.6,3.287c-.915,5.1-1.778,9.91-5.751,13.631-1.552,1.453-4.088,1.764-5.462,1.82-3.085.127-6.156.1-9.4.082l-1.844-.012,6.068,25.451h-2.16c-1.665,0-3.295,0-4.9.009-4.709.012-9.158.025-13.637-.074a6.449,6.449,0,0,1-3.171-1.2c-.222-.135-.442-.268-.659-.386A31.018,31.018,0,0,0,94.342,264.5a13.372,13.372,0,0,0-2.326.658c-3.462,1.262-5.273,3.538-5.024,5.009.427,2.517,2.391,3.036,5.559,3.677,8.687,1.753,17.314,1.185,27.6-.208,2.787-.377,5.57-.783,8.428-1.2l5.675-.822.166,1.785c.935,10.039-4.144,17.227-13.254,18.76A123.213,123.213,0,0,1,100.671,294.1Zm-2.089-43.508a38.214,38.214,0,0,0-4.462.236c-11.334,1.335-18.959,6.251-23.309,15.03-2.514,5.073-3,9.76-1.4,13.557,1.547,3.679,5.061,6.5,10.162,8.158,14.592,4.745,29.589,3.144,41.026,1.221,6.747-1.136,10.587-6.047,10.517-13.281l-2.045.3c-2.871.418-5.665.826-8.464,1.205-10.623,1.438-19.575,2.018-28.73.171-3.125-.631-7.406-1.5-8.246-6.451-.578-3.412,2.391-7.024,7.219-8.784a16.512,16.512,0,0,1,2.923-.816,34.759,34.759,0,0,1,22.912,3.491c.262.143.53.3.8.466a4.657,4.657,0,0,0,1.481.706c4.438.1,8.865.085,13.554.072l2.75-.007L129.2,240.405h2.16c1.381,0,2.721.01,4.032.019,3.206.021,6.234.043,9.237-.079a5.73,5.73,0,0,0,3.27-.9c2.985-2.8,3.8-6.606,4.594-11.018l-4.208,0c-4.4-.006-8.58-.008-12.759.008-7.76.05-8.413-.483-10.164-7.834l-.046-.2a3.187,3.187,0,0,0-.891-1.282c-4.048-.161-8.1-.142-12.385-.123q-1.18.006-2.379.009l1.493,9.692-1.871.11a108.891,108.891,0,0,1-34.262-3.35,1.038,1.038,0,0,0,.012.58c.049.084.385.328,1.35.45,2.492.314,5,.731,7.418,1.134l.722.12c.95.158,1.888.36,2.8.554.408.088.815.176,1.223.26l1.533.314-.463,4.02-1.42.094c-.322.022-.644.048-.965.074l-.048,0,.057,4.763H85.049l-.034,3.381q3.792-.006,7.584-.023c5.55-.02,11.292-.041,16.941-.011,1.4.007,3.841.6,4.8,2.215a15.379,15.379,0,0,1,1.511,4.291c.156.634.32,1.3.526,2.009l.759,2.59-2.665-.427c-.706-.113-1.339-.232-1.924-.342a18.857,18.857,0,0,0-2.744-.392c-1.491-.054-2.988-.147-4.486-.24C103.092,250.734,100.822,250.593,98.582,250.593Z"/>
        </g>
        <g>
          <g>
            <path class="cls-2" d="M244.478,219.27l-3.4,14.052H256.13c-.385,5.045-1.4,9.477-4.635,12.6-1.624,1.569-4.674,2.136-7.129,2.279-7.009.407-7,.236-8.8,6.893-3.059,11.308-7.909,21.573-17.5,28.9a38.966,38.966,0,0,1-22.121,7.948c-5.513.283-7.921-2.1-8.011-7.666-.09-5.55.255-5.97,5.7-6.945,14.814-2.649,23.769-12.519,25.911-29.128H192.433c1.289-4.984,2.323-9.471,3.714-13.844.21-.662,2.075-1.113,3.181-1.125,7.045-.082,14.1-.11,21.138.058,2.389.057,3.5-.7,3.932-3.06a62.881,62.881,0,0,1,2.19-8.575c.316-.946,1.486-2.244,2.313-2.279C233.867,219.162,238.848,219.27,244.478,219.27Z"/>
            <path class="cls-2" d="M152.708,292.106c1.523-7.6,2.76-14.638,4.363-21.591,3.854-16.717,7.884-33.393,11.829-50.09.468-1.981,1.16-3.5,4.036-2.253q-1.122,4.465-2.252,8.957l.988.272c.71-2.511,1.462-5.012,2.115-7.538.48-1.858,1.282-2.876,3.582-1.6L174,230.866l.967.284c1.073-3.621,2.213-7.225,3.195-10.871.636-2.359,1.9-3.2,4.749-2.09l-5.289,17.173.908.363c.409-.795.863-1.57,1.222-2.387,1.734-3.953,3.469-7.907,5.153-11.881,1.354-3.2,3.57-4.543,7.374-3.306-.769,1.318-1.555,2.6-2.277,3.918A162.519,162.519,0,0,0,173.444,268.1c-1.405,6.9-2.606,13.851-3.758,20.8-.38,2.294-1.247,3.361-3.743,3.255C161.77,291.977,157.584,292.106,152.708,292.106Z"/>
          </g>
          <g>
            <path class="cls-5" d="M244.478,219.27l-3.4,14.052H256.13c-.385,5.045-1.4,9.477-4.635,12.6-1.624,1.569-4.674,2.136-7.129,2.279-7.009.407-7,.236-8.8,6.893-3.059,11.308-7.909,21.573-17.5,28.9a38.966,38.966,0,0,1-22.121,7.948c-5.513.283-7.921-2.1-8.011-7.666-.09-5.55.255-5.97,5.7-6.945,14.814-2.649,23.769-12.519,25.911-29.128H192.433c1.289-4.984,2.323-9.471,3.714-13.844.21-.662,2.075-1.113,3.181-1.125,7.045-.082,14.1-.11,21.138.058,2.389.057,3.5-.7,3.932-3.06a62.881,62.881,0,0,1,2.19-8.575c.316-.946,1.486-2.244,2.313-2.279C233.867,219.162,238.848,219.27,244.478,219.27Z"/>
            <path class="cls-5" d="M152.708,292.106c1.523-7.6,2.76-14.638,4.363-21.591,3.854-16.717,7.884-33.393,11.829-50.09.468-1.981,1.16-3.5,4.036-2.253q-1.122,4.465-2.252,8.957l.988.272c.71-2.511,1.462-5.012,2.115-7.538.48-1.858,1.282-2.876,3.582-1.6L174,230.866l.967.284c1.073-3.621,2.213-7.225,3.195-10.871.636-2.359,1.9-3.2,4.749-2.09l-5.289,17.173.908.363c.409-.795.863-1.57,1.222-2.387,1.734-3.953,3.469-7.907,5.153-11.881,1.354-3.2,3.57-4.543,7.374-3.306-.769,1.318-1.555,2.6-2.277,3.918A162.519,162.519,0,0,0,173.444,268.1c-1.405,6.9-2.606,13.851-3.758,20.8-.38,2.294-1.247,3.361-3.743,3.255C161.77,291.977,157.584,292.106,152.708,292.106Z"/>
          </g>
          <g>
            <path class="cls-3" d="M244.478,219.27l-3.4,14.052H256.13c-.385,5.045-1.4,9.477-4.635,12.6-1.624,1.569-4.674,2.136-7.129,2.279-7.009.407-7,.236-8.8,6.893-3.059,11.308-7.909,21.573-17.5,28.9a38.966,38.966,0,0,1-22.121,7.948c-5.513.283-7.921-2.1-8.011-7.666-.09-5.55.255-5.97,5.7-6.945,14.814-2.649,23.769-12.519,25.911-29.128H192.433c1.289-4.984,2.323-9.471,3.714-13.844.21-.662,2.075-1.113,3.181-1.125,7.045-.082,14.1-.11,21.138.058,2.389.057,3.5-.7,3.932-3.06a62.881,62.881,0,0,1,2.19-8.575c.316-.946,1.486-2.244,2.313-2.279C233.867,219.162,238.848,219.27,244.478,219.27Z"/>
            <path class="cls-3" d="M152.708,292.106c1.523-7.6,2.76-14.638,4.363-21.591,3.854-16.717,7.884-33.393,11.829-50.09.468-1.981,1.16-3.5,4.036-2.253q-1.122,4.465-2.252,8.957l.988.272c.71-2.511,1.462-5.012,2.115-7.538.48-1.858,1.282-2.876,3.582-1.6L174,230.866l.967.284c1.073-3.621,2.213-7.225,3.195-10.871.636-2.359,1.9-3.2,4.749-2.09l-5.289,17.173.908.363c.409-.795.863-1.57,1.222-2.387,1.734-3.953,3.469-7.907,5.153-11.881,1.354-3.2,3.57-4.543,7.374-3.306-.769,1.318-1.555,2.6-2.277,3.918A162.519,162.519,0,0,0,173.444,268.1c-1.405,6.9-2.606,13.851-3.758,20.8-.38,2.294-1.247,3.361-3.743,3.255C161.77,291.977,157.584,292.106,152.708,292.106Z"/>
          </g>
        </g>
      </g>
      <g>
        <g>
          <g>
            <path class="cls-6" d="M257.376,267.749l-5.861,2.691a.606.606,0,0,1-.713-.154c-4.649-5.532-2.456-14.6,4.681-17.92,9.372-4.355,18.923-8.328,28.4-12.455,2.183-.95,4.373-1.883,6.562-2.816l-.457-2.238H267.483a.6.6,0,0,1-.6-.585l-.011-.349a.6.6,0,0,1,.577-.622l12.039-.541a.6.6,0,0,0,.577-.593v-.012a.6.6,0,0,0-.6-.614H268.144a.6.6,0,0,1-.584-.45l-.168-.633a.6.6,0,0,1,.285-.679,6.214,6.214,0,0,1,2.384-1.064c2.945-.178,5.907-.057,8.862-.107.852-.014,1.7-.133,2.554-.231a.606.606,0,0,0,.538-.619l-.006-.2a.606.606,0,0,0-.608-.586c-2.851.017-5.711.142-8.545-.068a10.6,10.6,0,0,1-2.953-.805.6.6,0,0,1,.02-1.137,10.217,10.217,0,0,1,2.84-.67c3.835-.163,7.681-.067,11.523-.058a.607.607,0,0,0,.6-.517l.018-.124a.6.6,0,0,0-.374-.65,8.954,8.954,0,0,0-1.7-.568c-3.578-.636-7.165-1.22-10.751-1.805-2.327-.38-3.237-1.423-2.551-2.922a.624.624,0,0,1,.623-.365c9.985,1,19.6,2.309,29.259,2.783s19.365.118,28.953.106a.612.612,0,0,1,.6.5c1.2,6.8-1.333,12.312-6.99,15.411-4.054,2.221-8.191,4.293-12.807,6.669a.605.605,0,0,0,.208,1.139c1.983.231,3.642.4,5.264.742,11.658,2.47,17.589,12.06,14.37,23.5-3.407,12.106-11.871,19.367-23.439,23.209a63.4,63.4,0,0,1-35.629,1.534,26.432,26.432,0,0,1-6.3-2.52c-5.791-3.162-7.634-8.544-5.605-14.768a38.071,38.071,0,0,0,1.2-6.441Zm2.723,2.3a.605.605,0,0,0,.986.322c8.818-7.456,18.671-8.616,29.173-5.7,5.6,1.554,10.417,4.318,11.158,10.812a.6.6,0,0,0,.718.539,13.229,13.229,0,0,0,9.089-7.114c1.7-3.9.793-7.414-3.057-9.211a28.345,28.345,0,0,0-9.086-2.469c-12.958-1.261-24.894,2.453-36.469,7.885C260.271,266.209,259.578,267.6,260.1,270.046Zm28.349,9.628a.613.613,0,0,0,.368-.893c-2.458-4.318-9.559-6.391-13.258-3.874-1.977,1.346-1.919,2.862.158,3.821A18.308,18.308,0,0,0,288.448,279.674Z"/>
            <path class="cls-6" d="M257.376,267.749l-5.861,2.691a.606.606,0,0,1-.713-.154c-4.649-5.532-2.456-14.6,4.681-17.92,9.372-4.355,18.923-8.328,28.4-12.455,2.183-.95,4.373-1.883,6.562-2.816l-.457-2.238H267.483a.6.6,0,0,1-.6-.585l-.011-.349a.6.6,0,0,1,.577-.622l12.039-.541a.6.6,0,0,0,.577-.593v-.012a.6.6,0,0,0-.6-.614H268.144a.6.6,0,0,1-.584-.45l-.168-.633a.6.6,0,0,1,.285-.679,6.214,6.214,0,0,1,2.384-1.064c2.945-.178,5.907-.057,8.862-.107.852-.014,1.7-.133,2.554-.231a.606.606,0,0,0,.538-.619l-.006-.2a.606.606,0,0,0-.608-.586c-2.851.017-5.711.142-8.545-.068a10.6,10.6,0,0,1-2.953-.805.6.6,0,0,1,.02-1.137,10.217,10.217,0,0,1,2.84-.67c3.835-.163,7.681-.067,11.523-.058a.607.607,0,0,0,.6-.517l.018-.124a.6.6,0,0,0-.374-.65,8.954,8.954,0,0,0-1.7-.568c-3.578-.636-7.165-1.22-10.751-1.805-2.327-.38-3.237-1.423-2.551-2.922a.624.624,0,0,1,.623-.365c9.985,1,19.6,2.309,29.259,2.783s19.365.118,28.953.106a.612.612,0,0,1,.6.5c1.2,6.8-1.333,12.312-6.99,15.411-4.054,2.221-8.191,4.293-12.807,6.669a.605.605,0,0,0,.208,1.139c1.983.231,3.642.4,5.264.742,11.658,2.47,17.589,12.06,14.37,23.5-3.407,12.106-11.871,19.367-23.439,23.209a63.4,63.4,0,0,1-35.629,1.534,26.432,26.432,0,0,1-6.3-2.52c-5.791-3.162-7.634-8.544-5.605-14.768a38.071,38.071,0,0,0,1.2-6.441Zm2.723,2.3a.605.605,0,0,0,.986.322c8.818-7.456,18.671-8.616,29.173-5.7,5.6,1.554,10.417,4.318,11.158,10.812a.6.6,0,0,0,.718.539,13.229,13.229,0,0,0,9.089-7.114c1.7-3.9.793-7.414-3.057-9.211a28.345,28.345,0,0,0-9.086-2.469c-12.958-1.261-24.894,2.453-36.469,7.885C260.271,266.209,259.578,267.6,260.1,270.046Zm28.349,9.628a.613.613,0,0,0,.368-.893c-2.458-4.318-9.559-6.391-13.258-3.874-1.977,1.346-1.919,2.862.158,3.821A18.308,18.308,0,0,0,288.448,279.674Z"/>
          </g>
          <path class="cls-6" d="M285.1,296.426a65.4,65.4,0,0,1-15.563-1.9,27.974,27.974,0,0,1-6.711-2.679c-6.41-3.5-8.746-9.622-6.409-16.794a28.787,28.787,0,0,0,.982-5.07l.011-.079-.247-.185-4.938,2.267a2.314,2.314,0,0,1-2.73-.6,12.546,12.546,0,0,1-2.528-10.9,13.929,13.929,0,0,1,7.794-9.671c6.7-3.113,13.592-6.075,20.258-8.94q4.094-1.76,8.182-3.532,2.067-.9,4.143-1.785H267.483a2.3,2.3,0,0,1-2.309-2.234l-.011-.352a2.319,2.319,0,0,1,.951-1.935,2.3,2.3,0,0,1-.2-.513l-.168-.632a2.309,2.309,0,0,1,1.1-2.6c.143-.081.285-.165.428-.25a9.879,9.879,0,0,1,1.383-.725,2.314,2.314,0,0,1,.715-3.973,11.6,11.6,0,0,1,3.323-.761c.318-.013.635-.025.953-.035l-1.835-.3c-1.931-.315-3.223-1.06-3.838-2.213a3.371,3.371,0,0,1,.009-3.1,2.332,2.332,0,0,1,2.341-1.353c2.981.3,5.926.623,8.849.945,6.992.772,13.6,1.5,20.328,1.832,6.787.332,13.718.251,20.425.174,2.821-.033,5.637-.066,8.442-.07h0a2.308,2.308,0,0,1,2.279,1.911c1.318,7.479-1.543,13.749-7.849,17.2-3.119,1.709-6.3,3.335-9.66,5.056.629.093,1.242.2,1.859.328,6.157,1.306,11.1,4.595,13.925,9.264,2.79,4.614,3.4,10.426,1.732,16.368-3.34,11.868-11.6,20.066-24.543,24.367A66.406,66.406,0,0,1,285.1,296.426Zm-24.569-24.212a24.431,24.431,0,0,1-.87,3.9c-1.277,3.92-1.482,9.313,4.8,12.743a24.594,24.594,0,0,0,5.887,2.36,61.875,61.875,0,0,0,34.684-1.5c11.973-3.977,19.278-11.191,22.336-22.053,1.434-5.1.961-9.826-1.369-13.679-2.362-3.908-6.413-6.568-11.712-7.691-1.334-.282-2.733-.443-4.354-.629l-.754-.087a2.311,2.311,0,0,1-.791-4.35l3.167-1.624c3.35-1.714,6.515-3.334,9.6-5.024,4.76-2.607,6.963-7.1,6.266-12.708-2.482.009-4.97.038-7.464.067-6.752.079-13.737.161-20.632-.178-6.835-.335-13.489-1.07-20.534-1.848l-.449-.049c1.592.267,3.192.541,4.786.823a9.17,9.17,0,0,1,1.806.574l.219.088a2.3,2.3,0,0,1,1.435,2.485l-.019.126a2.325,2.325,0,0,1-2.286,1.972h0q-.624,0-1.247-.006a2.315,2.315,0,0,1,.678,1.568l.007.2a2.3,2.3,0,0,1-2.046,2.371l-.42.05-.569.067a2.325,2.325,0,0,1,.419.338,2.317,2.317,0,0,1,.434,2.625h9.844l1.014,4.967-1.413.6c-2.141.913-4.284,1.826-6.419,2.755q-4.09,1.782-8.2,3.538c-6.643,2.855-13.513,5.808-20.168,8.9a10.538,10.538,0,0,0-5.9,7.316,9.253,9.253,0,0,0,1.3,7.294l5.984-2.748,1.053.788a6.1,6.1,0,0,1,3.246-3c14.252-6.688,25.777-9.169,37.36-8.038a29.88,29.88,0,0,1,9.643,2.62c4.549,2.123,6.043,6.5,3.9,11.436a14.917,14.917,0,0,1-10.28,8.1,2.279,2.279,0,0,1-1.819-.368,2.333,2.333,0,0,1-.967-1.643c-.546-4.781-3.512-7.581-9.919-9.36-10.779-2.993-19.814-1.241-27.615,5.359A2.289,2.289,0,0,1,260.534,272.214Zm42.576,3.069v0Zm-23.053-13.814a39.823,39.823,0,0,1,10.657,1.555c4.616,1.282,10.769,3.81,12.2,11.006a11.4,11.4,0,0,0,6.743-5.8c.982-2.257,1.394-5.3-2.214-6.985a26.8,26.8,0,0,0-8.529-2.317,56.8,56.8,0,0,0-23.49,2.887A30.946,30.946,0,0,1,280.057,261.469Zm-18.29,8.218v0h0Zm.77-2.6c-.076.051-.148.1-.215.153ZM283.9,224.522l.007,0Zm-.686,57.566A19.387,19.387,0,0,1,275,280.276c-2.1-.97-2.519-2.37-2.58-3.118-.078-.941.236-2.34,2.178-3.661a9.925,9.925,0,0,1,7.78-1.05,12.274,12.274,0,0,1,7.92,5.491,2.319,2.319,0,0,1-1.414,3.385h0A22.172,22.172,0,0,1,283.21,282.088Zm-7.314-5.229a2.436,2.436,0,0,0,.536.32,16.117,16.117,0,0,0,9.966,1.207,9.756,9.756,0,0,0-4.79-2.615,6.651,6.651,0,0,0-5.089.546A2.818,2.818,0,0,0,275.9,276.859Z"/>
        </g>
        <g>
          <g>
            <path class="cls-6" d="M132.719,273.557c.848,9.1-3.583,15.53-11.839,16.919-14,2.357-28.095,3.188-41.836-1.28-11.629-3.781-15.232-13.058-9.762-24.1,5.023-10.136,13.974-14.71,24.639-15.966,5.232-.617,10.626.081,15.943.273a45.28,45.28,0,0,1,4.875.755c-.69-2.357-.933-4.338-1.866-5.907-.5-.845-2.187-1.376-3.341-1.382-10.911-.055-21.824.073-32.735.029a18.067,18.067,0,0,1-4.235-1.056,19.513,19.513,0,0,1,4.217-1.494,55.662,55.662,0,0,1,6.539-.067l.015-1.6c-2.454,0-4.917.124-7.358-.058a10.99,10.99,0,0,1-3.069-1.221,10.108,10.108,0,0,1,3.037-1.229c3.18-.162,6.373-.059,9.561-.059l-.023-1.908c-1.885,0-3.771-.008-5.656,0a41.867,41.867,0,0,1-4.766,0c-.693-.075-1.313-.813-1.966-1.251.647-.469,1.277-1.311,1.945-1.344,3.29-.161,6.59-.092,9.886-.138,1.05-.014,2.1-.131,3.148-.2l.122-1.055c-1.318-.27-2.629-.582-3.956-.8-2.686-.447-5.373-.9-8.074-1.245-3.036-.383-3.449-2.019-2.278-4.789a107.706,107.706,0,0,0,35.292,3.714l-1.51-9.8c5.965,0,11.5-.109,17.027.12.818.034,2.031,1.56,2.275,2.583,1.608,6.746,1.537,6.747,8.544,6.72,6.115-.023,12.231,0,19.015,0-.991,5.393-1.6,10.345-5.47,13.968a7.22,7.22,0,0,1-4.365,1.361c-4.275.176-8.563.062-13.339.062,2.083,8.732,4.017,16.843,6.071,25.457-6.515,0-12.51.067-18.5-.064-1.029-.023-2.067-.842-3.055-1.377a32.909,32.909,0,0,0-21.815-3.31,15.157,15.157,0,0,0-2.623.738c-3.9,1.422-6.566,4.273-6.121,6.9.642,3.788,3.915,4.46,6.9,5.063,9.385,1.895,18.785,1.082,28.164-.189C124.418,274.778,128.45,274.171,132.719,273.557Z"/>
            <path class="cls-6" d="M132.719,273.557c.848,9.1-3.583,15.53-11.839,16.919-14,2.357-28.095,3.188-41.836-1.28-11.629-3.781-15.232-13.058-9.762-24.1,5.023-10.136,13.974-14.71,24.639-15.966,5.232-.617,10.626.081,15.943.273a45.28,45.28,0,0,1,4.875.755c-.69-2.357-.933-4.338-1.866-5.907-.5-.845-2.187-1.376-3.341-1.382-10.911-.055-21.824.073-32.735.029a18.067,18.067,0,0,1-4.235-1.056,19.513,19.513,0,0,1,4.217-1.494,55.662,55.662,0,0,1,6.539-.067l.015-1.6c-2.454,0-4.917.124-7.358-.058a10.99,10.99,0,0,1-3.069-1.221,10.108,10.108,0,0,1,3.037-1.229c3.18-.162,6.373-.059,9.561-.059l-.023-1.908c-1.885,0-3.771-.008-5.656,0a41.867,41.867,0,0,1-4.766,0c-.693-.075-1.313-.813-1.966-1.251.647-.469,1.277-1.311,1.945-1.344,3.29-.161,6.59-.092,9.886-.138,1.05-.014,2.1-.131,3.148-.2l.122-1.055c-1.318-.27-2.629-.582-3.956-.8-2.686-.447-5.373-.9-8.074-1.245-3.036-.383-3.449-2.019-2.278-4.789a107.706,107.706,0,0,0,35.292,3.714l-1.51-9.8c5.965,0,11.5-.109,17.027.12.818.034,2.031,1.56,2.275,2.583,1.608,6.746,1.537,6.747,8.544,6.72,6.115-.023,12.231,0,19.015,0-.991,5.393-1.6,10.345-5.47,13.968a7.22,7.22,0,0,1-4.365,1.361c-4.275.176-8.563.062-13.339.062,2.083,8.732,4.017,16.843,6.071,25.457-6.515,0-12.51.067-18.5-.064-1.029-.023-2.067-.842-3.055-1.377a32.909,32.909,0,0,0-21.815-3.31,15.157,15.157,0,0,0-2.623.738c-3.9,1.422-6.566,4.273-6.121,6.9.642,3.788,3.915,4.46,6.9,5.063,9.385,1.895,18.785,1.082,28.164-.189C124.418,274.778,128.45,274.171,132.719,273.557Z"/>
          </g>
          <path class="cls-6" d="M100.671,294.1a71.356,71.356,0,0,1-22.154-3.283c-6.073-1.974-10.31-5.46-12.253-10.079-1.993-4.738-1.478-10.408,1.49-16.395,4.835-9.757,13.571-15.444,25.968-16.9a66.114,66.114,0,0,1,11.806.027c1.468.091,2.936.183,4.4.236a17.054,17.054,0,0,1,2.493.308,10.962,10.962,0,0,0-1.011-2.884,3.693,3.693,0,0,0-1.885-.548c-5.635-.029-11.368-.008-16.912.012-5.273.018-10.546.038-15.82.016a11.041,11.041,0,0,1-3.423-.728c-.412-.137-.824-.274-1.236-.382l-5.24-1.366,5.078-1.883c.4-.15.8-.326,1.205-.5l.343-.149c-.148-.073-.291-.146-.432-.218-.278-.142-.556-.285-.836-.4l-3.739-1.56,3.729-1.584c.276-.117.548-.262.822-.406l.258-.136c-.26-.177-.494-.37-.707-.546-.156-.129-.31-.261-.468-.367l-2.036-1.362,1.985-1.437a5.761,5.761,0,0,0,.459-.395,3.907,3.907,0,0,1,2.4-1.271q.5-.025,1.01-.042l-.015,0c-1.923-.243-3.19-.94-3.878-2.132-.97-1.685-.326-3.669.242-5.014l.582-1.377,1.442.4A105.542,105.542,0,0,0,107.2,225.5l-1.524-9.9h1.988q2.212,0,4.351-.014c4.4-.019,8.551-.04,12.747.135,1.809.075,3.5,2.355,3.863,3.891l.047.2c.62,2.6,1.03,4.324,1.611,4.771.6.46,2.442.453,5.22.443,4.186-.017,8.376-.012,12.776-.009l8.294,0-.6,3.287c-.915,5.1-1.778,9.91-5.751,13.631-1.552,1.453-4.088,1.764-5.462,1.82-3.085.127-6.156.1-9.4.082l-1.844-.012,6.068,25.451h-2.16c-1.665,0-3.295,0-4.9.009-4.709.012-9.158.025-13.637-.074a6.449,6.449,0,0,1-3.171-1.2c-.222-.135-.442-.268-.659-.386A31.018,31.018,0,0,0,94.342,264.5a13.372,13.372,0,0,0-2.326.658c-3.462,1.262-5.273,3.538-5.024,5.009.427,2.517,2.391,3.036,5.559,3.677,8.687,1.753,17.314,1.185,27.6-.208,2.787-.377,5.57-.783,8.428-1.2l5.675-.822.166,1.785c.935,10.039-4.144,17.227-13.254,18.76A123.213,123.213,0,0,1,100.671,294.1Zm-2.089-43.508a38.214,38.214,0,0,0-4.462.236c-11.334,1.335-18.959,6.251-23.309,15.03-2.514,5.073-3,9.76-1.4,13.557,1.547,3.679,5.061,6.5,10.162,8.158,14.592,4.745,29.589,3.144,41.026,1.221,6.747-1.136,10.587-6.047,10.517-13.281l-2.045.3c-2.871.418-5.665.826-8.464,1.205-10.623,1.438-19.575,2.018-28.73.171-3.125-.631-7.406-1.5-8.246-6.451-.578-3.412,2.391-7.024,7.219-8.784a16.512,16.512,0,0,1,2.923-.816,34.759,34.759,0,0,1,22.912,3.491c.262.143.53.3.8.466a4.657,4.657,0,0,0,1.481.706c4.438.1,8.865.085,13.554.072l2.75-.007L129.2,240.405h2.16c1.381,0,2.721.01,4.032.019,3.206.021,6.234.043,9.237-.079a5.73,5.73,0,0,0,3.27-.9c2.985-2.8,3.8-6.606,4.594-11.018l-4.208,0c-4.4-.006-8.58-.008-12.759.008-7.76.05-8.413-.483-10.164-7.834l-.046-.2a3.187,3.187,0,0,0-.891-1.282c-4.048-.161-8.1-.142-12.385-.123q-1.18.006-2.379.009l1.493,9.692-1.871.11a108.891,108.891,0,0,1-34.262-3.35,1.038,1.038,0,0,0,.012.58c.049.084.385.328,1.35.45,2.492.314,5,.731,7.418,1.134l.722.12c.95.158,1.888.36,2.8.554.408.088.815.176,1.223.26l1.533.314-.463,4.02-1.42.094c-.322.022-.644.048-.965.074l-.048,0,.057,4.763H85.049l-.034,3.381q3.792-.006,7.584-.023c5.55-.02,11.292-.041,16.941-.011,1.4.007,3.841.6,4.8,2.215a15.379,15.379,0,0,1,1.511,4.291c.156.634.32,1.3.526,2.009l.759,2.59-2.665-.427c-.706-.113-1.339-.232-1.924-.342a18.857,18.857,0,0,0-2.744-.392c-1.491-.054-2.988-.147-4.486-.24C103.092,250.734,100.822,250.593,98.582,250.593Z"/>
        </g>
        <g>
          <g>
            <path class="cls-6" d="M244.478,219.27l-3.4,14.052H256.13c-.385,5.045-1.4,9.477-4.635,12.6-1.624,1.569-4.674,2.136-7.129,2.279-7.009.407-7,.236-8.8,6.893-3.059,11.308-7.909,21.573-17.5,28.9a38.966,38.966,0,0,1-22.121,7.948c-5.513.283-7.921-2.1-8.011-7.666-.09-5.55.255-5.97,5.7-6.945,14.814-2.649,23.769-12.519,25.911-29.128H192.433c1.289-4.984,2.323-9.471,3.714-13.844.21-.662,2.075-1.113,3.181-1.125,7.045-.082,14.1-.11,21.138.058,2.389.057,3.5-.7,3.932-3.06a62.881,62.881,0,0,1,2.19-8.575c.316-.946,1.486-2.244,2.313-2.279C233.867,219.162,238.848,219.27,244.478,219.27Z"/>
            <path class="cls-6" d="M152.708,292.106c1.523-7.6,2.76-14.638,4.363-21.591,3.854-16.717,7.884-33.393,11.829-50.09.468-1.981,1.16-3.5,4.036-2.253q-1.122,4.465-2.252,8.957l.988.272c.71-2.511,1.462-5.012,2.115-7.538.48-1.858,1.282-2.876,3.582-1.6L174,230.866l.967.284c1.073-3.621,2.213-7.225,3.195-10.871.636-2.359,1.9-3.2,4.749-2.09l-5.289,17.173.908.363c.409-.795.863-1.57,1.222-2.387,1.734-3.953,3.469-7.907,5.153-11.881,1.354-3.2,3.57-4.543,7.374-3.306-.769,1.318-1.555,2.6-2.277,3.918A162.519,162.519,0,0,0,173.444,268.1c-1.405,6.9-2.606,13.851-3.758,20.8-.38,2.294-1.247,3.361-3.743,3.255C161.77,291.977,157.584,292.106,152.708,292.106Z"/>
          </g>
          <g>
            <path class="cls-6" d="M244.478,219.27l-3.4,14.052H256.13c-.385,5.045-1.4,9.477-4.635,12.6-1.624,1.569-4.674,2.136-7.129,2.279-7.009.407-7,.236-8.8,6.893-3.059,11.308-7.909,21.573-17.5,28.9a38.966,38.966,0,0,1-22.121,7.948c-5.513.283-7.921-2.1-8.011-7.666-.09-5.55.255-5.97,5.7-6.945,14.814-2.649,23.769-12.519,25.911-29.128H192.433c1.289-4.984,2.323-9.471,3.714-13.844.21-.662,2.075-1.113,3.181-1.125,7.045-.082,14.1-.11,21.138.058,2.389.057,3.5-.7,3.932-3.06a62.881,62.881,0,0,1,2.19-8.575c.316-.946,1.486-2.244,2.313-2.279C233.867,219.162,238.848,219.27,244.478,219.27Z"/>
            <path class="cls-6" d="M152.708,292.106c1.523-7.6,2.76-14.638,4.363-21.591,3.854-16.717,7.884-33.393,11.829-50.09.468-1.981,1.16-3.5,4.036-2.253q-1.122,4.465-2.252,8.957l.988.272c.71-2.511,1.462-5.012,2.115-7.538.48-1.858,1.282-2.876,3.582-1.6L174,230.866l.967.284c1.073-3.621,2.213-7.225,3.195-10.871.636-2.359,1.9-3.2,4.749-2.09l-5.289,17.173.908.363c.409-.795.863-1.57,1.222-2.387,1.734-3.953,3.469-7.907,5.153-11.881,1.354-3.2,3.57-4.543,7.374-3.306-.769,1.318-1.555,2.6-2.277,3.918A162.519,162.519,0,0,0,173.444,268.1c-1.405,6.9-2.606,13.851-3.758,20.8-.38,2.294-1.247,3.361-3.743,3.255C161.77,291.977,157.584,292.106,152.708,292.106Z"/>
          </g>
          <g>
            <path class="cls-6" d="M244.478,219.27l-3.4,14.052H256.13c-.385,5.045-1.4,9.477-4.635,12.6-1.624,1.569-4.674,2.136-7.129,2.279-7.009.407-7,.236-8.8,6.893-3.059,11.308-7.909,21.573-17.5,28.9a38.966,38.966,0,0,1-22.121,7.948c-5.513.283-7.921-2.1-8.011-7.666-.09-5.55.255-5.97,5.7-6.945,14.814-2.649,23.769-12.519,25.911-29.128H192.433c1.289-4.984,2.323-9.471,3.714-13.844.21-.662,2.075-1.113,3.181-1.125,7.045-.082,14.1-.11,21.138.058,2.389.057,3.5-.7,3.932-3.06a62.881,62.881,0,0,1,2.19-8.575c.316-.946,1.486-2.244,2.313-2.279C233.867,219.162,238.848,219.27,244.478,219.27Z"/>
            <path class="cls-6" d="M152.708,292.106c1.523-7.6,2.76-14.638,4.363-21.591,3.854-16.717,7.884-33.393,11.829-50.09.468-1.981,1.16-3.5,4.036-2.253q-1.122,4.465-2.252,8.957l.988.272c.71-2.511,1.462-5.012,2.115-7.538.48-1.858,1.282-2.876,3.582-1.6L174,230.866l.967.284c1.073-3.621,2.213-7.225,3.195-10.871.636-2.359,1.9-3.2,4.749-2.09l-5.289,17.173.908.363c.409-.795.863-1.57,1.222-2.387,1.734-3.953,3.469-7.907,5.153-11.881,1.354-3.2,3.57-4.543,7.374-3.306-.769,1.318-1.555,2.6-2.277,3.918A162.519,162.519,0,0,0,173.444,268.1c-1.405,6.9-2.606,13.851-3.758,20.8-.38,2.294-1.247,3.361-3.743,3.255C161.77,291.977,157.584,292.106,152.708,292.106Z"/>
          </g>
          <g>
            <path class="cls-6" d="M244.478,219.27l-3.4,14.052H256.13c-.385,5.045-1.4,9.477-4.635,12.6-1.624,1.569-4.674,2.136-7.129,2.279-7.009.407-7,.236-8.8,6.893-3.059,11.308-7.909,21.573-17.5,28.9a38.966,38.966,0,0,1-22.121,7.948c-5.513.283-7.921-2.1-8.011-7.666-.09-5.55.255-5.97,5.7-6.945,14.814-2.649,23.769-12.519,25.911-29.128H192.433c1.289-4.984,2.323-9.471,3.714-13.844.21-.662,2.075-1.113,3.181-1.125,7.045-.082,14.1-.11,21.138.058,2.389.057,3.5-.7,3.932-3.06a62.881,62.881,0,0,1,2.19-8.575c.316-.946,1.486-2.244,2.313-2.279C233.867,219.162,238.848,219.27,244.478,219.27Z"/>
            <path class="cls-6" d="M152.708,292.106c1.523-7.6,2.76-14.638,4.363-21.591,3.854-16.717,7.884-33.393,11.829-50.09.468-1.981,1.16-3.5,4.036-2.253q-1.122,4.465-2.252,8.957l.988.272c.71-2.511,1.462-5.012,2.115-7.538.48-1.858,1.282-2.876,3.582-1.6L174,230.866l.967.284c1.073-3.621,2.213-7.225,3.195-10.871.636-2.359,1.9-3.2,4.749-2.09l-5.289,17.173.908.363c.409-.795.863-1.57,1.222-2.387,1.734-3.953,3.469-7.907,5.153-11.881,1.354-3.2,3.57-4.543,7.374-3.306-.769,1.318-1.555,2.6-2.277,3.918A162.519,162.519,0,0,0,173.444,268.1c-1.405,6.9-2.606,13.851-3.758,20.8-.38,2.294-1.247,3.361-3.743,3.255C161.77,291.977,157.584,292.106,152.708,292.106Z"/>
          </g>
        </g>
      </g>
      <g>
        <g>
          <g>
            <path class="cls-7" d="M257.376,267.749l-5.861,2.691a.606.606,0,0,1-.713-.154c-4.649-5.532-2.456-14.6,4.681-17.92,9.372-4.355,18.923-8.328,28.4-12.455,2.183-.95,4.373-1.883,6.562-2.816l-.457-2.238H267.483a.6.6,0,0,1-.6-.585l-.011-.349a.6.6,0,0,1,.577-.622l12.039-.541a.6.6,0,0,0,.577-.593v-.012a.6.6,0,0,0-.6-.614H268.144a.6.6,0,0,1-.584-.45l-.168-.633a.6.6,0,0,1,.285-.679,6.214,6.214,0,0,1,2.384-1.064c2.945-.178,5.907-.057,8.862-.107.852-.014,1.7-.133,2.554-.231a.606.606,0,0,0,.538-.619l-.006-.2a.606.606,0,0,0-.608-.586c-2.851.017-5.711.142-8.545-.068a10.6,10.6,0,0,1-2.953-.805.6.6,0,0,1,.02-1.137,10.217,10.217,0,0,1,2.84-.67c3.835-.163,7.681-.067,11.523-.058a.607.607,0,0,0,.6-.517l.018-.124a.6.6,0,0,0-.374-.65,8.954,8.954,0,0,0-1.7-.568c-3.578-.636-7.165-1.22-10.751-1.805-2.327-.38-3.237-1.423-2.551-2.922a.624.624,0,0,1,.623-.365c9.985,1,19.6,2.309,29.259,2.783s19.365.118,28.953.106a.612.612,0,0,1,.6.5c1.2,6.8-1.333,12.312-6.99,15.411-4.054,2.221-8.191,4.293-12.807,6.669a.605.605,0,0,0,.208,1.139c1.983.231,3.642.4,5.264.742,11.658,2.47,17.589,12.06,14.37,23.5-3.407,12.106-11.871,19.367-23.439,23.209a63.4,63.4,0,0,1-35.629,1.534,26.432,26.432,0,0,1-6.3-2.52c-5.791-3.162-7.634-8.544-5.605-14.768a38.071,38.071,0,0,0,1.2-6.441Zm2.723,2.3a.605.605,0,0,0,.986.322c8.818-7.456,18.671-8.616,29.173-5.7,5.6,1.554,10.417,4.318,11.158,10.812a.6.6,0,0,0,.718.539,13.229,13.229,0,0,0,9.089-7.114c1.7-3.9.793-7.414-3.057-9.211a28.345,28.345,0,0,0-9.086-2.469c-12.958-1.261-24.894,2.453-36.469,7.885C260.271,266.209,259.578,267.6,260.1,270.046Zm28.349,9.628a.613.613,0,0,0,.368-.893c-2.458-4.318-9.559-6.391-13.258-3.874-1.977,1.346-1.919,2.862.158,3.821A18.308,18.308,0,0,0,288.448,279.674Z"/>
            <path class="cls-7" d="M257.376,267.749l-5.861,2.691a.606.606,0,0,1-.713-.154c-4.649-5.532-2.456-14.6,4.681-17.92,9.372-4.355,18.923-8.328,28.4-12.455,2.183-.95,4.373-1.883,6.562-2.816l-.457-2.238H267.483a.6.6,0,0,1-.6-.585l-.011-.349a.6.6,0,0,1,.577-.622l12.039-.541a.6.6,0,0,0,.577-.593v-.012a.6.6,0,0,0-.6-.614H268.144a.6.6,0,0,1-.584-.45l-.168-.633a.6.6,0,0,1,.285-.679,6.214,6.214,0,0,1,2.384-1.064c2.945-.178,5.907-.057,8.862-.107.852-.014,1.7-.133,2.554-.231a.606.606,0,0,0,.538-.619l-.006-.2a.606.606,0,0,0-.608-.586c-2.851.017-5.711.142-8.545-.068a10.6,10.6,0,0,1-2.953-.805.6.6,0,0,1,.02-1.137,10.217,10.217,0,0,1,2.84-.67c3.835-.163,7.681-.067,11.523-.058a.607.607,0,0,0,.6-.517l.018-.124a.6.6,0,0,0-.374-.65,8.954,8.954,0,0,0-1.7-.568c-3.578-.636-7.165-1.22-10.751-1.805-2.327-.38-3.237-1.423-2.551-2.922a.624.624,0,0,1,.623-.365c9.985,1,19.6,2.309,29.259,2.783s19.365.118,28.953.106a.612.612,0,0,1,.6.5c1.2,6.8-1.333,12.312-6.99,15.411-4.054,2.221-8.191,4.293-12.807,6.669a.605.605,0,0,0,.208,1.139c1.983.231,3.642.4,5.264.742,11.658,2.47,17.589,12.06,14.37,23.5-3.407,12.106-11.871,19.367-23.439,23.209a63.4,63.4,0,0,1-35.629,1.534,26.432,26.432,0,0,1-6.3-2.52c-5.791-3.162-7.634-8.544-5.605-14.768a38.071,38.071,0,0,0,1.2-6.441Zm2.723,2.3a.605.605,0,0,0,.986.322c8.818-7.456,18.671-8.616,29.173-5.7,5.6,1.554,10.417,4.318,11.158,10.812a.6.6,0,0,0,.718.539,13.229,13.229,0,0,0,9.089-7.114c1.7-3.9.793-7.414-3.057-9.211a28.345,28.345,0,0,0-9.086-2.469c-12.958-1.261-24.894,2.453-36.469,7.885C260.271,266.209,259.578,267.6,260.1,270.046Zm28.349,9.628a.613.613,0,0,0,.368-.893c-2.458-4.318-9.559-6.391-13.258-3.874-1.977,1.346-1.919,2.862.158,3.821A18.308,18.308,0,0,0,288.448,279.674Z"/>
          </g>
          <path class="cls-7" d="M285.1,296.426a65.4,65.4,0,0,1-15.563-1.9,27.974,27.974,0,0,1-6.711-2.679c-6.41-3.5-8.746-9.622-6.409-16.794a28.787,28.787,0,0,0,.982-5.07l.011-.079-.247-.185-4.938,2.267a2.314,2.314,0,0,1-2.73-.6,12.546,12.546,0,0,1-2.528-10.9,13.929,13.929,0,0,1,7.794-9.671c6.7-3.113,13.592-6.075,20.258-8.94q4.094-1.76,8.182-3.532,2.067-.9,4.143-1.785H267.483a2.3,2.3,0,0,1-2.309-2.234l-.011-.352a2.319,2.319,0,0,1,.951-1.935,2.3,2.3,0,0,1-.2-.513l-.168-.632a2.309,2.309,0,0,1,1.1-2.6c.143-.081.285-.165.428-.25a9.879,9.879,0,0,1,1.383-.725,2.314,2.314,0,0,1,.715-3.973,11.6,11.6,0,0,1,3.323-.761c.318-.013.635-.025.953-.035l-1.835-.3c-1.931-.315-3.223-1.06-3.838-2.213a3.371,3.371,0,0,1,.009-3.1,2.332,2.332,0,0,1,2.341-1.353c2.981.3,5.926.623,8.849.945,6.992.772,13.6,1.5,20.328,1.832,6.787.332,13.718.251,20.425.174,2.821-.033,5.637-.066,8.442-.07h0a2.308,2.308,0,0,1,2.279,1.911c1.318,7.479-1.543,13.749-7.849,17.2-3.119,1.709-6.3,3.335-9.66,5.056.629.093,1.242.2,1.859.328,6.157,1.306,11.1,4.595,13.925,9.264,2.79,4.614,3.4,10.426,1.732,16.368-3.34,11.868-11.6,20.066-24.543,24.367A66.406,66.406,0,0,1,285.1,296.426Zm-24.569-24.212a24.431,24.431,0,0,1-.87,3.9c-1.277,3.92-1.482,9.313,4.8,12.743a24.594,24.594,0,0,0,5.887,2.36,61.875,61.875,0,0,0,34.684-1.5c11.973-3.977,19.278-11.191,22.336-22.053,1.434-5.1.961-9.826-1.369-13.679-2.362-3.908-6.413-6.568-11.712-7.691-1.334-.282-2.733-.443-4.354-.629l-.754-.087a2.311,2.311,0,0,1-.791-4.35l3.167-1.624c3.35-1.714,6.515-3.334,9.6-5.024,4.76-2.607,6.963-7.1,6.266-12.708-2.482.009-4.97.038-7.464.067-6.752.079-13.737.161-20.632-.178-6.835-.335-13.489-1.07-20.534-1.848l-.449-.049c1.592.267,3.192.541,4.786.823a9.17,9.17,0,0,1,1.806.574l.219.088a2.3,2.3,0,0,1,1.435,2.485l-.019.126a2.325,2.325,0,0,1-2.286,1.972h0q-.624,0-1.247-.006a2.315,2.315,0,0,1,.678,1.568l.007.2a2.3,2.3,0,0,1-2.046,2.371l-.42.05-.569.067a2.325,2.325,0,0,1,.419.338,2.317,2.317,0,0,1,.434,2.625h9.844l1.014,4.967-1.413.6c-2.141.913-4.284,1.826-6.419,2.755q-4.09,1.782-8.2,3.538c-6.643,2.855-13.513,5.808-20.168,8.9a10.538,10.538,0,0,0-5.9,7.316,9.253,9.253,0,0,0,1.3,7.294l5.984-2.748,1.053.788a6.1,6.1,0,0,1,3.246-3c14.252-6.688,25.777-9.169,37.36-8.038a29.88,29.88,0,0,1,9.643,2.62c4.549,2.123,6.043,6.5,3.9,11.436a14.917,14.917,0,0,1-10.28,8.1,2.279,2.279,0,0,1-1.819-.368,2.333,2.333,0,0,1-.967-1.643c-.546-4.781-3.512-7.581-9.919-9.36-10.779-2.993-19.814-1.241-27.615,5.359A2.289,2.289,0,0,1,260.534,272.214Zm42.576,3.069v0Zm-23.053-13.814a39.823,39.823,0,0,1,10.657,1.555c4.616,1.282,10.769,3.81,12.2,11.006a11.4,11.4,0,0,0,6.743-5.8c.982-2.257,1.394-5.3-2.214-6.985a26.8,26.8,0,0,0-8.529-2.317,56.8,56.8,0,0,0-23.49,2.887A30.946,30.946,0,0,1,280.057,261.469Zm-18.29,8.218v0h0Zm.77-2.6c-.076.051-.148.1-.215.153ZM283.9,224.522l.007,0Zm-.686,57.566A19.387,19.387,0,0,1,275,280.276c-2.1-.97-2.519-2.37-2.58-3.118-.078-.941.236-2.34,2.178-3.661a9.925,9.925,0,0,1,7.78-1.05,12.274,12.274,0,0,1,7.92,5.491,2.319,2.319,0,0,1-1.414,3.385h0A22.172,22.172,0,0,1,283.21,282.088Zm-7.314-5.229a2.436,2.436,0,0,0,.536.32,16.117,16.117,0,0,0,9.966,1.207,9.756,9.756,0,0,0-4.79-2.615,6.651,6.651,0,0,0-5.089.546A2.818,2.818,0,0,0,275.9,276.859Z"/>
        </g>
        <g>
          <g>
            <path class="cls-7" d="M132.719,273.557c.848,9.1-3.583,15.53-11.839,16.919-14,2.357-28.095,3.188-41.836-1.28-11.629-3.781-15.232-13.058-9.762-24.1,5.023-10.136,13.974-14.71,24.639-15.966,5.232-.617,10.626.081,15.943.273a45.28,45.28,0,0,1,4.875.755c-.69-2.357-.933-4.338-1.866-5.907-.5-.845-2.187-1.376-3.341-1.382-10.911-.055-21.824.073-32.735.029a18.067,18.067,0,0,1-4.235-1.056,19.513,19.513,0,0,1,4.217-1.494,55.662,55.662,0,0,1,6.539-.067l.015-1.6c-2.454,0-4.917.124-7.358-.058a10.99,10.99,0,0,1-3.069-1.221,10.108,10.108,0,0,1,3.037-1.229c3.18-.162,6.373-.059,9.561-.059l-.023-1.908c-1.885,0-3.771-.008-5.656,0a41.867,41.867,0,0,1-4.766,0c-.693-.075-1.313-.813-1.966-1.251.647-.469,1.277-1.311,1.945-1.344,3.29-.161,6.59-.092,9.886-.138,1.05-.014,2.1-.131,3.148-.2l.122-1.055c-1.318-.27-2.629-.582-3.956-.8-2.686-.447-5.373-.9-8.074-1.245-3.036-.383-3.449-2.019-2.278-4.789a107.706,107.706,0,0,0,35.292,3.714l-1.51-9.8c5.965,0,11.5-.109,17.027.12.818.034,2.031,1.56,2.275,2.583,1.608,6.746,1.537,6.747,8.544,6.72,6.115-.023,12.231,0,19.015,0-.991,5.393-1.6,10.345-5.47,13.968a7.22,7.22,0,0,1-4.365,1.361c-4.275.176-8.563.062-13.339.062,2.083,8.732,4.017,16.843,6.071,25.457-6.515,0-12.51.067-18.5-.064-1.029-.023-2.067-.842-3.055-1.377a32.909,32.909,0,0,0-21.815-3.31,15.157,15.157,0,0,0-2.623.738c-3.9,1.422-6.566,4.273-6.121,6.9.642,3.788,3.915,4.46,6.9,5.063,9.385,1.895,18.785,1.082,28.164-.189C124.418,274.778,128.45,274.171,132.719,273.557Z"/>
            <path class="cls-7" d="M132.719,273.557c.848,9.1-3.583,15.53-11.839,16.919-14,2.357-28.095,3.188-41.836-1.28-11.629-3.781-15.232-13.058-9.762-24.1,5.023-10.136,13.974-14.71,24.639-15.966,5.232-.617,10.626.081,15.943.273a45.28,45.28,0,0,1,4.875.755c-.69-2.357-.933-4.338-1.866-5.907-.5-.845-2.187-1.376-3.341-1.382-10.911-.055-21.824.073-32.735.029a18.067,18.067,0,0,1-4.235-1.056,19.513,19.513,0,0,1,4.217-1.494,55.662,55.662,0,0,1,6.539-.067l.015-1.6c-2.454,0-4.917.124-7.358-.058a10.99,10.99,0,0,1-3.069-1.221,10.108,10.108,0,0,1,3.037-1.229c3.18-.162,6.373-.059,9.561-.059l-.023-1.908c-1.885,0-3.771-.008-5.656,0a41.867,41.867,0,0,1-4.766,0c-.693-.075-1.313-.813-1.966-1.251.647-.469,1.277-1.311,1.945-1.344,3.29-.161,6.59-.092,9.886-.138,1.05-.014,2.1-.131,3.148-.2l.122-1.055c-1.318-.27-2.629-.582-3.956-.8-2.686-.447-5.373-.9-8.074-1.245-3.036-.383-3.449-2.019-2.278-4.789a107.706,107.706,0,0,0,35.292,3.714l-1.51-9.8c5.965,0,11.5-.109,17.027.12.818.034,2.031,1.56,2.275,2.583,1.608,6.746,1.537,6.747,8.544,6.72,6.115-.023,12.231,0,19.015,0-.991,5.393-1.6,10.345-5.47,13.968a7.22,7.22,0,0,1-4.365,1.361c-4.275.176-8.563.062-13.339.062,2.083,8.732,4.017,16.843,6.071,25.457-6.515,0-12.51.067-18.5-.064-1.029-.023-2.067-.842-3.055-1.377a32.909,32.909,0,0,0-21.815-3.31,15.157,15.157,0,0,0-2.623.738c-3.9,1.422-6.566,4.273-6.121,6.9.642,3.788,3.915,4.46,6.9,5.063,9.385,1.895,18.785,1.082,28.164-.189C124.418,274.778,128.45,274.171,132.719,273.557Z"/>
          </g>
          <path class="cls-7" d="M100.671,294.1a71.356,71.356,0,0,1-22.154-3.283c-6.073-1.974-10.31-5.46-12.253-10.079-1.993-4.738-1.478-10.408,1.49-16.395,4.835-9.757,13.571-15.444,25.968-16.9a66.114,66.114,0,0,1,11.806.027c1.468.091,2.936.183,4.4.236a17.054,17.054,0,0,1,2.493.308,10.962,10.962,0,0,0-1.011-2.884,3.693,3.693,0,0,0-1.885-.548c-5.635-.029-11.368-.008-16.912.012-5.273.018-10.546.038-15.82.016a11.041,11.041,0,0,1-3.423-.728c-.412-.137-.824-.274-1.236-.382l-5.24-1.366,5.078-1.883c.4-.15.8-.326,1.205-.5l.343-.149c-.148-.073-.291-.146-.432-.218-.278-.142-.556-.285-.836-.4l-3.739-1.56,3.729-1.584c.276-.117.548-.262.822-.406l.258-.136c-.26-.177-.494-.37-.707-.546-.156-.129-.31-.261-.468-.367l-2.036-1.362,1.985-1.437a5.761,5.761,0,0,0,.459-.395,3.907,3.907,0,0,1,2.4-1.271q.5-.025,1.01-.042l-.015,0c-1.923-.243-3.19-.94-3.878-2.132-.97-1.685-.326-3.669.242-5.014l.582-1.377,1.442.4A105.542,105.542,0,0,0,107.2,225.5l-1.524-9.9h1.988q2.212,0,4.351-.014c4.4-.019,8.551-.04,12.747.135,1.809.075,3.5,2.355,3.863,3.891l.047.2c.62,2.6,1.03,4.324,1.611,4.771.6.46,2.442.453,5.22.443,4.186-.017,8.376-.012,12.776-.009l8.294,0-.6,3.287c-.915,5.1-1.778,9.91-5.751,13.631-1.552,1.453-4.088,1.764-5.462,1.82-3.085.127-6.156.1-9.4.082l-1.844-.012,6.068,25.451h-2.16c-1.665,0-3.295,0-4.9.009-4.709.012-9.158.025-13.637-.074a6.449,6.449,0,0,1-3.171-1.2c-.222-.135-.442-.268-.659-.386A31.018,31.018,0,0,0,94.342,264.5a13.372,13.372,0,0,0-2.326.658c-3.462,1.262-5.273,3.538-5.024,5.009.427,2.517,2.391,3.036,5.559,3.677,8.687,1.753,17.314,1.185,27.6-.208,2.787-.377,5.57-.783,8.428-1.2l5.675-.822.166,1.785c.935,10.039-4.144,17.227-13.254,18.76A123.213,123.213,0,0,1,100.671,294.1Zm-2.089-43.508a38.214,38.214,0,0,0-4.462.236c-11.334,1.335-18.959,6.251-23.309,15.03-2.514,5.073-3,9.76-1.4,13.557,1.547,3.679,5.061,6.5,10.162,8.158,14.592,4.745,29.589,3.144,41.026,1.221,6.747-1.136,10.587-6.047,10.517-13.281l-2.045.3c-2.871.418-5.665.826-8.464,1.205-10.623,1.438-19.575,2.018-28.73.171-3.125-.631-7.406-1.5-8.246-6.451-.578-3.412,2.391-7.024,7.219-8.784a16.512,16.512,0,0,1,2.923-.816,34.759,34.759,0,0,1,22.912,3.491c.262.143.53.3.8.466a4.657,4.657,0,0,0,1.481.706c4.438.1,8.865.085,13.554.072l2.75-.007L129.2,240.405h2.16c1.381,0,2.721.01,4.032.019,3.206.021,6.234.043,9.237-.079a5.73,5.73,0,0,0,3.27-.9c2.985-2.8,3.8-6.606,4.594-11.018l-4.208,0c-4.4-.006-8.58-.008-12.759.008-7.76.05-8.413-.483-10.164-7.834l-.046-.2a3.187,3.187,0,0,0-.891-1.282c-4.048-.161-8.1-.142-12.385-.123q-1.18.006-2.379.009l1.493,9.692-1.871.11a108.891,108.891,0,0,1-34.262-3.35,1.038,1.038,0,0,0,.012.58c.049.084.385.328,1.35.45,2.492.314,5,.731,7.418,1.134l.722.12c.95.158,1.888.36,2.8.554.408.088.815.176,1.223.26l1.533.314-.463,4.02-1.42.094c-.322.022-.644.048-.965.074l-.048,0,.057,4.763H85.049l-.034,3.381q3.792-.006,7.584-.023c5.55-.02,11.292-.041,16.941-.011,1.4.007,3.841.6,4.8,2.215a15.379,15.379,0,0,1,1.511,4.291c.156.634.32,1.3.526,2.009l.759,2.59-2.665-.427c-.706-.113-1.339-.232-1.924-.342a18.857,18.857,0,0,0-2.744-.392c-1.491-.054-2.988-.147-4.486-.24C103.092,250.734,100.822,250.593,98.582,250.593Z"/>
        </g>
        <g>
          <g>
            <path class="cls-7" d="M244.478,219.27l-3.4,14.052H256.13c-.385,5.045-1.4,9.477-4.635,12.6-1.624,1.569-4.674,2.136-7.129,2.279-7.009.407-7,.236-8.8,6.893-3.059,11.308-7.909,21.573-17.5,28.9a38.966,38.966,0,0,1-22.121,7.948c-5.513.283-7.921-2.1-8.011-7.666-.09-5.55.255-5.97,5.7-6.945,14.814-2.649,23.769-12.519,25.911-29.128H192.433c1.289-4.984,2.323-9.471,3.714-13.844.21-.662,2.075-1.113,3.181-1.125,7.045-.082,14.1-.11,21.138.058,2.389.057,3.5-.7,3.932-3.06a62.881,62.881,0,0,1,2.19-8.575c.316-.946,1.486-2.244,2.313-2.279C233.867,219.162,238.848,219.27,244.478,219.27Z"/>
            <path class="cls-7" d="M152.708,292.106c1.523-7.6,2.76-14.638,4.363-21.591,3.854-16.717,7.884-33.393,11.829-50.09.468-1.981,1.16-3.5,4.036-2.253q-1.122,4.465-2.252,8.957l.988.272c.71-2.511,1.462-5.012,2.115-7.538.48-1.858,1.282-2.876,3.582-1.6L174,230.866l.967.284c1.073-3.621,2.213-7.225,3.195-10.871.636-2.359,1.9-3.2,4.749-2.09l-5.289,17.173.908.363c.409-.795.863-1.57,1.222-2.387,1.734-3.953,3.469-7.907,5.153-11.881,1.354-3.2,3.57-4.543,7.374-3.306-.769,1.318-1.555,2.6-2.277,3.918A162.519,162.519,0,0,0,173.444,268.1c-1.405,6.9-2.606,13.851-3.758,20.8-.38,2.294-1.247,3.361-3.743,3.255C161.77,291.977,157.584,292.106,152.708,292.106Z"/>
          </g>
          <g>
            <path class="cls-7" d="M244.478,219.27l-3.4,14.052H256.13c-.385,5.045-1.4,9.477-4.635,12.6-1.624,1.569-4.674,2.136-7.129,2.279-7.009.407-7,.236-8.8,6.893-3.059,11.308-7.909,21.573-17.5,28.9a38.966,38.966,0,0,1-22.121,7.948c-5.513.283-7.921-2.1-8.011-7.666-.09-5.55.255-5.97,5.7-6.945,14.814-2.649,23.769-12.519,25.911-29.128H192.433c1.289-4.984,2.323-9.471,3.714-13.844.21-.662,2.075-1.113,3.181-1.125,7.045-.082,14.1-.11,21.138.058,2.389.057,3.5-.7,3.932-3.06a62.881,62.881,0,0,1,2.19-8.575c.316-.946,1.486-2.244,2.313-2.279C233.867,219.162,238.848,219.27,244.478,219.27Z"/>
            <path class="cls-7" d="M152.708,292.106c1.523-7.6,2.76-14.638,4.363-21.591,3.854-16.717,7.884-33.393,11.829-50.09.468-1.981,1.16-3.5,4.036-2.253q-1.122,4.465-2.252,8.957l.988.272c.71-2.511,1.462-5.012,2.115-7.538.48-1.858,1.282-2.876,3.582-1.6L174,230.866l.967.284c1.073-3.621,2.213-7.225,3.195-10.871.636-2.359,1.9-3.2,4.749-2.09l-5.289,17.173.908.363c.409-.795.863-1.57,1.222-2.387,1.734-3.953,3.469-7.907,5.153-11.881,1.354-3.2,3.57-4.543,7.374-3.306-.769,1.318-1.555,2.6-2.277,3.918A162.519,162.519,0,0,0,173.444,268.1c-1.405,6.9-2.606,13.851-3.758,20.8-.38,2.294-1.247,3.361-3.743,3.255C161.77,291.977,157.584,292.106,152.708,292.106Z"/>
          </g>
          <g>
            <path class="cls-7" d="M244.478,219.27l-3.4,14.052H256.13c-.385,5.045-1.4,9.477-4.635,12.6-1.624,1.569-4.674,2.136-7.129,2.279-7.009.407-7,.236-8.8,6.893-3.059,11.308-7.909,21.573-17.5,28.9a38.966,38.966,0,0,1-22.121,7.948c-5.513.283-7.921-2.1-8.011-7.666-.09-5.55.255-5.97,5.7-6.945,14.814-2.649,23.769-12.519,25.911-29.128H192.433c1.289-4.984,2.323-9.471,3.714-13.844.21-.662,2.075-1.113,3.181-1.125,7.045-.082,14.1-.11,21.138.058,2.389.057,3.5-.7,3.932-3.06a62.881,62.881,0,0,1,2.19-8.575c.316-.946,1.486-2.244,2.313-2.279C233.867,219.162,238.848,219.27,244.478,219.27Z"/>
            <path class="cls-7" d="M152.708,292.106c1.523-7.6,2.76-14.638,4.363-21.591,3.854-16.717,7.884-33.393,11.829-50.09.468-1.981,1.16-3.5,4.036-2.253q-1.122,4.465-2.252,8.957l.988.272c.71-2.511,1.462-5.012,2.115-7.538.48-1.858,1.282-2.876,3.582-1.6L174,230.866l.967.284c1.073-3.621,2.213-7.225,3.195-10.871.636-2.359,1.9-3.2,4.749-2.09l-5.289,17.173.908.363c.409-.795.863-1.57,1.222-2.387,1.734-3.953,3.469-7.907,5.153-11.881,1.354-3.2,3.57-4.543,7.374-3.306-.769,1.318-1.555,2.6-2.277,3.918A162.519,162.519,0,0,0,173.444,268.1c-1.405,6.9-2.606,13.851-3.758,20.8-.38,2.294-1.247,3.361-3.743,3.255C161.77,291.977,157.584,292.106,152.708,292.106Z"/>
          </g>
          <g>
            <path class="cls-7" d="M244.478,219.27l-3.4,14.052H256.13c-.385,5.045-1.4,9.477-4.635,12.6-1.624,1.569-4.674,2.136-7.129,2.279-7.009.407-7,.236-8.8,6.893-3.059,11.308-7.909,21.573-17.5,28.9a38.966,38.966,0,0,1-22.121,7.948c-5.513.283-7.921-2.1-8.011-7.666-.09-5.55.255-5.97,5.7-6.945,14.814-2.649,23.769-12.519,25.911-29.128H192.433c1.289-4.984,2.323-9.471,3.714-13.844.21-.662,2.075-1.113,3.181-1.125,7.045-.082,14.1-.11,21.138.058,2.389.057,3.5-.7,3.932-3.06a62.881,62.881,0,0,1,2.19-8.575c.316-.946,1.486-2.244,2.313-2.279C233.867,219.162,238.848,219.27,244.478,219.27Z"/>
            <path class="cls-7" d="M152.708,292.106c1.523-7.6,2.76-14.638,4.363-21.591,3.854-16.717,7.884-33.393,11.829-50.09.468-1.981,1.16-3.5,4.036-2.253q-1.122,4.465-2.252,8.957l.988.272c.71-2.511,1.462-5.012,2.115-7.538.48-1.858,1.282-2.876,3.582-1.6L174,230.866l.967.284c1.073-3.621,2.213-7.225,3.195-10.871.636-2.359,1.9-3.2,4.749-2.09l-5.289,17.173.908.363c.409-.795.863-1.57,1.222-2.387,1.734-3.953,3.469-7.907,5.153-11.881,1.354-3.2,3.57-4.543,7.374-3.306-.769,1.318-1.555,2.6-2.277,3.918A162.519,162.519,0,0,0,173.444,268.1c-1.405,6.9-2.606,13.851-3.758,20.8-.38,2.294-1.247,3.361-3.743,3.255C161.77,291.977,157.584,292.106,152.708,292.106Z"/>
          </g>
        </g>
      </g>
      <g>
        <g>
          <g>
            <path class="cls-3" d="M257.376,267.749l-5.861,2.691a.606.606,0,0,1-.713-.154c-4.649-5.532-2.456-14.6,4.681-17.92,9.372-4.355,18.923-8.328,28.4-12.455,2.183-.95,4.373-1.883,6.562-2.816l-.457-2.238H267.483a.6.6,0,0,1-.6-.585l-.011-.349a.6.6,0,0,1,.577-.622l12.039-.541a.6.6,0,0,0,.577-.593v-.012a.6.6,0,0,0-.6-.614H268.144a.6.6,0,0,1-.584-.45l-.168-.633a.6.6,0,0,1,.285-.679,6.214,6.214,0,0,1,2.384-1.064c2.945-.178,5.907-.057,8.862-.107.852-.014,1.7-.133,2.554-.231a.606.606,0,0,0,.538-.619l-.006-.2a.606.606,0,0,0-.608-.586c-2.851.017-5.711.142-8.545-.068a10.6,10.6,0,0,1-2.953-.805.6.6,0,0,1,.02-1.137,10.217,10.217,0,0,1,2.84-.67c3.835-.163,7.681-.067,11.523-.058a.607.607,0,0,0,.6-.517l.018-.124a.6.6,0,0,0-.374-.65,8.954,8.954,0,0,0-1.7-.568c-3.578-.636-7.165-1.22-10.751-1.805-2.327-.38-3.237-1.423-2.551-2.922a.624.624,0,0,1,.623-.365c9.985,1,19.6,2.309,29.259,2.783s19.365.118,28.953.106a.612.612,0,0,1,.6.5c1.2,6.8-1.333,12.312-6.99,15.411-4.054,2.221-8.191,4.293-12.807,6.669a.605.605,0,0,0,.208,1.139c1.983.231,3.642.4,5.264.742,11.658,2.47,17.589,12.06,14.37,23.5-3.407,12.106-11.871,19.367-23.439,23.209a63.4,63.4,0,0,1-35.629,1.534,26.432,26.432,0,0,1-6.3-2.52c-5.791-3.162-7.634-8.544-5.605-14.768a38.071,38.071,0,0,0,1.2-6.441Zm2.723,2.3a.605.605,0,0,0,.986.322c8.818-7.456,18.671-8.616,29.173-5.7,5.6,1.554,10.417,4.318,11.158,10.812a.6.6,0,0,0,.718.539,13.229,13.229,0,0,0,9.089-7.114c1.7-3.9.793-7.414-3.057-9.211a28.345,28.345,0,0,0-9.086-2.469c-12.958-1.261-24.894,2.453-36.469,7.885C260.271,266.209,259.578,267.6,260.1,270.046Zm28.349,9.628a.613.613,0,0,0,.368-.893c-2.458-4.318-9.559-6.391-13.258-3.874-1.977,1.346-1.919,2.862.158,3.821A18.308,18.308,0,0,0,288.448,279.674Z"/>
            <path class="cls-3" d="M257.376,267.749l-5.861,2.691a.606.606,0,0,1-.713-.154c-4.649-5.532-2.456-14.6,4.681-17.92,9.372-4.355,18.923-8.328,28.4-12.455,2.183-.95,4.373-1.883,6.562-2.816l-.457-2.238H267.483a.6.6,0,0,1-.6-.585l-.011-.349a.6.6,0,0,1,.577-.622l12.039-.541a.6.6,0,0,0,.577-.593v-.012a.6.6,0,0,0-.6-.614H268.144a.6.6,0,0,1-.584-.45l-.168-.633a.6.6,0,0,1,.285-.679,6.214,6.214,0,0,1,2.384-1.064c2.945-.178,5.907-.057,8.862-.107.852-.014,1.7-.133,2.554-.231a.606.606,0,0,0,.538-.619l-.006-.2a.606.606,0,0,0-.608-.586c-2.851.017-5.711.142-8.545-.068a10.6,10.6,0,0,1-2.953-.805.6.6,0,0,1,.02-1.137,10.217,10.217,0,0,1,2.84-.67c3.835-.163,7.681-.067,11.523-.058a.607.607,0,0,0,.6-.517l.018-.124a.6.6,0,0,0-.374-.65,8.954,8.954,0,0,0-1.7-.568c-3.578-.636-7.165-1.22-10.751-1.805-2.327-.38-3.237-1.423-2.551-2.922a.624.624,0,0,1,.623-.365c9.985,1,19.6,2.309,29.259,2.783s19.365.118,28.953.106a.612.612,0,0,1,.6.5c1.2,6.8-1.333,12.312-6.99,15.411-4.054,2.221-8.191,4.293-12.807,6.669a.605.605,0,0,0,.208,1.139c1.983.231,3.642.4,5.264.742,11.658,2.47,17.589,12.06,14.37,23.5-3.407,12.106-11.871,19.367-23.439,23.209a63.4,63.4,0,0,1-35.629,1.534,26.432,26.432,0,0,1-6.3-2.52c-5.791-3.162-7.634-8.544-5.605-14.768a38.071,38.071,0,0,0,1.2-6.441Zm2.723,2.3a.605.605,0,0,0,.986.322c8.818-7.456,18.671-8.616,29.173-5.7,5.6,1.554,10.417,4.318,11.158,10.812a.6.6,0,0,0,.718.539,13.229,13.229,0,0,0,9.089-7.114c1.7-3.9.793-7.414-3.057-9.211a28.345,28.345,0,0,0-9.086-2.469c-12.958-1.261-24.894,2.453-36.469,7.885C260.271,266.209,259.578,267.6,260.1,270.046Zm28.349,9.628a.613.613,0,0,0,.368-.893c-2.458-4.318-9.559-6.391-13.258-3.874-1.977,1.346-1.919,2.862.158,3.821A18.308,18.308,0,0,0,288.448,279.674Z"/>
          </g>
          <path class="cls-3" d="M285.1,296.426a65.4,65.4,0,0,1-15.563-1.9,27.974,27.974,0,0,1-6.711-2.679c-6.41-3.5-8.746-9.622-6.409-16.794a28.787,28.787,0,0,0,.982-5.07l.011-.079-.247-.185-4.938,2.267a2.314,2.314,0,0,1-2.73-.6,12.546,12.546,0,0,1-2.528-10.9,13.929,13.929,0,0,1,7.794-9.671c6.7-3.113,13.592-6.075,20.258-8.94q4.094-1.76,8.182-3.532,2.067-.9,4.143-1.785H267.483a2.3,2.3,0,0,1-2.309-2.234l-.011-.352a2.319,2.319,0,0,1,.951-1.935,2.3,2.3,0,0,1-.2-.513l-.168-.632a2.309,2.309,0,0,1,1.1-2.6c.143-.081.285-.165.428-.25a9.879,9.879,0,0,1,1.383-.725,2.314,2.314,0,0,1,.715-3.973,11.6,11.6,0,0,1,3.323-.761c.318-.013.635-.025.953-.035l-1.835-.3c-1.931-.315-3.223-1.06-3.838-2.213a3.371,3.371,0,0,1,.009-3.1,2.332,2.332,0,0,1,2.341-1.353c2.981.3,5.926.623,8.849.945,6.992.772,13.6,1.5,20.328,1.832,6.787.332,13.718.251,20.425.174,2.821-.033,5.637-.066,8.442-.07h0a2.308,2.308,0,0,1,2.279,1.911c1.318,7.479-1.543,13.749-7.849,17.2-3.119,1.709-6.3,3.335-9.66,5.056.629.093,1.242.2,1.859.328,6.157,1.306,11.1,4.595,13.925,9.264,2.79,4.614,3.4,10.426,1.732,16.368-3.34,11.868-11.6,20.066-24.543,24.367A66.406,66.406,0,0,1,285.1,296.426Zm-24.569-24.212a24.431,24.431,0,0,1-.87,3.9c-1.277,3.92-1.482,9.313,4.8,12.743a24.594,24.594,0,0,0,5.887,2.36,61.875,61.875,0,0,0,34.684-1.5c11.973-3.977,19.278-11.191,22.336-22.053,1.434-5.1.961-9.826-1.369-13.679-2.362-3.908-6.413-6.568-11.712-7.691-1.334-.282-2.733-.443-4.354-.629l-.754-.087a2.311,2.311,0,0,1-.791-4.35l3.167-1.624c3.35-1.714,6.515-3.334,9.6-5.024,4.76-2.607,6.963-7.1,6.266-12.708-2.482.009-4.97.038-7.464.067-6.752.079-13.737.161-20.632-.178-6.835-.335-13.489-1.07-20.534-1.848l-.449-.049c1.592.267,3.192.541,4.786.823a9.17,9.17,0,0,1,1.806.574l.219.088a2.3,2.3,0,0,1,1.435,2.485l-.019.126a2.325,2.325,0,0,1-2.286,1.972h0q-.624,0-1.247-.006a2.315,2.315,0,0,1,.678,1.568l.007.2a2.3,2.3,0,0,1-2.046,2.371l-.42.05-.569.067a2.325,2.325,0,0,1,.419.338,2.317,2.317,0,0,1,.434,2.625h9.844l1.014,4.967-1.413.6c-2.141.913-4.284,1.826-6.419,2.755q-4.09,1.782-8.2,3.538c-6.643,2.855-13.513,5.808-20.168,8.9a10.538,10.538,0,0,0-5.9,7.316,9.253,9.253,0,0,0,1.3,7.294l5.984-2.748,1.053.788a6.1,6.1,0,0,1,3.246-3c14.252-6.688,25.777-9.169,37.36-8.038a29.88,29.88,0,0,1,9.643,2.62c4.549,2.123,6.043,6.5,3.9,11.436a14.917,14.917,0,0,1-10.28,8.1,2.279,2.279,0,0,1-1.819-.368,2.333,2.333,0,0,1-.967-1.643c-.546-4.781-3.512-7.581-9.919-9.36-10.779-2.993-19.814-1.241-27.615,5.359A2.289,2.289,0,0,1,260.534,272.214Zm42.576,3.069v0Zm-23.053-13.814a39.823,39.823,0,0,1,10.657,1.555c4.616,1.282,10.769,3.81,12.2,11.006a11.4,11.4,0,0,0,6.743-5.8c.982-2.257,1.394-5.3-2.214-6.985a26.8,26.8,0,0,0-8.529-2.317,56.8,56.8,0,0,0-23.49,2.887A30.946,30.946,0,0,1,280.057,261.469Zm-18.29,8.218v0h0Zm.77-2.6c-.076.051-.148.1-.215.153ZM283.9,224.522l.007,0Zm-.686,57.566A19.387,19.387,0,0,1,275,280.276c-2.1-.97-2.519-2.37-2.58-3.118-.078-.941.236-2.34,2.178-3.661a9.925,9.925,0,0,1,7.78-1.05,12.274,12.274,0,0,1,7.92,5.491,2.319,2.319,0,0,1-1.414,3.385h0A22.172,22.172,0,0,1,283.21,282.088Zm-7.314-5.229a2.436,2.436,0,0,0,.536.32,16.117,16.117,0,0,0,9.966,1.207,9.756,9.756,0,0,0-4.79-2.615,6.651,6.651,0,0,0-5.089.546A2.818,2.818,0,0,0,275.9,276.859Z"/>
        </g>
        <g>
          <g>
            <path class="cls-3" d="M132.719,273.557c.848,9.1-3.583,15.53-11.839,16.919-14,2.357-28.095,3.188-41.836-1.28-11.629-3.781-15.232-13.058-9.762-24.1,5.023-10.136,13.974-14.71,24.639-15.966,5.232-.617,10.626.081,15.943.273a45.28,45.28,0,0,1,4.875.755c-.69-2.357-.933-4.338-1.866-5.907-.5-.845-2.187-1.376-3.341-1.382-10.911-.055-21.824.073-32.735.029a18.067,18.067,0,0,1-4.235-1.056,19.513,19.513,0,0,1,4.217-1.494,55.662,55.662,0,0,1,6.539-.067l.015-1.6c-2.454,0-4.917.124-7.358-.058a10.99,10.99,0,0,1-3.069-1.221,10.108,10.108,0,0,1,3.037-1.229c3.18-.162,6.373-.059,9.561-.059l-.023-1.908c-1.885,0-3.771-.008-5.656,0a41.867,41.867,0,0,1-4.766,0c-.693-.075-1.313-.813-1.966-1.251.647-.469,1.277-1.311,1.945-1.344,3.29-.161,6.59-.092,9.886-.138,1.05-.014,2.1-.131,3.148-.2l.122-1.055c-1.318-.27-2.629-.582-3.956-.8-2.686-.447-5.373-.9-8.074-1.245-3.036-.383-3.449-2.019-2.278-4.789a107.706,107.706,0,0,0,35.292,3.714l-1.51-9.8c5.965,0,11.5-.109,17.027.12.818.034,2.031,1.56,2.275,2.583,1.608,6.746,1.537,6.747,8.544,6.72,6.115-.023,12.231,0,19.015,0-.991,5.393-1.6,10.345-5.47,13.968a7.22,7.22,0,0,1-4.365,1.361c-4.275.176-8.563.062-13.339.062,2.083,8.732,4.017,16.843,6.071,25.457-6.515,0-12.51.067-18.5-.064-1.029-.023-2.067-.842-3.055-1.377a32.909,32.909,0,0,0-21.815-3.31,15.157,15.157,0,0,0-2.623.738c-3.9,1.422-6.566,4.273-6.121,6.9.642,3.788,3.915,4.46,6.9,5.063,9.385,1.895,18.785,1.082,28.164-.189C124.418,274.778,128.45,274.171,132.719,273.557Z"/>
            <path class="cls-3" d="M132.719,273.557c.848,9.1-3.583,15.53-11.839,16.919-14,2.357-28.095,3.188-41.836-1.28-11.629-3.781-15.232-13.058-9.762-24.1,5.023-10.136,13.974-14.71,24.639-15.966,5.232-.617,10.626.081,15.943.273a45.28,45.28,0,0,1,4.875.755c-.69-2.357-.933-4.338-1.866-5.907-.5-.845-2.187-1.376-3.341-1.382-10.911-.055-21.824.073-32.735.029a18.067,18.067,0,0,1-4.235-1.056,19.513,19.513,0,0,1,4.217-1.494,55.662,55.662,0,0,1,6.539-.067l.015-1.6c-2.454,0-4.917.124-7.358-.058a10.99,10.99,0,0,1-3.069-1.221,10.108,10.108,0,0,1,3.037-1.229c3.18-.162,6.373-.059,9.561-.059l-.023-1.908c-1.885,0-3.771-.008-5.656,0a41.867,41.867,0,0,1-4.766,0c-.693-.075-1.313-.813-1.966-1.251.647-.469,1.277-1.311,1.945-1.344,3.29-.161,6.59-.092,9.886-.138,1.05-.014,2.1-.131,3.148-.2l.122-1.055c-1.318-.27-2.629-.582-3.956-.8-2.686-.447-5.373-.9-8.074-1.245-3.036-.383-3.449-2.019-2.278-4.789a107.706,107.706,0,0,0,35.292,3.714l-1.51-9.8c5.965,0,11.5-.109,17.027.12.818.034,2.031,1.56,2.275,2.583,1.608,6.746,1.537,6.747,8.544,6.72,6.115-.023,12.231,0,19.015,0-.991,5.393-1.6,10.345-5.47,13.968a7.22,7.22,0,0,1-4.365,1.361c-4.275.176-8.563.062-13.339.062,2.083,8.732,4.017,16.843,6.071,25.457-6.515,0-12.51.067-18.5-.064-1.029-.023-2.067-.842-3.055-1.377a32.909,32.909,0,0,0-21.815-3.31,15.157,15.157,0,0,0-2.623.738c-3.9,1.422-6.566,4.273-6.121,6.9.642,3.788,3.915,4.46,6.9,5.063,9.385,1.895,18.785,1.082,28.164-.189C124.418,274.778,128.45,274.171,132.719,273.557Z"/>
          </g>
          <path class="cls-3" d="M100.671,294.1a71.356,71.356,0,0,1-22.154-3.283c-6.073-1.974-10.31-5.46-12.253-10.079-1.993-4.738-1.478-10.408,1.49-16.395,4.835-9.757,13.571-15.444,25.968-16.9a66.114,66.114,0,0,1,11.806.027c1.468.091,2.936.183,4.4.236a17.054,17.054,0,0,1,2.493.308,10.962,10.962,0,0,0-1.011-2.884,3.693,3.693,0,0,0-1.885-.548c-5.635-.029-11.368-.008-16.912.012-5.273.018-10.546.038-15.82.016a11.041,11.041,0,0,1-3.423-.728c-.412-.137-.824-.274-1.236-.382l-5.24-1.366,5.078-1.883c.4-.15.8-.326,1.205-.5l.343-.149c-.148-.073-.291-.146-.432-.218-.278-.142-.556-.285-.836-.4l-3.739-1.56,3.729-1.584c.276-.117.548-.262.822-.406l.258-.136c-.26-.177-.494-.37-.707-.546-.156-.129-.31-.261-.468-.367l-2.036-1.362,1.985-1.437a5.761,5.761,0,0,0,.459-.395,3.907,3.907,0,0,1,2.4-1.271q.5-.025,1.01-.042l-.015,0c-1.923-.243-3.19-.94-3.878-2.132-.97-1.685-.326-3.669.242-5.014l.582-1.377,1.442.4A105.542,105.542,0,0,0,107.2,225.5l-1.524-9.9h1.988q2.212,0,4.351-.014c4.4-.019,8.551-.04,12.747.135,1.809.075,3.5,2.355,3.863,3.891l.047.2c.62,2.6,1.03,4.324,1.611,4.771.6.46,2.442.453,5.22.443,4.186-.017,8.376-.012,12.776-.009l8.294,0-.6,3.287c-.915,5.1-1.778,9.91-5.751,13.631-1.552,1.453-4.088,1.764-5.462,1.82-3.085.127-6.156.1-9.4.082l-1.844-.012,6.068,25.451h-2.16c-1.665,0-3.295,0-4.9.009-4.709.012-9.158.025-13.637-.074a6.449,6.449,0,0,1-3.171-1.2c-.222-.135-.442-.268-.659-.386A31.018,31.018,0,0,0,94.342,264.5a13.372,13.372,0,0,0-2.326.658c-3.462,1.262-5.273,3.538-5.024,5.009.427,2.517,2.391,3.036,5.559,3.677,8.687,1.753,17.314,1.185,27.6-.208,2.787-.377,5.57-.783,8.428-1.2l5.675-.822.166,1.785c.935,10.039-4.144,17.227-13.254,18.76A123.213,123.213,0,0,1,100.671,294.1Zm-2.089-43.508a38.214,38.214,0,0,0-4.462.236c-11.334,1.335-18.959,6.251-23.309,15.03-2.514,5.073-3,9.76-1.4,13.557,1.547,3.679,5.061,6.5,10.162,8.158,14.592,4.745,29.589,3.144,41.026,1.221,6.747-1.136,10.587-6.047,10.517-13.281l-2.045.3c-2.871.418-5.665.826-8.464,1.205-10.623,1.438-19.575,2.018-28.73.171-3.125-.631-7.406-1.5-8.246-6.451-.578-3.412,2.391-7.024,7.219-8.784a16.512,16.512,0,0,1,2.923-.816,34.759,34.759,0,0,1,22.912,3.491c.262.143.53.3.8.466a4.657,4.657,0,0,0,1.481.706c4.438.1,8.865.085,13.554.072l2.75-.007L129.2,240.405h2.16c1.381,0,2.721.01,4.032.019,3.206.021,6.234.043,9.237-.079a5.73,5.73,0,0,0,3.27-.9c2.985-2.8,3.8-6.606,4.594-11.018l-4.208,0c-4.4-.006-8.58-.008-12.759.008-7.76.05-8.413-.483-10.164-7.834l-.046-.2a3.187,3.187,0,0,0-.891-1.282c-4.048-.161-8.1-.142-12.385-.123q-1.18.006-2.379.009l1.493,9.692-1.871.11a108.891,108.891,0,0,1-34.262-3.35,1.038,1.038,0,0,0,.012.58c.049.084.385.328,1.35.45,2.492.314,5,.731,7.418,1.134l.722.12c.95.158,1.888.36,2.8.554.408.088.815.176,1.223.26l1.533.314-.463,4.02-1.42.094c-.322.022-.644.048-.965.074l-.048,0,.057,4.763H85.049l-.034,3.381q3.792-.006,7.584-.023c5.55-.02,11.292-.041,16.941-.011,1.4.007,3.841.6,4.8,2.215a15.379,15.379,0,0,1,1.511,4.291c.156.634.32,1.3.526,2.009l.759,2.59-2.665-.427c-.706-.113-1.339-.232-1.924-.342a18.857,18.857,0,0,0-2.744-.392c-1.491-.054-2.988-.147-4.486-.24C103.092,250.734,100.822,250.593,98.582,250.593Z"/>
        </g>
        <g>
          <g>
            <path class="cls-3" d="M244.478,219.27l-3.4,14.052H256.13c-.385,5.045-1.4,9.477-4.635,12.6-1.624,1.569-4.674,2.136-7.129,2.279-7.009.407-7,.236-8.8,6.893-3.059,11.308-7.909,21.573-17.5,28.9a38.966,38.966,0,0,1-22.121,7.948c-5.513.283-7.921-2.1-8.011-7.666-.09-5.55.255-5.97,5.7-6.945,14.814-2.649,23.769-12.519,25.911-29.128H192.433c1.289-4.984,2.323-9.471,3.714-13.844.21-.662,2.075-1.113,3.181-1.125,7.045-.082,14.1-.11,21.138.058,2.389.057,3.5-.7,3.932-3.06a62.881,62.881,0,0,1,2.19-8.575c.316-.946,1.486-2.244,2.313-2.279C233.867,219.162,238.848,219.27,244.478,219.27Z"/>
            <path class="cls-3" d="M152.708,292.106c1.523-7.6,2.76-14.638,4.363-21.591,3.854-16.717,7.884-33.393,11.829-50.09.468-1.981,1.16-3.5,4.036-2.253q-1.122,4.465-2.252,8.957l.988.272c.71-2.511,1.462-5.012,2.115-7.538.48-1.858,1.282-2.876,3.582-1.6L174,230.866l.967.284c1.073-3.621,2.213-7.225,3.195-10.871.636-2.359,1.9-3.2,4.749-2.09l-5.289,17.173.908.363c.409-.795.863-1.57,1.222-2.387,1.734-3.953,3.469-7.907,5.153-11.881,1.354-3.2,3.57-4.543,7.374-3.306-.769,1.318-1.555,2.6-2.277,3.918A162.519,162.519,0,0,0,173.444,268.1c-1.405,6.9-2.606,13.851-3.758,20.8-.38,2.294-1.247,3.361-3.743,3.255C161.77,291.977,157.584,292.106,152.708,292.106Z"/>
          </g>
          <g>
            <path class="cls-3" d="M244.478,219.27l-3.4,14.052H256.13c-.385,5.045-1.4,9.477-4.635,12.6-1.624,1.569-4.674,2.136-7.129,2.279-7.009.407-7,.236-8.8,6.893-3.059,11.308-7.909,21.573-17.5,28.9a38.966,38.966,0,0,1-22.121,7.948c-5.513.283-7.921-2.1-8.011-7.666-.09-5.55.255-5.97,5.7-6.945,14.814-2.649,23.769-12.519,25.911-29.128H192.433c1.289-4.984,2.323-9.471,3.714-13.844.21-.662,2.075-1.113,3.181-1.125,7.045-.082,14.1-.11,21.138.058,2.389.057,3.5-.7,3.932-3.06a62.881,62.881,0,0,1,2.19-8.575c.316-.946,1.486-2.244,2.313-2.279C233.867,219.162,238.848,219.27,244.478,219.27Z"/>
            <path class="cls-3" d="M152.708,292.106c1.523-7.6,2.76-14.638,4.363-21.591,3.854-16.717,7.884-33.393,11.829-50.09.468-1.981,1.16-3.5,4.036-2.253q-1.122,4.465-2.252,8.957l.988.272c.71-2.511,1.462-5.012,2.115-7.538.48-1.858,1.282-2.876,3.582-1.6L174,230.866l.967.284c1.073-3.621,2.213-7.225,3.195-10.871.636-2.359,1.9-3.2,4.749-2.09l-5.289,17.173.908.363c.409-.795.863-1.57,1.222-2.387,1.734-3.953,3.469-7.907,5.153-11.881,1.354-3.2,3.57-4.543,7.374-3.306-.769,1.318-1.555,2.6-2.277,3.918A162.519,162.519,0,0,0,173.444,268.1c-1.405,6.9-2.606,13.851-3.758,20.8-.38,2.294-1.247,3.361-3.743,3.255C161.77,291.977,157.584,292.106,152.708,292.106Z"/>
          </g>
          <g>
            <path class="cls-3" d="M244.478,219.27l-3.4,14.052H256.13c-.385,5.045-1.4,9.477-4.635,12.6-1.624,1.569-4.674,2.136-7.129,2.279-7.009.407-7,.236-8.8,6.893-3.059,11.308-7.909,21.573-17.5,28.9a38.966,38.966,0,0,1-22.121,7.948c-5.513.283-7.921-2.1-8.011-7.666-.09-5.55.255-5.97,5.7-6.945,14.814-2.649,23.769-12.519,25.911-29.128H192.433c1.289-4.984,2.323-9.471,3.714-13.844.21-.662,2.075-1.113,3.181-1.125,7.045-.082,14.1-.11,21.138.058,2.389.057,3.5-.7,3.932-3.06a62.881,62.881,0,0,1,2.19-8.575c.316-.946,1.486-2.244,2.313-2.279C233.867,219.162,238.848,219.27,244.478,219.27Z"/>
            <path class="cls-3" d="M152.708,292.106c1.523-7.6,2.76-14.638,4.363-21.591,3.854-16.717,7.884-33.393,11.829-50.09.468-1.981,1.16-3.5,4.036-2.253q-1.122,4.465-2.252,8.957l.988.272c.71-2.511,1.462-5.012,2.115-7.538.48-1.858,1.282-2.876,3.582-1.6L174,230.866l.967.284c1.073-3.621,2.213-7.225,3.195-10.871.636-2.359,1.9-3.2,4.749-2.09l-5.289,17.173.908.363c.409-.795.863-1.57,1.222-2.387,1.734-3.953,3.469-7.907,5.153-11.881,1.354-3.2,3.57-4.543,7.374-3.306-.769,1.318-1.555,2.6-2.277,3.918A162.519,162.519,0,0,0,173.444,268.1c-1.405,6.9-2.606,13.851-3.758,20.8-.38,2.294-1.247,3.361-3.743,3.255C161.77,291.977,157.584,292.106,152.708,292.106Z"/>
          </g>
          <g>
            <path class="cls-3" d="M244.478,219.27l-3.4,14.052H256.13c-.385,5.045-1.4,9.477-4.635,12.6-1.624,1.569-4.674,2.136-7.129,2.279-7.009.407-7,.236-8.8,6.893-3.059,11.308-7.909,21.573-17.5,28.9a38.966,38.966,0,0,1-22.121,7.948c-5.513.283-7.921-2.1-8.011-7.666-.09-5.55.255-5.97,5.7-6.945,14.814-2.649,23.769-12.519,25.911-29.128H192.433c1.289-4.984,2.323-9.471,3.714-13.844.21-.662,2.075-1.113,3.181-1.125,7.045-.082,14.1-.11,21.138.058,2.389.057,3.5-.7,3.932-3.06a62.881,62.881,0,0,1,2.19-8.575c.316-.946,1.486-2.244,2.313-2.279C233.867,219.162,238.848,219.27,244.478,219.27Z"/>
            <path class="cls-3" d="M152.708,292.106c1.523-7.6,2.76-14.638,4.363-21.591,3.854-16.717,7.884-33.393,11.829-50.09.468-1.981,1.16-3.5,4.036-2.253q-1.122,4.465-2.252,8.957l.988.272c.71-2.511,1.462-5.012,2.115-7.538.48-1.858,1.282-2.876,3.582-1.6L174,230.866l.967.284c1.073-3.621,2.213-7.225,3.195-10.871.636-2.359,1.9-3.2,4.749-2.09l-5.289,17.173.908.363c.409-.795.863-1.57,1.222-2.387,1.734-3.953,3.469-7.907,5.153-11.881,1.354-3.2,3.57-4.543,7.374-3.306-.769,1.318-1.555,2.6-2.277,3.918A162.519,162.519,0,0,0,173.444,268.1c-1.405,6.9-2.606,13.851-3.758,20.8-.38,2.294-1.247,3.361-3.743,3.255C161.77,291.977,157.584,292.106,152.708,292.106Z"/>
          </g>
        </g>
      </g>
    </g>
    <g>
      <g>
        <path class="cls-8" d="M336.664,287.3c5.789-2.1,11.626-2.861,14.789-9.311H339.878c-.074-6.517.921-7.556,6.611-7.622a34.27,34.27,0,0,0,5.964-.24c1.185-.227,2.21-1.289,3.307-1.975l-.545-1.227H345.8c-.253-5.047.612-5.931,4.878-6.452a77.892,77.892,0,0,0,10.545-1.991c3.311-.88,6.5-2.231,10.14-3.518.51,2.193,1.516,4.289,1.265,6.222-.169,1.3-1.916,2.85-3.313,3.428-2.454,1.015-4.751,1.755-4.394,5.5h9.417c-.241,5.349-2.263,7.734-6.946,7.532-4-.172-6.458,1.067-8.72,4.543-4.048,6.216-10.651,9.151-17.584,10.865C338.321,295.273,338.331,289.52,336.664,287.3Z"/>
        <path class="cls-8" d="M336.664,287.3c5.789-2.1,11.626-2.861,14.789-9.311H339.878c-.074-6.517.921-7.556,6.611-7.622a34.27,34.27,0,0,0,5.964-.24c1.185-.227,2.21-1.289,3.307-1.975l-.545-1.227H345.8c-.253-5.047.612-5.931,4.878-6.452a77.892,77.892,0,0,0,10.545-1.991c3.311-.88,6.5-2.231,10.14-3.518.51,2.193,1.516,4.289,1.265,6.222-.169,1.3-1.916,2.85-3.313,3.428-2.454,1.015-4.751,1.755-4.394,5.5h9.417c-.241,5.349-2.263,7.734-6.946,7.532-4-.172-6.458,1.067-8.72,4.543-4.048,6.216-10.651,9.151-17.584,10.865C338.321,295.273,338.331,289.52,336.664,287.3Z"/>
      </g>
      <g>
        <path class="cls-9" d="M336.664,287.3c5.789-2.1,11.626-2.861,14.789-9.311H339.878c-.074-6.517.921-7.556,6.611-7.622a34.27,34.27,0,0,0,5.964-.24c1.185-.227,2.21-1.289,3.307-1.975l-.545-1.227H345.8c-.253-5.047.612-5.931,4.878-6.452a77.892,77.892,0,0,0,10.545-1.991c3.311-.88,6.5-2.231,10.14-3.518.51,2.193,1.516,4.289,1.265,6.222-.169,1.3-1.916,2.85-3.313,3.428-2.454,1.015-4.751,1.755-4.394,5.5h9.417c-.241,5.349-2.263,7.734-6.946,7.532-4-.172-6.458,1.067-8.72,4.543-4.048,6.216-10.651,9.151-17.584,10.865C338.321,295.273,338.331,289.52,336.664,287.3Z"/>
        <path class="cls-3" d="M336.664,287.3c5.789-2.1,11.626-2.861,14.789-9.311H339.878c-.074-6.517.921-7.556,6.611-7.622a34.27,34.27,0,0,0,5.964-.24c1.185-.227,2.21-1.289,3.307-1.975l-.545-1.227H345.8c-.253-5.047.612-5.931,4.878-6.452a77.892,77.892,0,0,0,10.545-1.991c3.311-.88,6.5-2.231,10.14-3.518.51,2.193,1.516,4.289,1.265,6.222-.169,1.3-1.916,2.85-3.313,3.428-2.454,1.015-4.751,1.755-4.394,5.5h9.417c-.241,5.349-2.263,7.734-6.946,7.532-4-.172-6.458,1.067-8.72,4.543-4.048,6.216-10.651,9.151-17.584,10.865C338.321,295.273,338.331,289.52,336.664,287.3Z"/>
      </g>
    </g>
    <g>
      <path class="cls-10" d="M407.606,268.155c-.274,4.146-1.7,7.226-5.278,7.552-5.6.512-11.278.136-16.936.136.489-6.912,1.281-7.672,7.741-7.686C397.879,268.147,402.624,268.155,407.606,268.155Z"/>
      <path class="cls-11" d="M407.606,268.155c-.274,4.146-1.7,7.226-5.278,7.552-5.6.512-11.278.136-16.936.136.489-6.912,1.281-7.672,7.741-7.686C397.879,268.147,402.624,268.155,407.606,268.155Z"/>
      <path class="cls-3" d="M407.606,268.155c-.274,4.146-1.7,7.226-5.278,7.552-5.6.512-11.278.136-16.936.136.489-6.912,1.281-7.672,7.741-7.686C397.879,268.147,402.624,268.155,407.606,268.155Z"/>
    </g>
    <g>
      <g>
        <g>
          <path class="cls-3" d="M434.342,266.5h-14.12c.475-6.388,1.444-7.361,7.058-7.378,6.358-.018,12.716,0,20.574,0-2.752,4.888-4.769,8.966-7.27,12.721-1.456,2.185-2.223,3.847.024,5.806a6.32,6.32,0,0,1,.908,1.307c4.991,7.435,4.627,8.677-4.03,12.864L432.22,281.8l-18.73,10.6c-4.166-5.4-3.958-6.369,1.3-8.673A40.992,40.992,0,0,0,434.342,266.5Z"/>
          <path d="M413.386,292.918l-.212-.274c-2.22-2.878-3.281-4.6-2.92-6.009.328-1.285,1.791-2.143,4.376-3.276a40.483,40.483,0,0,0,19-16.46H419.792l.032-.428c.488-6.573,1.6-7.731,7.454-7.748,4.328-.014,8.655-.012,13.451-.007l7.809,0-.335.6c-.85,1.509-1.63,2.941-2.376,4.31-1.7,3.127-3.173,5.827-4.91,8.437-1.582,2.374-1.938,3.633-.046,5.283a3.779,3.779,0,0,1,.731.983c.08.137.16.274.246.4,2.568,3.827,3.7,5.98,3.187,7.873-.532,1.963-2.8,3.362-7.376,5.574l-.347.169-5.254-10Zm7.268-26.817h14.393l-.362.6a41.347,41.347,0,0,1-19.735,17.387c-2.3,1.007-3.676,1.778-3.923,2.741-.267,1.047.691,2.594,2.569,5.048l18.786-10.633,5.277,10.04c4.033-1.966,6.168-3.286,6.605-4.9.428-1.584-.7-3.673-3.08-7.218-.1-.143-.184-.294-.273-.445a3.2,3.2,0,0,0-.565-.785c-2.522-2.2-1.534-4.166-.1-6.328,1.719-2.579,3.181-5.265,4.875-8.375.648-1.191,1.322-2.43,2.046-3.724l-6.443,0c-4.8,0-9.123,0-13.449.006C422.015,259.537,421.118,260.35,420.654,266.1Z"/>
        </g>
        <g>
          <path class="cls-3" d="M454.992,258.694c-2.273,4-2.273,4-6.411,3.4l3.572-5.38a1.726,1.726,0,0,1,3.165,1.033A1.907,1.907,0,0,1,454.992,258.694Z"/>
          <path d="M451.241,262.775a21.081,21.081,0,0,1-2.717-.286l-.626-.09,3.922-5.907a2.12,2.12,0,0,1,2.488-.83,2.03,2.03,0,0,1,1.409,2.115,2.314,2.314,0,0,1-.385,1.128C453.615,261.922,453.08,262.775,451.241,262.775Zm-1.977-.988c3.251.455,3.366.252,5.381-3.29l.017-.027a1.513,1.513,0,0,0,.258-.753,1.239,1.239,0,0,0-.872-1.3,1.319,1.319,0,0,0-1.562.517Z"/>
        </g>
        <g>
          <path class="cls-3" d="M461.386,258.694c-2.273,4-2.273,4-6.411,3.4l3.572-5.38a1.726,1.726,0,0,1,3.165,1.033A1.907,1.907,0,0,1,461.386,258.694Z"/>
          <path d="M457.635,262.775a21.063,21.063,0,0,1-2.717-.286l-.626-.09,3.922-5.906a2.118,2.118,0,0,1,2.487-.831,2.028,2.028,0,0,1,1.409,2.115,2.325,2.325,0,0,1-.383,1.128C460.009,261.922,459.474,262.775,457.635,262.775Zm-1.977-.988c3.246.455,3.366.252,5.381-3.29l.017-.026a1.512,1.512,0,0,0,.257-.754,1.239,1.239,0,0,0-.872-1.3,1.317,1.317,0,0,0-1.561.517Z"/>
        </g>
      </g>
      <g>
        <g>
          <path class="cls-12" d="M434.342,266.5h-14.12c.475-6.388,1.444-7.361,7.058-7.378,6.358-.018,12.716,0,20.574,0-2.752,4.888-4.769,8.966-7.27,12.721-1.456,2.185-2.223,3.847.024,5.806a6.32,6.32,0,0,1,.908,1.307c4.991,7.435,4.627,8.677-4.03,12.864L432.22,281.8l-18.73,10.6c-4.166-5.4-3.958-6.369,1.3-8.673A40.992,40.992,0,0,0,434.342,266.5Z"/>
          <path class="cls-12" d="M413.386,292.918l-.212-.274c-2.22-2.878-3.281-4.6-2.92-6.009.328-1.285,1.791-2.143,4.376-3.276a40.483,40.483,0,0,0,19-16.46H419.792l.032-.428c.488-6.573,1.6-7.731,7.454-7.748,4.328-.014,8.655-.012,13.451-.007l7.809,0-.335.6c-.85,1.509-1.63,2.941-2.376,4.31-1.7,3.127-3.173,5.827-4.91,8.437-1.582,2.374-1.938,3.633-.046,5.283a3.779,3.779,0,0,1,.731.983c.08.137.16.274.246.4,2.568,3.827,3.7,5.98,3.187,7.873-.532,1.963-2.8,3.362-7.376,5.574l-.347.169-5.254-10Zm7.268-26.817h14.393l-.362.6a41.347,41.347,0,0,1-19.735,17.387c-2.3,1.007-3.676,1.778-3.923,2.741-.267,1.047.691,2.594,2.569,5.048l18.786-10.633,5.277,10.04c4.033-1.966,6.168-3.286,6.605-4.9.428-1.584-.7-3.673-3.08-7.218-.1-.143-.184-.294-.273-.445a3.2,3.2,0,0,0-.565-.785c-2.522-2.2-1.534-4.166-.1-6.328,1.719-2.579,3.181-5.265,4.875-8.375.648-1.191,1.322-2.43,2.046-3.724l-6.443,0c-4.8,0-9.123,0-13.449.006C422.015,259.537,421.118,260.35,420.654,266.1Z"/>
        </g>
        <g>
          <path class="cls-12" d="M454.992,258.694c-2.273,4-2.273,4-6.411,3.4l3.572-5.38a1.726,1.726,0,0,1,3.165,1.033A1.907,1.907,0,0,1,454.992,258.694Z"/>
          <path class="cls-12" d="M451.241,262.775a21.081,21.081,0,0,1-2.717-.286l-.626-.09,3.922-5.907a2.12,2.12,0,0,1,2.488-.83,2.03,2.03,0,0,1,1.409,2.115,2.314,2.314,0,0,1-.385,1.128C453.615,261.922,453.08,262.775,451.241,262.775Zm-1.977-.988c3.251.455,3.366.252,5.381-3.29l.017-.027a1.513,1.513,0,0,0,.258-.753,1.239,1.239,0,0,0-.872-1.3,1.319,1.319,0,0,0-1.562.517Z"/>
        </g>
        <g>
          <path class="cls-12" d="M461.386,258.694c-2.273,4-2.273,4-6.411,3.4l3.572-5.38a1.726,1.726,0,0,1,3.165,1.033A1.907,1.907,0,0,1,461.386,258.694Z"/>
          <path class="cls-12" d="M457.635,262.775a21.063,21.063,0,0,1-2.717-.286l-.626-.09,3.922-5.906a2.118,2.118,0,0,1,2.487-.831,2.028,2.028,0,0,1,1.409,2.115,2.325,2.325,0,0,1-.383,1.128C460.009,261.922,459.474,262.775,457.635,262.775Zm-1.977-.988c3.246.455,3.366.252,5.381-3.29l.017-.026a1.512,1.512,0,0,0,.257-.754,1.239,1.239,0,0,0-.872-1.3,1.317,1.317,0,0,0-1.561.517Z"/>
        </g>
      </g>
      <g>
        <g>
          <path class="cls-13" d="M434.342,266.5h-14.12c.475-6.388,1.444-7.361,7.058-7.378,6.358-.018,12.716,0,20.574,0-2.752,4.888-4.769,8.966-7.27,12.721-1.456,2.185-2.223,3.847.024,5.806a6.32,6.32,0,0,1,.908,1.307c4.991,7.435,4.627,8.677-4.03,12.864L432.22,281.8l-18.73,10.6c-4.166-5.4-3.958-6.369,1.3-8.673A40.992,40.992,0,0,0,434.342,266.5Z"/>
          <path class="cls-13" d="M413.386,292.918l-.212-.274c-2.22-2.878-3.281-4.6-2.92-6.009.328-1.285,1.791-2.143,4.376-3.276a40.483,40.483,0,0,0,19-16.46H419.792l.032-.428c.488-6.573,1.6-7.731,7.454-7.748,4.328-.014,8.655-.012,13.451-.007l7.809,0-.335.6c-.85,1.509-1.63,2.941-2.376,4.31-1.7,3.127-3.173,5.827-4.91,8.437-1.582,2.374-1.938,3.633-.046,5.283a3.779,3.779,0,0,1,.731.983c.08.137.16.274.246.4,2.568,3.827,3.7,5.98,3.187,7.873-.532,1.963-2.8,3.362-7.376,5.574l-.347.169-5.254-10Zm7.268-26.817h14.393l-.362.6a41.347,41.347,0,0,1-19.735,17.387c-2.3,1.007-3.676,1.778-3.923,2.741-.267,1.047.691,2.594,2.569,5.048l18.786-10.633,5.277,10.04c4.033-1.966,6.168-3.286,6.605-4.9.428-1.584-.7-3.673-3.08-7.218-.1-.143-.184-.294-.273-.445a3.2,3.2,0,0,0-.565-.785c-2.522-2.2-1.534-4.166-.1-6.328,1.719-2.579,3.181-5.265,4.875-8.375.648-1.191,1.322-2.43,2.046-3.724l-6.443,0c-4.8,0-9.123,0-13.449.006C422.015,259.537,421.118,260.35,420.654,266.1Z"/>
        </g>
        <g>
          <path class="cls-13" d="M454.992,258.694c-2.273,4-2.273,4-6.411,3.4l3.572-5.38a1.726,1.726,0,0,1,3.165,1.033A1.907,1.907,0,0,1,454.992,258.694Z"/>
          <path class="cls-13" d="M451.241,262.775a21.081,21.081,0,0,1-2.717-.286l-.626-.09,3.922-5.907a2.12,2.12,0,0,1,2.488-.83,2.03,2.03,0,0,1,1.409,2.115,2.314,2.314,0,0,1-.385,1.128C453.615,261.922,453.08,262.775,451.241,262.775Zm-1.977-.988c3.251.455,3.366.252,5.381-3.29l.017-.027a1.513,1.513,0,0,0,.258-.753,1.239,1.239,0,0,0-.872-1.3,1.319,1.319,0,0,0-1.562.517Z"/>
        </g>
        <g>
          <path class="cls-13" d="M461.386,258.694c-2.273,4-2.273,4-6.411,3.4l3.572-5.38a1.726,1.726,0,0,1,3.165,1.033A1.907,1.907,0,0,1,461.386,258.694Z"/>
          <path class="cls-13" d="M457.635,262.775a21.063,21.063,0,0,1-2.717-.286l-.626-.09,3.922-5.906a2.118,2.118,0,0,1,2.487-.831,2.028,2.028,0,0,1,1.409,2.115,2.325,2.325,0,0,1-.383,1.128C460.009,261.922,459.474,262.775,457.635,262.775Zm-1.977-.988c3.246.455,3.366.252,5.381-3.29l.017-.026a1.512,1.512,0,0,0,.257-.754,1.239,1.239,0,0,0-.872-1.3,1.317,1.317,0,0,0-1.561.517Z"/>
        </g>
      </g>
      <g>
        <g>
          <path class="cls-3" d="M434.342,266.5h-14.12c.475-6.388,1.444-7.361,7.058-7.378,6.358-.018,12.716,0,20.574,0-2.752,4.888-4.769,8.966-7.27,12.721-1.456,2.185-2.223,3.847.024,5.806a6.32,6.32,0,0,1,.908,1.307c4.991,7.435,4.627,8.677-4.03,12.864L432.22,281.8l-18.73,10.6c-4.166-5.4-3.958-6.369,1.3-8.673A40.992,40.992,0,0,0,434.342,266.5Z"/>
          <path class="cls-3" d="M413.386,292.918l-.212-.274c-2.22-2.878-3.281-4.6-2.92-6.009.328-1.285,1.791-2.143,4.376-3.276a40.483,40.483,0,0,0,19-16.46H419.792l.032-.428c.488-6.573,1.6-7.731,7.454-7.748,4.328-.014,8.655-.012,13.451-.007l7.809,0-.335.6c-.85,1.509-1.63,2.941-2.376,4.31-1.7,3.127-3.173,5.827-4.91,8.437-1.582,2.374-1.938,3.633-.046,5.283a3.779,3.779,0,0,1,.731.983c.08.137.16.274.246.4,2.568,3.827,3.7,5.98,3.187,7.873-.532,1.963-2.8,3.362-7.376,5.574l-.347.169-5.254-10Zm7.268-26.817h14.393l-.362.6a41.347,41.347,0,0,1-19.735,17.387c-2.3,1.007-3.676,1.778-3.923,2.741-.267,1.047.691,2.594,2.569,5.048l18.786-10.633,5.277,10.04c4.033-1.966,6.168-3.286,6.605-4.9.428-1.584-.7-3.673-3.08-7.218-.1-.143-.184-.294-.273-.445a3.2,3.2,0,0,0-.565-.785c-2.522-2.2-1.534-4.166-.1-6.328,1.719-2.579,3.181-5.265,4.875-8.375.648-1.191,1.322-2.43,2.046-3.724l-6.443,0c-4.8,0-9.123,0-13.449.006C422.015,259.537,421.118,260.35,420.654,266.1Z"/>
        </g>
        <g>
          <path class="cls-3" d="M454.992,258.694c-2.273,4-2.273,4-6.411,3.4l3.572-5.38a1.726,1.726,0,0,1,3.165,1.033A1.907,1.907,0,0,1,454.992,258.694Z"/>
          <path class="cls-3" d="M451.241,262.775a21.081,21.081,0,0,1-2.717-.286l-.626-.09,3.922-5.907a2.12,2.12,0,0,1,2.488-.83,2.03,2.03,0,0,1,1.409,2.115,2.314,2.314,0,0,1-.385,1.128C453.615,261.922,453.08,262.775,451.241,262.775Zm-1.977-.988c3.251.455,3.366.252,5.381-3.29l.017-.027a1.513,1.513,0,0,0,.258-.753,1.239,1.239,0,0,0-.872-1.3,1.319,1.319,0,0,0-1.562.517Z"/>
        </g>
        <g>
          <path class="cls-3" d="M461.386,258.694c-2.273,4-2.273,4-6.411,3.4l3.572-5.38a1.726,1.726,0,0,1,3.165,1.033A1.907,1.907,0,0,1,461.386,258.694Z"/>
          <path class="cls-3" d="M457.635,262.775a21.063,21.063,0,0,1-2.717-.286l-.626-.09,3.922-5.906a2.118,2.118,0,0,1,2.487-.831,2.028,2.028,0,0,1,1.409,2.115,2.325,2.325,0,0,1-.383,1.128C460.009,261.922,459.474,262.775,457.635,262.775Zm-1.977-.988c3.246.455,3.366.252,5.381-3.29l.017-.026a1.512,1.512,0,0,0,.257-.754,1.239,1.239,0,0,0-.872-1.3,1.317,1.317,0,0,0-1.561.517Z"/>
        </g>
      </g>
    </g>
  </g>
</svg>
