<svg xmlns="http://www.w3.org/2000/svg" viewBox="0 0 512 512">
  <defs>
    <style>
      .cls-1 {
        fill: #f4ebc2;
      }

      .cls-2 {
        fill: #f2e74b;
      }

      .cls-3 {
        fill: #f1d8b2;
      }

      .cls-4 {
        fill: #efd6b0;
      }

      .cls-5 {
        fill: #534f4c;
      }

      .cls-6 {
        fill: #7a7167;
      }

      .cls-7 {
        fill: #b3a592;
      }

      .cls-8 {
        fill: #655d59;
      }

      .cls-9 {
        font-size: 25px;
        font-family: TsukuARdGothicStd-R-90ms-RKSJ-H, FOT-TsukuARdGothic Std;
      }
    </style>
  </defs>
  <g id="レイヤー_1" data-name="レイヤー 1">
    <g>
      <path class="cls-1" d="M349.763,279.448l8.586-.257q6.486,7.829,12.968,15.656c17.829,12.305,1.525,20.37-3.7,29.812-10.24,7.139-23.915,9.751-29.815,22.61-11.462,11.6-27.055,9.19-41.069,12.1-23.791.15-47.414,4.992-71.308,2.722-24.058,3.539-43-8.528-60.743-21.7-6.8-5.051-13.488-10.624-20.39-15.757,6.779-13.063,13.1-26.486,26.692-34.235,28.833,5.044,57.708,9.6,87.156,7.477,10.637,2.687,20.06-2.61,29.992-4.558Z"/>
      <path class="cls-2" d="M216.894,365.725c-21.165,0-38.241-11.217-54-22.92-3.447-2.559-6.908-5.285-10.255-7.923-3.309-2.607-6.73-5.3-10.137-7.835l-2.049-1.523,2.382-4.6c6.442-12.487,13.105-25.4,26.664-33.127l.939-.535,1.063.186c29.162,5.1,57.717,9.509,86.423,7.44l.482-.035.468.119c6.692,1.687,13-.205,19.677-2.21,2.912-.875,5.924-1.78,9-2.384l61.835-13.922,10.34-.308,13.641,16.471c5.522,3.886,8.463,7.825,8.991,12.035.747,5.963-3.534,10.871-7.312,15.2a39.488,39.488,0,0,0-4.809,6.254l-.337.61-.571.4a87.173,87.173,0,0,1-10.413,5.926c-7.577,3.859-14.734,7.5-18.392,15.476l-.22.481-.372.376c-9.066,9.177-20.26,10.3-31.087,11.38a110.2,110.2,0,0,0-11.505,1.551l-.293.06-.3,0c-9.339.059-18.868.868-28.083,1.65-14.076,1.195-28.627,2.428-43.169,1.092A61.505,61.505,0,0,1,216.894,365.725Zm-68.777-41.96c2.785,2.114,5.544,4.288,8.231,6.4,3.314,2.611,6.741,5.311,10.118,7.817,16.922,12.563,35.375,24.544,58.518,21.139l.36-.053.36.034c14.129,1.342,28.528.12,42.453-1.063,9.235-.784,18.78-1.6,28.257-1.67,3.921-.793,7.941-1.2,11.833-1.585,10.06-1.007,19.568-1.958,27.061-9.273,4.581-9.512,12.867-13.733,20.885-17.817a86.84,86.84,0,0,0,9.163-5.131,48.937,48.937,0,0,1,5.168-6.654c3.237-3.71,6.294-7.214,5.88-10.512-.309-2.468-2.593-5.188-6.791-8.085l-.342-.235-12.3-14.848-6.832.2L288.787,296.25c-2.873.564-5.613,1.388-8.515,2.259-7.026,2.11-14.288,4.29-22.39,2.4-28.868,2.012-57.32-2.3-86.332-7.357-11.4,6.905-17.23,18.193-23.387,30.127Z"/>
    </g>
    <path class="cls-3" d="M95.441,298.453c-10.783-14.91,6.175-21.732,9.455-32.509,14.433-2.164,29.182,4.268,43.534-1.407,5.23,4.368,12.323,6.71,15.037,13.814-1.115,13.348-13.312,10.893-20.835,13.18-.574,7.322,10.542,6.234,7.31,12.054-4.117,7.41-13.335,1.814-19.58,4.061-1.025,6.94,5.355,8.566,7.24,12.906-1.922,1.338-3.664,3.218-5.8,3.931-21.033,7.029-26.722-11.056-36.48-22.478l.2.282Z"/>
    <path class="cls-4" d="M359.012,272.481c7.087-7.806,14.527-15.326,21.157-23.5,6.057-7.471,13.931-9.272,21.171-4.888,9.087,5.5,20.729,9.984,21.362,23.438.631,13.434-1.089,26.149-13.454,34.627-5.956-4.137-18.78,8.5-17.712-1.587,2.076-19.6-9.986-8.054-15.749-10.059,12.478-19.472-3.927-13.854-12.825-14.756-1.414-.4-2.828-.808-4.23-1.2A2.222,2.222,0,0,0,359.012,272.481Z"/>
    <path class="cls-5" d="M375.787,290.509c5.763,2,17.825-9.542,15.749,10.059-1.068,10.086,11.756-2.55,17.712,1.587-.057,9.826-8.786,9.486-14.384,10.5-8.569,1.558-12.395,9.363-19.67,12.1l-3.808,1.885L368.3,331q-.342-3.17-.683-6.338c5.229-9.442,21.533-17.507,3.7-29.812Z"/>
    <path class="cls-6" d="M258.136,297.881c-29.448,2.123-58.323-2.433-87.156-7.477q1.878-3.437,3.755-6.875a336.378,336.378,0,0,0,83.421,8.037Q258.147,294.724,258.136,297.881Z"/>
    <path class="cls-5" d="M174.735,283.529q-1.878,3.438-3.755,6.875c-13.6,7.749-19.913,21.172-26.692,34.235l-1.791.106-1.692-.6-3.2-3.6c-1.885-4.34-8.265-5.966-7.24-12.906,6.245-2.247,15.463,3.349,19.58-4.061,3.232-5.82-7.884-4.732-7.31-12.054,7.523-2.287,19.72.168,20.835-13.18C168.282,277.774,171.407,280.871,174.735,283.529Z"/>
    <path class="cls-6" d="M349.763,279.448l-61.635,13.875q.021-3.388.043-6.777c16.429-4.943,32.516-10.952,50.018-11.921C343.649,274.322,347.538,273.775,349.763,279.448Z"/>
    <path class="cls-7" d="M137.6,320.552l3.2,3.6c-4.114,12.5-14.409,13.008-24,10.151-15.336-4.57-23.208-15.617-21.481-32.293,9.757,11.421,15.446,29.506,36.479,22.477C133.938,323.77,135.68,321.89,137.6,320.552Z"/>
    <path class="cls-6" d="M148.43,264.537c-14.352,5.675-29.1-.757-43.534,1.407C119.013,252.34,133.578,253.915,148.43,264.537Z"/>
    <path class="cls-8" d="M375.787,290.509l-4.47,4.338q-6.483-7.827-12.968-15.656,2.308-1.722,4.617-3.44C371.86,276.655,388.265,271.037,375.787,290.509Z"/>
    <path class="cls-8" d="M288.171,286.546q-.021,3.389-.043,6.777c-9.932,1.948-19.355,7.245-29.992,4.558q.01-3.157.02-6.315Z"/>
    <path class="cls-6" d="M371.386,326.643l3.808-1.885Z"/>
    <path class="cls-7" d="M95.441,298.453l.081,3.834A15.8,15.8,0,0,1,94.17,299.6C94.1,299.37,94.992,298.843,95.441,298.453Z"/>
    <path class="cls-1" d="M359.012,272.481a2.222,2.222,0,0,1-.28,2.067c-.431-.57-.852-1.133-1.272-1.7Z"/>
  </g>
  <g id="レイヤー_4" data-name="レイヤー 4">
    <text class="cls-9" transform="translate(206 124)">ひっぱる</text>
    <text class="cls-9" transform="translate(248.762 75.425)">3</text>
    <text class="cls-9" transform="translate(219.881 335.73)">チーズ</text>
  </g>
</svg>
